STARTFONT 2.1
FONT -FontForge-Futura-Medium-R-Normal--75-720-75-75-P-409-ISO10646-1
SIZE 72 75 75
FONTBOUNDINGBOX 138 101 -39 -22
COMMENT "Generated by fontforge, http://fontforge.sourceforge.net"
COMMENT "(c) Copyright 1998, Neufville Digital. ALL RIGHTS RESERVED. This font is licensed, not sold, and may not be reproduced without the written consent of Neufville Digital. Parts (c) Visualogik Technology & Design, 1998."
STARTPROPERTIES 40
FOUNDRY "FontForge"
FAMILY_NAME "Futura"
WEIGHT_NAME "Medium"
SLANT "R"
SETWIDTH_NAME "Normal"
ADD_STYLE_NAME ""
PIXEL_SIZE 75
POINT_SIZE 720
RESOLUTION_X 75
RESOLUTION_Y 75
SPACING "P"
AVERAGE_WIDTH 409
CHARSET_REGISTRY "ISO10646"
CHARSET_ENCODING "1"
FONTNAME_REGISTRY ""
CHARSET_COLLECTIONS "ISO8859-2 ISO8859-9 ISO8859-4 ISO10646-1"
FONT_NAME "Futura-Medium"
FACE_NAME "Futura Medium"
COPYRIGHT "(c) Copyright 1998, Neufville Digital. ALL RIGHTS RESERVED. This font is licensed, not sold, and may not be reproduced without the written consent of Neufville Digital. Parts (c) Visualogik Technology & Design, 1998."
FONT_VERSION "16.0d2e1"
FONT_ASCENT 60
FONT_DESCENT 15
UNDERLINE_POSITION -10
UNDERLINE_THICKNESS 6
X_HEIGHT 35
CAP_HEIGHT 56
RAW_ASCENT 799
RAW_DESCENT 200
NORM_SPACE 23
RELATIVE_WEIGHT 50
RELATIVE_SETWIDTH 50
SUPERSCRIPT_X 0
SUPERSCRIPT_Y 33
SUPERSCRIPT_SIZE 44
SUBSCRIPT_X 0
SUBSCRIPT_Y 6
SUBSCRIPT_SIZE 44
FIGURE_WIDTH 46
AVG_LOWERCASE_WIDTH 384
AVG_UPPERCASE_WIDTH 499
ENDPROPERTIES
CHARS 419
STARTCHAR .null
ENCODING 0
SWIDTH 0 0
DWIDTH 0 0
BBX 1 1 0 0
BITMAP
00
ENDCHAR
STARTCHAR controlBS
ENCODING 8
SWIDTH 0 0
DWIDTH 0 0
BBX 1 1 0 0
BITMAP
00
ENDCHAR
STARTCHAR controlHT
ENCODING 9
SWIDTH 308 0
DWIDTH 23 0
BBX 1 1 0 0
BITMAP
00
ENDCHAR
STARTCHAR controlCR
ENCODING 13
SWIDTH 500 0
DWIDTH 38 0
BBX 1 1 0 0
BITMAP
00
ENDCHAR
STARTCHAR controlGS
ENCODING 29
SWIDTH 0 0
DWIDTH 0 0
BBX 1 1 0 0
BITMAP
00
ENDCHAR
STARTCHAR space
ENCODING 32
SWIDTH 308 0
DWIDTH 23 0
BBX 1 1 0 0
BITMAP
00
ENDCHAR
STARTCHAR exclam
ENCODING 33
SWIDTH 331 0
DWIDTH 25 0
BBX 11 58 7 -1
BITMAP
7FC0
7FC0
7FC0
7FC0
7FC0
7FC0
7FC0
7FC0
7FC0
7FC0
7FC0
7FC0
7FC0
7FC0
7FC0
7FC0
7FC0
7FC0
7FC0
7FC0
7FC0
7FC0
7FC0
7FC0
7FC0
7FC0
7FC0
7FC0
7FC0
7FC0
7FC0
7FC0
7FC0
7FC0
7FC0
7FC0
7FC0
7FC0
7FC0
7FC0
7FC0
7FC0
7FC0
7FC0
0000
0000
0000
0000
1F00
3F80
7FC0
7FC0
FFE0
FFE0
7FC0
7FC0
3F80
1F00
ENDCHAR
STARTCHAR quotedbl
ENCODING 34
SWIDTH 410 0
DWIDTH 31 0
BBX 23 23 4 34
BITMAP
FF87FE
FF87FE
FF83FE
FF83FE
FF83FE
FF83FC
FF83FC
FF83FC
7F83FC
7F83FC
7F83FC
7F83FC
7F83FC
7F03FC
7F03FC
7F03FC
7F01FC
7F01FC
7F01FC
7F01F8
7F01F8
7F01F8
3F01F8
ENDCHAR
STARTCHAR numbersign
ENCODING 35
SWIDTH 617 0
DWIDTH 46 0
BBX 43 57 2 0
BITMAP
00078003E000
0007E003F800
0007E003F000
000FE003F000
000FE003F000
000FE003F000
000FE007F000
000FE007F000
000FC007F000
000FC007F000
000FC007E000
000FC007E000
001FC007E000
001FC007E000
001FC00FE000
001FC00FE000
3FFFFFFFFFE0
3FFFFFFFFFE0
3FFFFFFFFFE0
3FFFFFFFFFE0
3FFFFFFFFFE0
3FFFFFFFFFE0
3FFFFFFFFFE0
003F801FC000
003F001FC000
003F001FC000
003F001FC000
003F001F8000
007F001F8000
007F001F8000
007F003F8000
007F003F8000
007E003F8000
FFFFFFFFFF80
FFFFFFFFFF80
FFFFFFFFFF80
FFFFFFFFFF80
FFFFFFFFFF80
FFFFFFFFFF80
FFFFFFFFFF80
00FC007F0000
00FC007F0000
00FC007F0000
01FC007E0000
01FC007E0000
01FC007E0000
01FC007E0000
01FC00FE0000
01F800FE0000
01F800FE0000
01F800FE0000
03F800FC0000
03F800FC0000
03F800FC0000
03F800FC0000
03F801FC0000
03F000FC0000
ENDCHAR
STARTCHAR dollar
ENCODING 36
SWIDTH 617 0
DWIDTH 46 0
BBX 37 73 4 -8
BITMAP
00007E0000
00007E0000
00007E0000
00007E0000
00007E0000
00007E0000
00007E0000
00007E0000
0003FFE000
000FFFF800
003FFFFC00
007FFFFE00
00FFFFFF00
01FFFFFF80
03FFFFFFC0
03FFC3FFE0
07FE00FFE0
07FC003FE0
07F8001F80
0FF8001E00
0FF8000800
0FF8000000
0FF0000000
0FF8000000
0FF8000000
07FC000000
07FE000000
07FF000000
03FFC00000
03FFF00000
01FFFC0000
00FFFF0000
007FFFC000
003FFFE000
000FFFF800
0007FFFE00
0001FFFF00
00007FFF80
00001FFFC0
000007FFC0
000001FFE0
0000007FE0
0000003FF0
0000001FF0
0000001FF0
0000000FF8
0000000FF8
0000000FF8
0F80000FF8
FF80000FF8
7F80000FF8
7FC0000FF8
7FC0000FF0
7FE0001FF0
3FF0003FF0
3FF0007FE0
1FFC00FFE0
1FFF87FFC0
0FFFFFFFC0
07FFFFFF80
07FFFFFF00
03FFFFFE00
00FFFFFC00
007FFFF000
000FFFC000
0001FF0000
00007E0000
00007E0000
00007E0000
00007E0000
00007E0000
00007E0000
00007E0000
ENDCHAR
STARTCHAR percent
ENCODING 37
SWIDTH 916 0
DWIDTH 69 0
BBX 63 58 3 -1
BITMAP
007FC00000060000
01FFF000000F8000
07FFF800000F8000
0FFFFE00001F8000
1FFFFF00001F0000
3FFFFF80003E0000
3FE0FF80007E0000
7F803FC0007C0000
7F001FC000FC0000
FE000FE000F80000
FE000FE001F80000
FC000FE001F00000
FC0007E003E00000
FC0007E007E00000
FC0007E007C00000
FE000FE00FC00000
FE000FE00F800000
7F001FC01F000000
7F803FC01F000000
7FC07F803E000000
3FFFFF807E000000
1FFFFF007C000000
0FFFFE00FC000000
07FFFC00F8000000
03FFF801F0000000
00FFE003F0000000
00060003E0000000
00000007E0000000
00000007C0000000
0000000FC0000000
0000000F80000000
0000001F0007F800
0000003F001FFF00
0000003E007FFF80
0000007E00FFFFC0
0000007C01FFFFE0
000000FC03FFFFF0
000000F807FC0FF8
000001F007F803FC
000003F00FF001FC
000003E00FE001FC
000007E00FE000FE
000007C00FC000FE
00000FC00FC000FE
00000F800FC000FE
00001F000FC000FE
00003F000FC000FE
00003E000FE000FC
00007E000FE001FC
00007C0007F003FC
0000F80007FC07F8
0001F80003FFFFF8
0001F00001FFFFF0
0003F00001FFFFE0
0003E000007FFFC0
0007E000003FFF00
0001C000000FFE00
0000800000000000
ENDCHAR
STARTCHAR ampersand
ENCODING 38
SWIDTH 730 0
DWIDTH 55 0
BBX 49 58 5 -1
BITMAP
0003FFC0000000
000FFFF0000000
001FFFF8000000
003FFFFC000000
007FFFFE000000
00FFFFFF000000
00FFFFFF000000
01FF81FF800000
01FF00FF800000
01FE007F800000
01FE007F800000
01FE007FC00000
01FE007FC00000
01FE007F800000
01FE007F800000
01FF00FF800000
01FF81FF800000
00FF83FF000000
00FFCFFE000000
007FFFFE000000
007FFFFC000000
003FFFF8000000
001FFFF0000000
001FFFE0000000
000FFF80000000
003FFF00000000
007FFF80000000
01FFFFC0000000
03FFFFC0000000
07FFFFE0000000
0FFFFFF0000000
1FFF3FF8008000
3FFC1FFC01C000
3FF80FFE03E000
7FF007FE07F000
7FE007FF0FF800
FFC003FF9FFC00
FF8001FFFFF800
FF0000FFFFF000
FF00007FFFE000
FF00003FFFE000
FF00003FFFC000
FF00001FFF8000
FF00000FFF0000
FF00000FFF0000
FF80001FFF0000
FFC0003FFF8000
7FC000FFFFC000
7FF001FFFFE000
3FF807FFFFF000
3FFFFFFFBFF800
1FFFFFFF1FF800
0FFFFFFE0FFC00
07FFFFFC0FFE00
03FFFFF007FF00
00FFFFE003FF80
007FFF8001FF80
000FFC00000000
ENDCHAR
STARTCHAR quotesingle
ENCODING 39
SWIDTH 231 0
DWIDTH 17 0
BBX 9 23 4 34
BITMAP
FF80
FF80
FF80
FF80
FF80
FF80
FF80
FF80
7F80
7F80
7F80
7F80
7F80
7F00
7F00
7F00
7F00
7F00
7F00
7F00
7F00
7F00
3F00
ENDCHAR
STARTCHAR parenleft
ENCODING 40
SWIDTH 366 0
DWIDTH 27 0
BBX 15 77 7 -15
BITMAP
01C0
01F8
03FE
03FE
03FE
07FC
07FC
07F8
0FF8
0FF8
0FF0
1FF0
1FF0
1FE0
3FE0
3FE0
3FE0
3FC0
3FC0
7FC0
7FC0
7FC0
7F80
7F80
7F80
FF80
FF80
FF80
FF80
FF00
FF00
FF00
FF00
FF00
FF00
FF00
FF00
FF00
FF00
FF00
FF00
FF00
FF00
FF00
FF00
FF00
FF00
FF00
FF80
FF80
FF80
FF80
7F80
7F80
7F80
7F80
7FC0
7FC0
3FC0
3FC0
3FE0
3FE0
3FE0
1FE0
1FF0
1FF0
1FF0
0FF8
0FF8
0FF8
07FC
07FC
03FC
03FE
03FE
01F8
01E0
ENDCHAR
STARTCHAR parenright
ENCODING 41
SWIDTH 366 0
DWIDTH 27 0
BBX 16 78 5 -16
BITMAP
0700
1F80
FF80
FF80
7FC0
7FC0
3FE0
3FE0
3FE0
1FF0
1FF0
1FF0
0FF0
0FF8
0FF8
07F8
07F8
07FC
07FC
03FC
03FC
03FC
03FE
03FE
03FE
01FE
01FE
01FE
01FE
01FE
01FE
01FE
01FF
01FF
01FF
01FF
01FF
01FF
01FF
01FF
01FF
01FF
01FF
01FF
01FF
01FE
01FE
01FE
01FE
01FE
01FE
01FE
03FE
03FE
03FE
03FC
03FC
03FC
07FC
07FC
07F8
07F8
0FF8
0FF8
0FF8
0FF0
1FF0
1FF0
3FE0
3FE0
3FE0
7FC0
7FC0
7FC0
FF80
3F80
0700
0100
ENDCHAR
STARTCHAR asterisk
ENCODING 42
SWIDTH 617 0
DWIDTH 46 0
BBX 29 28 9 34
BITMAP
003FC000
001FC000
001FC000
001FC000
001FC000
001FC000
001F8020
781F80E0
7E1F87E0
7FDF9FE0
FFFFFFF0
FFFFFFF0
FFFFFFF0
FFFFFFF8
1FFFFF80
01FFF800
007FF000
00FFF000
01FFF800
03FFFC00
07FDFE00
07F9FF00
0FF0FF00
1FF07F80
0FE07F00
07C03E00
01C01800
00801000
ENDCHAR
STARTCHAR plus
ENCODING 43
SWIDTH 617 0
DWIDTH 46 0
BBX 39 39 4 10
BITMAP
0000FE0000
0000FE0000
0000FE0000
0000FE0000
0000FE0000
0000FE0000
0000FE0000
0000FE0000
0000FE0000
0000FE0000
0000FE0000
0000FE0000
0000FE0000
0000FE0000
0000FE0000
0000FE0000
FFFFFFFFFE
FFFFFFFFFE
FFFFFFFFFE
FFFFFFFFFE
FFFFFFFFFE
FFFFFFFFFE
FFFFFFFFFE
0000FE0000
0000FE0000
0000FE0000
0000FE0000
0000FE0000
0000FE0000
0000FE0000
0000FE0000
0000FE0000
0000FE0000
0000FE0000
0000FE0000
0000FE0000
0000FE0000
0000FE0000
0000FE0000
ENDCHAR
STARTCHAR comma
ENCODING 44
SWIDTH 308 0
DWIDTH 23 0
BBX 16 24 2 -13
BITMAP
0080
00E0
01FC
01FF
01FE
03FE
03FC
07FC
07F8
07F8
0FF0
0FF0
1FE0
1FE0
1FC0
3FC0
3F80
7F80
7F00
7F00
FE00
FE00
7C00
1C00
ENDCHAR
STARTCHAR hyphen
ENCODING 45
SWIDTH 217 0
DWIDTH 16 0
BBX 16 7 0 15
BITMAP
FFFF
FFFF
FFFF
FFFF
FFFF
FFFF
FFFF
ENDCHAR
STARTCHAR period
ENCODING 46
SWIDTH 308 0
DWIDTH 23 0
BBX 11 10 6 -1
BITMAP
1F00
3F80
7FC0
7FC0
FFE0
7FE0
7FC0
7FC0
3F80
1F00
ENDCHAR
STARTCHAR slash
ENCODING 47
SWIDTH 518 0
DWIDTH 39 0
BBX 39 77 0 -15
BITMAP
00000001C0
00000001F0
00000003FE
00000003FC
00000003FC
00000007F8
00000007F8
0000000FF0
0000000FF0
0000001FF0
0000001FE0
0000001FE0
0000003FC0
0000003FC0
0000007F80
0000007F80
000000FF80
000000FF00
000000FF00
000001FE00
000001FE00
000003FC00
000003FC00
000007FC00
000007F800
000007F800
00000FF000
00000FF000
00001FE000
00001FE000
00003FE000
00003FC000
00003FC000
00007F8000
00007F8000
0000FF0000
0000FF0000
0001FE0000
0001FE0000
0001FE0000
0003FC0000
0003FC0000
0007F80000
0007F80000
000FF00000
000FF00000
000FF00000
001FE00000
001FE00000
003FC00000
003FC00000
007F800000
007F800000
00FF800000
00FF000000
00FF000000
01FE000000
01FE000000
03FC000000
03FC000000
07FC000000
07F8000000
07F8000000
0FF0000000
0FF0000000
1FE0000000
1FE0000000
3FE0000000
3FC0000000
3FC0000000
7F80000000
7F80000000
FF00000000
FF00000000
FF00000000
3E00000000
0E00000000
ENDCHAR
STARTCHAR zero
ENCODING 48
SWIDTH 617 0
DWIDTH 46 0
BBX 40 59 3 -1
BITMAP
0000080000
0001FFC000
000FFFF000
001FFFF800
003FFFFE00
00FFFFFF00
00FFFFFF80
01FFFFFFC0
03FFC3FFC0
07FF00FFE0
07FE003FF0
0FFC001FF0
0FF8001FF8
1FF0000FF8
1FF00007FC
3FE00007FC
3FE00007FC
3FC00003FE
7FC00003FE
7FC00003FE
7FC00001FE
7F800001FE
7F800001FF
FF800001FF
FF800001FF
FF800000FF
FF800000FF
FF800000FF
FF800000FF
FF800000FF
FF800000FF
FF800000FF
FF800000FF
FF800000FF
FF800001FF
FF800001FF
7F800001FF
7F800001FF
7F800001FE
7FC00001FE
7FC00003FE
3FC00003FE
3FE00003FC
3FE00007FC
1FF00007FC
1FF0000FF8
1FF8000FF8
0FF8001FF0
0FFC003FF0
07FE007FE0
03FF81FFE0
03FFFFFFC0
01FFFFFF80
00FFFFFF00
007FFFFE00
003FFFFC00
000FFFF800
0003FFE000
00007F0000
ENDCHAR
STARTCHAR one
ENCODING 49
SWIDTH 617 0
DWIDTH 46 0
BBX 18 57 11 0
BITMAP
0FFFC0
0FFFC0
1FFFC0
3FFFC0
3FFFC0
7FFFC0
7FFFC0
FFFFC0
007FC0
007FC0
007FC0
007FC0
007FC0
007FC0
007FC0
007FC0
007FC0
007FC0
007FC0
007FC0
007FC0
007FC0
007FC0
007FC0
007FC0
007FC0
007FC0
007FC0
007FC0
007FC0
007FC0
007FC0
007FC0
007FC0
007FC0
007FC0
007FC0
007FC0
007FC0
007FC0
007FC0
007FC0
007FC0
007FC0
007FC0
007FC0
007FC0
007FC0
007FC0
007FC0
007FC0
007FC0
007FC0
007FC0
007FC0
007FC0
007FC0
ENDCHAR
STARTCHAR two
ENCODING 50
SWIDTH 617 0
DWIDTH 46 0
BBX 38 58 2 0
BITMAP
0000100000
0007FFC000
003FFFF000
007FFFFC00
01FFFFFE00
03FFFFFF80
03FFFFFFC0
07FFFFFFC0
0FFF83FFE0
0FFE007FF0
1FF8003FF0
1FF0001FF8
1FF0000FF8
3FE00007F8
3FE00007F8
3FC00007FC
3FC00007FC
3FC00007FC
00000007FC
00000007FC
00000007F8
0000000FF8
0000000FF8
0000001FF8
0000001FF0
0000003FF0
0000007FE0
0000007FE0
000000FFC0
000001FF80
000003FF80
000003FF00
000007FE00
00000FFE00
00001FFC00
00003FF800
00003FF000
00007FE000
0000FFE000
0001FFC000
0003FF8000
0007FF0000
0007FE0000
000FFC0000
001FF80000
003FF80000
007FF00000
007FE00000
00FFC00000
01FF800000
03FFFFFFFC
07FFFFFFFC
0FFFFFFFFC
0FFFFFFFFC
1FFFFFFFFC
3FFFFFFFFC
7FFFFFFFFC
FFFFFFFFFC
ENDCHAR
STARTCHAR three
ENCODING 51
SWIDTH 617 0
DWIDTH 46 0
BBX 36 59 3 -1
BITMAP
0000700000
000FFF8000
007FFFE000
00FFFFF800
01FFFFFC00
03FFFFFE00
07FFFFFF00
0FFFFFFF80
0FFF07FFC0
1FFC01FFC0
1FF0007FC0
1FF0007FE0
3FE0003FE0
3FE0001FE0
3FC0001FE0
3FC0001FE0
0000001FE0
0000001FE0
0000001FE0
0000001FE0
0000003FE0
0000003FC0
0000007FC0
000001FFC0
0000FFFF80
0000FFFF00
0000FFFE00
0000FFFC00
0000FFFC00
0000FFFE00
0000FFFF00
0000FFFF80
000003FFC0
000000FFC0
0000007FE0
0000003FE0
0000001FF0
0000001FF0
0000000FF0
0000000FF0
0000000FF0
0000000FF0
0000000FF0
FF80000FF0
FF80001FF0
7F80001FF0
7FC0001FF0
7FC0003FE0
7FE0007FE0
3FF000FFC0
3FFC03FFC0
1FFFFFFF80
0FFFFFFF80
0FFFFFFF00
07FFFFFE00
01FFFFF800
00FFFFF000
003FFFC000
0003FE0000
ENDCHAR
STARTCHAR four
ENCODING 52
SWIDTH 617 0
DWIDTH 46 0
BBX 42 60 1 0
BITMAP
000000001000
000000003000
000000003000
000000007000
00000000F000
00000000F000
00000001F000
00000003F000
00000003F000
00000007F000
0000000FF000
0000000FF000
0000001FF000
0000003FF000
0000007FF000
0000007FF000
000000FFF000
000001FFF000
000001FFF000
000003FFF000
000007FFF000
000007FFF000
00000FFFF000
00001FFFF000
00001FFFF000
00003FFFF000
00007FFFF000
00007FDFF000
0000FF9FF000
0001FF9FF000
0003FF1FF000
0003FE1FF000
0007FC1FF000
000FFC1FF000
000FF81FF000
001FF01FF000
003FF01FF000
003FE01FF000
007FC01FF000
00FFC01FF000
00FF801FF000
01FF001FF000
03FF001FF000
03FE001FF000
07FFFFFFFFC0
0FFFFFFFFFC0
1FFFFFFFFFC0
1FFFFFFFFFC0
3FFFFFFFFFC0
7FFFFFFFFFC0
7FFFFFFFFFC0
FFFFFFFFFFC0
0000001FF000
0000001FF000
0000001FF000
0000001FF000
0000001FF000
0000001FF000
0000001FF000
0000001FF000
ENDCHAR
STARTCHAR five
ENCODING 53
SWIDTH 617 0
DWIDTH 46 0
BBX 39 58 1 -1
BITMAP
0001FFFFFC
0001FFFFFC
0003FFFFFC
0003FFFFFC
0003FFFFFC
0003FFFFFC
0007FFFFFC
0007FFFFFC
0007F80000
000FF80000
000FF00000
000FF00000
001FF00000
001FF00000
001FE00000
001FE00000
003FE00000
003FC00000
003FFFC000
007FFFF800
007FFFFE00
007FFFFF00
00FFFFFF80
00FFFFFFC0
00FFFFFFE0
00FF03FFF0
01F8007FF0
01F0003FF8
01E0001FFC
03C0000FFC
00000007FC
00000003FE
00000003FE
00000003FE
00000001FE
00000001FE
00000001FE
00000001FE
00000001FE
00000001FE
00000001FE
00000003FE
02000003FE
07000003FC
0F800007FC
1F80000FFC
7FC0000FF8
FFE0003FF8
7FF8007FF0
3FFE01FFF0
1FFFFFFFE0
1FFFFFFFC0
0FFFFFFF80
03FFFFFF00
01FFFFFC00
00FFFFF800
003FFFC000
0003FE0000
ENDCHAR
STARTCHAR six
ENCODING 54
SWIDTH 617 0
DWIDTH 46 0
BBX 38 59 4 -1
BITMAP
0000006000
000000F000
000001F800
000003FE00
000003FE00
000007FE00
00000FFC00
00000FF800
00001FF800
00003FF000
00007FE000
00007FC000
0000FFC000
0001FF8000
0003FF0000
0003FE0000
0007FE0000
000FFC0000
001FF80000
001FF00000
003FF00000
007FE00000
00FFDF0000
00FFFFF000
01FFFFF800
03FFFFFE00
03FFFFFF00
07FFFFFF80
0FFFFFFFC0
0FFFFFFFE0
1FFE01FFE0
3FF8007FF0
3FF0003FF8
3FE0001FF8
7FC0000FF8
7FC00007FC
7F800007FC
FF800007FC
FF800003FC
FF800003FC
FF000003FC
FF000003FC
FF800003FC
FF800007FC
7F800007FC
7FC00007F8
7FC0000FF8
3FE0001FF8
3FF0003FF0
1FF8007FF0
1FFE01FFE0
0FFFFFFFC0
07FFFFFF80
03FFFFFF00
01FFFFFE00
00FFFFFC00
003FFFF800
000FFFE000
0001FF0000
ENDCHAR
STARTCHAR seven
ENCODING 55
SWIDTH 617 0
DWIDTH 46 0
BBX 42 59 4 -2
BITMAP
FFFFFFFFFFC0
FFFFFFFFFF80
FFFFFFFFFF80
FFFFFFFFFF00
FFFFFFFFFF00
FFFFFFFFFE00
FFFFFFFFFC00
FFFFFFFFFC00
0000000FF800
0000001FF800
0000001FF000
0000003FE000
0000007FE000
0000007FC000
000000FF8000
000001FF8000
000001FF0000
000003FF0000
000003FE0000
000007FC0000
00000FFC0000
00000FF80000
00001FF80000
00001FF00000
00003FE00000
00007FE00000
00007FC00000
0000FFC00000
0000FF800000
0001FF000000
0003FF000000
0003FE000000
0007FC000000
000FFC000000
000FF8000000
001FF8000000
001FF0000000
003FE0000000
007FE0000000
007FC0000000
00FFC0000000
00FF80000000
01FF00000000
03FF00000000
03FE00000000
07FE00000000
07FC00000000
0FF800000000
1FF800000000
1FF000000000
3FF000000000
3FE000000000
7FC000000000
FFC000000000
FF8000000000
7F0000000000
3F0000000000
0E0000000000
020000000000
ENDCHAR
STARTCHAR eight
ENCODING 56
SWIDTH 617 0
DWIDTH 46 0
BBX 36 59 5 -1
BITMAP
0000200000
000FFF0000
003FFFE000
00FFFFF000
01FFFFF800
03FFFFFC00
07FFFFFE00
0FFFFFFF00
0FFF0FFF80
1FFC01FF80
1FF800FFC0
1FF0007FC0
3FE0003FC0
3FC0003FC0
3FC0003FE0
3FC0001FE0
3FC0001FE0
3FC0001FE0
3FC0001FE0
3FC0003FE0
3FE0003FC0
1FE0007FC0
1FF000FFC0
1FF801FF80
0FFE03FF00
07FFFFFF00
03FFFFFE00
01FFFFFC00
00FFFFF800
03FFFFFC00
07FFFFFE00
0FFFFFFF00
1FFF0FFF80
3FFC01FFC0
3FF000FFC0
7FE0007FE0
7FC0003FE0
7FC0001FE0
7F80001FF0
7F80001FF0
FF80001FF0
FF80000FF0
FF80001FF0
FF80001FF0
7F80001FF0
7FC0001FF0
7FC0003FE0
7FE0003FE0
3FF0007FE0
3FF801FFC0
1FFE03FFC0
1FFFFFFF80
0FFFFFFF00
07FFFFFF00
03FFFFFE00
01FFFFF800
007FFFF000
001FFFC000
0003FE0000
ENDCHAR
STARTCHAR nine
ENCODING 57
SWIDTH 617 0
DWIDTH 46 0
BBX 38 59 4 -2
BITMAP
0007FF8000
001FFFF000
007FFFF800
01FFFFFE00
03FFFFFF00
07FFFFFF80
0FFFFFFFC0
0FFF87FFE0
1FFC00FFE0
3FF8003FF0
3FE0001FF8
7FE0000FF8
7FC0000FF8
7F800007FC
FF800007FC
FF800003FC
FF800003FC
FF000003FC
FF000003FC
FF800003FC
FF800003FC
FF800007FC
7F800007F8
7FC0000FF8
7FE0000FF8
7FF0001FF0
3FF8003FF0
3FFC00FFE0
1FFFC7FFE0
0FFFFFFFC0
07FFFFFFC0
03FFFFFF80
01FFFFFF00
00FFFFFF00
003FFFFE00
000FFFFC00
00000FF800
00001FF800
00003FF000
00007FE000
00007FC000
0000FFC000
0001FF8000
0003FF0000
0003FE0000
0007FE0000
000FFC0000
000FF80000
001FF80000
003FF00000
007FE00000
007FC00000
00FFC00000
01FF800000
01FF000000
00FE000000
003E000000
001C000000
0008000000
ENDCHAR
STARTCHAR colon
ENCODING 58
SWIDTH 308 0
DWIDTH 23 0
BBX 11 38 6 -1
BITMAP
0400
3F80
7FC0
7FC0
7FE0
FFE0
7FE0
7FC0
7FC0
3F80
0400
0000
0000
0000
0000
0000
0000
0000
0000
0000
0000
0000
0000
0000
0000
0000
0000
0000
1F00
3F80
7FC0
7FC0
FFE0
7FE0
7FC0
7FC0
3F80
1F00
ENDCHAR
STARTCHAR semicolon
ENCODING 59
SWIDTH 308 0
DWIDTH 23 0
BBX 16 50 2 -13
BITMAP
0010
00FE
01FF
01FF
03FF
03FF
03FF
01FF
01FE
00FC
0000
0000
0000
0000
0000
0000
0000
0000
0000
0000
0000
0000
0000
0000
0000
0000
0080
00E0
01FC
01FF
01FE
03FE
03FC
07FC
07F8
07F8
0FF0
0FF0
1FE0
1FE0
1FC0
3FC0
3F80
7F80
7F00
7F00
FE00
FE00
7C00
1C00
ENDCHAR
STARTCHAR less
ENCODING 60
SWIDTH 617 0
DWIDTH 46 0
BBX 37 43 5 7
BITMAP
0000000018
0000000078
00000001F8
00000007F8
0000001FF8
0000007FF8
000001FFF8
000007FFF8
00001FFFF0
00007FFFC0
0003FFFF00
000FFFFC00
003FFFE000
00FFFF8000
03FFFE0000
0FFFF80000
3FFFE00000
FFFF800000
FFFE000000
FFF8000000
FFE0000000
FF80000000
FFE0000000
FFF8000000
FFFF000000
7FFFC00000
1FFFF00000
07FFFC0000
01FFFF0000
007FFFC000
001FFFF000
0007FFFC00
0001FFFF00
00007FFFE0
00001FFFF8
000007FFF8
000000FFF8
0000003FF8
0000000FF8
00000003F8
00000000F8
0000000038
0000000008
ENDCHAR
STARTCHAR equal
ENCODING 61
SWIDTH 617 0
DWIDTH 46 0
BBX 39 18 4 20
BITMAP
FFFFFFFFFE
FFFFFFFFFE
FFFFFFFFFE
FFFFFFFFFE
FFFFFFFFFE
FFFFFFFFFE
0000000000
0000000000
0000000000
0000000000
0000000000
FFFFFFFFFE
FFFFFFFFFE
FFFFFFFFFE
FFFFFFFFFE
FFFFFFFFFE
FFFFFFFFFE
FFFFFFFFFE
ENDCHAR
STARTCHAR greater
ENCODING 62
SWIDTH 617 0
DWIDTH 46 0
BBX 36 43 5 7
BITMAP
8000000000
E000000000
F800000000
FE00000000
FF80000000
FFE0000000
FFFC000000
FFFF000000
FFFFC00000
1FFFF00000
07FFFC0000
01FFFF0000
007FFFC000
001FFFF000
0007FFFC00
0001FFFF00
00007FFFC0
00001FFFF0
000003FFF0
000000FFF0
0000003FF0
0000001FF0
0000007FF0
000001FFF0
000007FFF0
00001FFFE0
00007FFF80
0003FFFE00
000FFFF800
003FFFE000
00FFFF8000
03FFFE0000
0FFFF80000
3FFFE00000
FFFF800000
FFFE000000
FFF8000000
FFE0000000
FF80000000
FE00000000
F800000000
E000000000
8000000000
ENDCHAR
STARTCHAR question
ENCODING 63
SWIDTH 489 0
DWIDTH 37 0
BBX 27 58 5 -1
BITMAP
00FFC000
03FFF800
07FFFC00
1FFFFE00
1FFFFF00
3FFFFF80
7FFFFFC0
7FFFFFC0
FFC07FC0
FF803FE0
FF003FE0
FF001FE0
FF001FE0
FF001FE0
FF001FE0
FF003FE0
00003FE0
0000FFE0
0003FFC0
000FFFC0
007FFF80
01FFFF80
07FFFF00
0FFFFC00
1FFFF800
3FFFE000
3FFF0000
7FF80000
7FE00000
7FC00000
7F800000
7F803FC0
7F807FC0
7F807FC0
7FC07FC0
7FE0FF80
3FFFFF80
3FFFFF00
1FFFFF00
0FFFFE00
0FFFFC00
03FFF800
01FFE000
007F8000
00000000
00000000
00000000
00000000
001F0000
003F8000
007FC000
007FC000
00FFC000
00FFC000
007FC000
007FC000
003F8000
001F0000
ENDCHAR
STARTCHAR at
ENCODING 64
SWIDTH 880 0
DWIDTH 66 0
BBX 58 59 4 -1
BITMAP
0000000300000000
000003FFFE000000
00001FFFFFC00000
0000FFFFFFF00000
0003FFFFFFFC0000
0007FFFFFFFE0000
000FFE0003FF8000
003FF80000FFC000
007FC000003FE000
00FF8000000FF000
01FE00000007F800
03FC00000001FC00
07F800000001FC00
07F000000000FE00
0FE0003E00007E00
0FE003FFC1F83F00
1FC007FFF1F03F00
3F801FFFF9F01F80
3F803FFFFDF01F80
3F007FFFFFF00F80
7F00FFFFFFF00FC0
7F00FFE1FFF00FC0
7E01FF803FF00FC0
7E01FE001FF007C0
FE03FE000FF007C0
FE03FC000FE007C0
FC03F80007E007C0
FC07F80007E007C0
FC07F80007E007C0
FC07F80007E00FC0
FC07F80007E00FC0
FC07F80007E00F80
FC07F80007E00F80
FE07F8000FC01F80
FE07F8000FC01F80
7E03F8001FC01F00
7E03FC003FC03F00
7F03FE007FC07E00
7F01FF00FFC07E00
3F01FF83FFC0FC00
3F80FFFFFFE3F800
3F807FFFFFFFF800
1FC03FFFF3FFF000
1FC01FFFE3FFC000
0FE00FFFC1FF8000
0FF003FE007E0000
07F8000000000000
03FC000000000000
01FE000000000000
01FF00000000C000
00FFC0000003C000
003FF000001FE000
001FFE0000FFE000
000FFFFFFFFFE000
0003FFFFFFFFE000
0001FFFFFFFF0000
00003FFFFFFC0000
00000FFFFFE00000
0000007FF8000000
ENDCHAR
STARTCHAR A
ENCODING 65
SWIDTH 740 0
DWIDTH 56 0
BBX 54 60 1 0
BITMAP
00000010000000
00000010000000
00000030000000
00000038000000
00000078000000
0000007C000000
000000FC000000
000000FE000000
000001FE000000
000001FF000000
000003FF000000
000003FF000000
000007FF800000
000007FF800000
00000FFFC00000
00000FFFC00000
00000FFFE00000
00001FFFE00000
00001FFFF00000
00003FFFF00000
00003FCFF80000
00007FCFF80000
00007FC7F80000
0000FF87FC0000
0000FF83FC0000
0001FF03FE0000
0001FF03FE0000
0003FE01FF0000
0003FE01FF0000
0007FC00FF8000
0007FC00FF8000
0007F8007F8000
000FF8007FC000
000FF8007FC000
001FF0003FE000
001FF0003FE000
003FE0001FF000
003FE0001FF000
007FFFFFFFF800
007FFFFFFFF800
00FFFFFFFFFC00
00FFFFFFFFFC00
01FFFFFFFFFC00
01FFFFFFFFFE00
03FFFFFFFFFE00
03FFFFFFFFFF00
03FE000001FF00
07FC000000FF80
07FC000000FF80
0FF8000000FFC0
0FF80000007FC0
1FF00000007FC0
1FF00000003FE0
3FE00000003FE0
3FE00000001FF0
7FE00000001FF0
7FC00000001FF8
FFC00000000FF8
FF800000000FFC
FF8000000007FC
ENDCHAR
STARTCHAR B
ENCODING 66
SWIDTH 591 0
DWIDTH 44 0
BBX 33 57 7 0
BITMAP
FFA0000000
FFFFC00000
FFFFF00000
FFFFFC0000
FFFFFE0000
FFFFFF0000
FFFFFF8000
FFFFFFC000
FF03FFC000
FF007FE000
FF003FE000
FF001FF000
FF001FF000
FF000FF000
FF000FF000
FF000FF000
FF000FF000
FF000FF000
FF000FF000
FF000FF000
FF001FF000
FF001FE000
FF003FE000
FF007FC000
FF03FFC000
FFFFFF8000
FFFFFF0000
FFFFFFC000
FFFFFFE000
FFFFFFF800
FFFFFFFC00
FFFFFFFC00
FF003FFE00
FF0007FF00
FF0003FF00
FF0001FF80
FF0000FF80
FF0000FF80
FF00007F80
FF00007F80
FF00007F80
FF00007F80
FF00007F80
FF0000FF80
FF0000FF80
FF0001FF80
FF0003FF00
FF0007FF00
FF003FFE00
FFFFFFFE00
FFFFFFFC00
FFFFFFF800
FFFFFFF000
FFFFFFE000
FFFFFFC000
FFFFFF0000
FFFFF00000
ENDCHAR
STARTCHAR C
ENCODING 67
SWIDTH 700 0
DWIDTH 53 0
BBX 45 59 4 -1
BITMAP
0000001F8000
000007FFFC00
00003FFFFF80
0000FFFFFFE0
0003FFFFFFF8
0007FFFFFFF8
001FFFFFFFF8
003FFFFFFFF8
007FFFF3FFF8
00FFFE000FF8
01FFF00003F8
03FFC00000F8
03FF80000038
07FF00000018
0FFE00000008
0FFC00000000
1FF800000000
1FF000000000
3FF000000000
3FE000000000
7FE000000000
7FC000000000
7FC000000000
7F8000000000
FF8000000000
FF8000000000
FF8000000000
FF8000000000
FF8000000000
FF8000000000
FF8000000000
FF8000000000
FF8000000000
FF8000000000
FF8000000000
FF8000000000
7FC000000000
7FC000000000
7FC000000000
7FE000000000
3FE000000000
3FF000000000
1FF000000000
1FF800000000
0FFC00000000
0FFE00000018
07FF00000038
03FFC0000078
01FFE00001F8
01FFF80007F8
00FFFF003FF8
007FFFFFFFF8
001FFFFFFFF8
000FFFFFFFF8
0007FFFFFFF8
0001FFFFFFE0
00007FFFFF80
00001FFFFE00
000001FFE000
ENDCHAR
STARTCHAR D
ENCODING 68
SWIDTH 726 0
DWIDTH 54 0
BBX 43 57 7 0
BITMAP
FFF000000000
FFFFFE000000
FFFFFFC00000
FFFFFFF80000
FFFFFFFC0000
FFFFFFFF0000
FFFFFFFF8000
FFFFFFFFC000
FF0FFFFFF000
FF0007FFF800
FF0000FFF800
FF00003FFC00
FF00001FFE00
FF00000FFF00
FF000003FF00
FF000003FF80
FF000001FF80
FF000000FFC0
FF000000FFC0
FF0000007FC0
FF0000007FC0
FF0000003FE0
FF0000003FE0
FF0000003FE0
FF0000001FE0
FF0000001FE0
FF0000001FE0
FF0000001FE0
FF0000001FE0
FF0000001FE0
FF0000001FE0
FF0000001FE0
FF0000001FE0
FF0000003FE0
FF0000003FE0
FF0000003FE0
FF0000003FE0
FF0000007FC0
FF0000007FC0
FF000000FFC0
FF000001FF80
FF000001FF80
FF000003FF00
FF000007FF00
FF00000FFE00
FF00003FFC00
FF00007FFC00
FF0003FFF800
FF001FFFF000
FFFFFFFFE000
FFFFFFFFC000
FFFFFFFF0000
FFFFFFFE0000
FFFFFFF80000
FFFFFFE00000
FFFFFF800000
FFFFF0000000
ENDCHAR
STARTCHAR E
ENCODING 69
SWIDTH 565 0
DWIDTH 42 0
BBX 31 57 7 0
BITMAP
FFFFFFFE
FFFFFFFE
FFFFFFFE
FFFFFFFE
FFFFFFFE
FFFFFFFE
FFFFFFFE
FFFFFFFE
FF000000
FF000000
FF000000
FF000000
FF000000
FF000000
FF000000
FF000000
FF000000
FF000000
FF000000
FF000000
FF000000
FF000000
FFFFFFFC
FFFFFFFC
FFFFFFFC
FFFFFFFC
FFFFFFFC
FFFFFFFC
FFFFFFFC
FFFFFFFC
FF000000
FF000000
FF000000
FF000000
FF000000
FF000000
FF000000
FF000000
FF000000
FF000000
FF000000
FF000000
FF000000
FF000000
FF000000
FF000000
FF000000
FF000000
FF000000
FFFFFFFE
FFFFFFFE
FFFFFFFE
FFFFFFFE
FFFFFFFE
FFFFFFFE
FFFFFFFE
FFFFFFFE
ENDCHAR
STARTCHAR F
ENCODING 70
SWIDTH 508 0
DWIDTH 38 0
BBX 28 57 7 0
BITMAP
FFFFFFF0
FFFFFFF0
FFFFFFF0
FFFFFFF0
FFFFFFF0
FFFFFFF0
FFFFFFF0
FFFFFFF0
FF000000
FF000000
FF000000
FF000000
FF000000
FF000000
FF000000
FF000000
FF000000
FF000000
FF000000
FF000000
FF000000
FF000000
FFFFFFE0
FFFFFFE0
FFFFFFE0
FFFFFFE0
FFFFFFE0
FFFFFFE0
FFFFFFE0
FFFFFFE0
FF000000
FF000000
FF000000
FF000000
FF000000
FF000000
FF000000
FF000000
FF000000
FF000000
FF000000
FF000000
FF000000
FF000000
FF000000
FF000000
FF000000
FF000000
FF000000
FF000000
FF000000
FF000000
FF000000
FF000000
FF000000
FF000000
FF000000
ENDCHAR
STARTCHAR G
ENCODING 71
SWIDTH 842 0
DWIDTH 63 0
BBX 55 59 4 -1
BITMAP
0000003F800000
000007FFFC0000
00003FFFFF8000
0000FFFFFFE000
0003FFFFFFF000
0007FFFFFFFC00
001FFFFFFFFE00
003FFFFFFFFF00
007FFFF9FFFF80
00FFFE000FFFE0
01FFF00003FFE0
03FFE00000FFF0
07FF8000003FF0
07FF0000001FE0
0FFE0000000FC0
0FFC0000000780
1FF80000000300
3FF00000000200
3FF00000000000
3FE00000000000
7FC00000000000
7FC00000000000
7FC00000000000
7F800000000000
FF800000000000
FF800000000000
FF800000000000
FF800000000000
FF800000000000
FF800000FFFFFE
FF800000FFFFFE
FF800000FFFFFE
FF800000FFFFFE
FF800000FFFFFE
FF800000FFFFFE
FF800000FFFFFE
7F800000FFFFFE
7FC000000003FE
7FC000000003FE
7FE000000007FC
3FE000000007FC
3FF000000007FC
1FF80000000FF8
1FF80000001FF8
0FFC0000001FF8
0FFE0000003FF0
07FF8000007FE0
03FFC00001FFE0
01FFF00003FFC0
01FFFC000FFF80
00FFFF807FFF80
007FFFFFFFFF00
001FFFFFFFFC00
000FFFFFFFF800
0007FFFFFFF000
0001FFFFFFC000
00007FFFFF8000
00001FFFFC0000
000001FFE00000
ENDCHAR
STARTCHAR H
ENCODING 72
SWIDTH 733 0
DWIDTH 55 0
BBX 41 57 7 0
BITMAP
FF0000007F80
FF0000007F80
FF0000007F80
FF0000007F80
FF0000007F80
FF0000007F80
FF0000007F80
FF0000007F80
FF0000007F80
FF0000007F80
FF0000007F80
FF0000007F80
FF0000007F80
FF0000007F80
FF0000007F80
FF0000007F80
FF0000007F80
FF0000007F80
FF0000007F80
FF0000007F80
FF0000007F80
FF0000007F80
FF0000007F80
FFFFFFFFFF80
FFFFFFFFFF80
FFFFFFFFFF80
FFFFFFFFFF80
FFFFFFFFFF80
FFFFFFFFFF80
FFFFFFFFFF80
FFFFFFFFFF80
FF0000007F80
FF0000007F80
FF0000007F80
FF0000007F80
FF0000007F80
FF0000007F80
FF0000007F80
FF0000007F80
FF0000007F80
FF0000007F80
FF0000007F80
FF0000007F80
FF0000007F80
FF0000007F80
FF0000007F80
FF0000007F80
FF0000007F80
FF0000007F80
FF0000007F80
FF0000007F80
FF0000007F80
FF0000007F80
FF0000007F80
FF0000007F80
FF0000007F80
FF0000007F80
ENDCHAR
STARTCHAR I
ENCODING 73
SWIDTH 294 0
DWIDTH 22 0
BBX 8 57 7 0
BITMAP
FF
FF
FF
FF
FF
FF
FF
FF
FF
FF
FF
FF
FF
FF
FF
FF
FF
FF
FF
FF
FF
FF
FF
FF
FF
FF
FF
FF
FF
FF
FF
FF
FF
FF
FF
FF
FF
FF
FF
FF
FF
FF
FF
FF
FF
FF
FF
FF
FF
FF
FF
FF
FF
FF
FF
FF
FF
ENDCHAR
STARTCHAR J
ENCODING 74
SWIDTH 410 0
DWIDTH 31 0
BBX 25 58 -1 -1
BITMAP
0000FF80
0000FF80
0000FF80
0000FF80
0000FF80
0000FF80
0000FF80
0000FF80
0000FF80
0000FF80
0000FF80
0000FF80
0000FF80
0000FF80
0000FF80
0000FF80
0000FF80
0000FF80
0000FF80
0000FF80
0000FF80
0000FF80
0000FF80
0000FF80
0000FF80
0000FF80
0000FF80
0000FF80
0000FF80
0000FF80
0000FF80
0000FF80
0000FF80
0000FF80
0000FF80
0000FF80
0000FF80
0000FF80
0000FF80
0000FF80
0000FF80
0000FF80
0000FF80
0000FF80
0000FF80
0000FF00
0001FF00
0001FF00
1803FF00
1E0FFE00
3FFFFE00
3FFFFC00
7FFFF800
7FFFF800
FFFFE000
FFFFC000
3FFF8000
07FC0000
ENDCHAR
STARTCHAR K
ENCODING 75
SWIDTH 662 0
DWIDTH 50 0
BBX 42 57 7 0
BITMAP
FF000003FFC0
FF000007FF80
FF00000FFF00
FF00001FFE00
FF00003FFC00
FF00007FF800
FF0000FFF000
FF0001FFE000
FF0003FFC000
FF0007FF8000
FF000FFF0000
FF000FFE0000
FF001FFC0000
FF003FF80000
FF007FF00000
FF00FFE00000
FF01FFC00000
FF03FF800000
FF07FF000000
FF0FFE000000
FF1FFC000000
FF3FF8000000
FF7FF0000000
FFFFE0000000
FFFFC0000000
FFFF80000000
FFFF80000000
FFFF80000000
FFFFC0000000
FFFFE0000000
FFFFF0000000
FFFFF8000000
FF9FFC000000
FF1FFC000000
FF0FFE000000
FF07FF000000
FF03FF800000
FF01FFC00000
FF01FFC00000
FF00FFE00000
FF007FF00000
FF003FF80000
FF001FFC0000
FF001FFE0000
FF000FFE0000
FF0007FF0000
FF0003FF8000
FF0001FFC000
FF0000FFE000
FF0000FFF000
FF00007FF000
FF00003FF800
FF00001FFC00
FF00000FFE00
FF00000FFF00
FF000007FF80
FF000003FF80
ENDCHAR
STARTCHAR L
ENCODING 76
SWIDTH 443 0
DWIDTH 33 0
BBX 25 57 7 0
BITMAP
FF000000
FF000000
FF000000
FF000000
FF000000
FF000000
FF000000
FF000000
FF000000
FF000000
FF000000
FF000000
FF000000
FF000000
FF000000
FF000000
FF000000
FF000000
FF000000
FF000000
FF000000
FF000000
FF000000
FF000000
FF000000
FF000000
FF000000
FF000000
FF000000
FF000000
FF000000
FF000000
FF000000
FF000000
FF000000
FF000000
FF000000
FF000000
FF000000
FF000000
FF000000
FF000000
FF000000
FF000000
FF000000
FF000000
FF000000
FF000000
FF000000
FFFFFF80
FFFFFF80
FFFFFF80
FFFFFF80
FFFFFF80
FFFFFF80
FFFFFF80
FFFFFF80
ENDCHAR
STARTCHAR M
ENCODING 77
SWIDTH 961 0
DWIDTH 72 0
BBX 62 62 5 -2
BITMAP
0010000000000000
0018000000003000
0018000000003000
001C000000007000
001C000000007000
003C00000000F000
003E00000000F000
003E00000001F800
003F00000001F800
003F00000003F800
007F80000003F800
007F80000003F800
007FC0000007FC00
007FC0000007FC00
007FC000000FFC00
00FFE000000FFC00
00FFE000001FFC00
00FFF000001FFC00
00FFF000003FFE00
00FFF800003FFE00
00FFF800007FFE00
01FFFC00007FFE00
01FFFC00007FFE00
01FFFC0000FFFE00
01FFFE0000FFFF00
01FFFE0001FFFF00
03FFFF0001FEFF00
03FDFF0003FEFF00
03FCFF8003FEFF00
03FCFF8007FCFF80
03FC7FC007FCFF80
07FC7FC00FF87F80
07FC3FC00FF87F80
07F83FE00FF07F80
07F81FE01FF07F80
07F81FF01FE07FC0
0FF81FF03FE07FC0
0FF80FF83FC03FC0
0FF00FF87FC03FC0
0FF007F87FC03FC0
0FF007FCFF803FC0
1FF003FCFF803FE0
1FF003FFFF003FE0
1FF001FFFF001FE0
1FE001FFFE001FE0
1FE001FFFE001FE0
3FE000FFFC001FF0
3FE000FFFC001FF0
3FE0007FF8001FF0
3FE0007FF8001FF0
3FC0003FF0000FF0
7FC0003FF0000FF0
7FC0003FF0000FF8
7FC0001FE0000FF8
7FC0001FE0000FF8
7F80000FC0000FF8
FF80000FC00007F8
FF800007800007F8
FF800007800007FC
FF800003000007FC
0000000300000000
0000000200000000
ENDCHAR
STARTCHAR N
ENCODING 78
SWIDTH 844 0
DWIDTH 63 0
BBX 50 63 7 -3
BITMAP
80000000000000
C0000000000000
E0000000000000
E0000000007FC0
F0000000007FC0
F8000000007FC0
FC000000007FC0
FE000000007FC0
FF000000007FC0
FF800000007FC0
FFC00000007FC0
FFE00000007FC0
FFF00000007FC0
FFF80000007FC0
FFFC0000007FC0
FFFE0000007FC0
FFFF0000007FC0
FFFF8000007FC0
FFFFC000007FC0
FFFFE000007FC0
FFFFF000007FC0
FF7FF800007FC0
FF3FFC00007FC0
FF1FFE00007FC0
FF0FFF00007FC0
FF07FF80007FC0
FF03FFC0007FC0
FF01FFC0007FC0
FF00FFE0007FC0
FF007FF0007FC0
FF003FF8007FC0
FF001FFC007FC0
FF000FFE007FC0
FF0007FF007FC0
FF0003FF807FC0
FF0001FFC07FC0
FF0000FFE07FC0
FF00007FF07FC0
FF00003FF87FC0
FF00001FFC7FC0
FF00000FFE7FC0
FF000007FF7FC0
FF000007FFFFC0
FF000003FFFFC0
FF000001FFFFC0
FF000000FFFFC0
FF0000007FFFC0
FF0000003FFFC0
FF0000001FFFC0
FF0000000FFFC0
FF00000007FFC0
FF00000003FFC0
FF00000001FFC0
FF00000000FFC0
FF000000007FC0
FF000000003FC0
FF000000001FC0
FF000000000FC0
FF0000000007C0
FF0000000003C0
000000000001C0
000000000000C0
00000000000040
ENDCHAR
STARTCHAR O
ENCODING 79
SWIDTH 893 0
DWIDTH 67 0
BBX 59 59 4 -1
BITMAP
0000001F00000000
000007FFFC000000
00003FFFFF800000
0000FFFFFFE00000
0003FFFFFFF80000
0007FFFFFFFC0000
000FFFFFFFFF0000
003FFFFFFFFF8000
007FFFFBFFFFC000
00FFFE000FFFE000
01FFF00001FFF000
03FFC000007FF800
03FF8000003FF800
07FF0000001FFC00
0FFE0000000FFE00
0FFC00000007FE00
1FF800000003FF00
1FF000000001FF00
3FE000000001FF80
3FE000000000FF80
7FC0000000007FC0
7FC0000000007FC0
7FC0000000007FC0
7F80000000003FC0
FF80000000003FE0
FF80000000003FE0
FF80000000003FE0
FF80000000003FE0
FF80000000003FE0
FF80000000003FE0
FF80000000003FE0
FF80000000003FE0
FF80000000003FE0
FF80000000003FE0
FF80000000003FE0
FF80000000003FE0
7FC0000000007FC0
7FC0000000007FC0
7FC0000000007FC0
7FE000000000FFC0
3FE000000000FF80
3FF000000001FF80
1FF800000003FF00
1FF800000003FF00
0FFC00000007FE00
0FFE0000000FFC00
07FF8000001FFC00
03FFC000007FF800
01FFF00000FFF000
00FFFC0003FFE000
00FFFF803FFFC000
003FFFFFFFFF8000
001FFFFFFFFF0000
000FFFFFFFFE0000
0003FFFFFFF80000
0001FFFFFFF00000
00007FFFFFC00000
00000FFFFE000000
000000FFE0000000
ENDCHAR
STARTCHAR P
ENCODING 80
SWIDTH 540 0
DWIDTH 41 0
BBX 31 57 7 0
BITMAP
FFE00000
FFFFF000
FFFFFE00
FFFFFF80
FFFFFFC0
FFFFFFE0
FFFFFFF0
FFFFFFF8
FF03FFF8
FF003FFC
FF000FFC
FF0007FE
FF0003FE
FF0001FE
FF0001FE
FF0001FE
FF0001FE
FF0001FE
FF0001FE
FF0001FE
FF0001FE
FF0003FE
FF0003FE
FF0007FC
FF001FFC
FF007FFC
FFFFFFF8
FFFFFFF0
FFFFFFE0
FFFFFFC0
FFFFFF80
FFFFFE00
FFFFF800
FFFFC000
FF000000
FF000000
FF000000
FF000000
FF000000
FF000000
FF000000
FF000000
FF000000
FF000000
FF000000
FF000000
FF000000
FF000000
FF000000
FF000000
FF000000
FF000000
FF000000
FF000000
FF000000
FF000000
FF000000
ENDCHAR
STARTCHAR Q
ENCODING 81
SWIDTH 893 0
DWIDTH 67 0
BBX 60 59 4 -1
BITMAP
0000001E00000000
000007FFFC000000
00003FFFFF000000
0000FFFFFFE00000
0003FFFFFFF00000
0007FFFFFFFC0000
001FFFFFFFFE0000
003FFFFFFFFF8000
007FFFFBFFFFC000
00FFFC000FFFE000
01FFF00001FFF000
03FFC000007FF800
07FF8000003FF800
07FF0000001FFC00
0FFE0000000FFE00
0FFC00000007FE00
1FF800000003FF00
1FF000000001FF00
3FF000000001FF80
3FE000000000FF80
7FC0000000007FC0
7FC0000000007FC0
7FC0000000007FC0
7F80000000003FC0
FF80000000003FE0
FF80000000003FE0
FF80000000003FE0
FF80000000003FE0
FF80000000003FE0
FF80000000003FE0
FF80000000003FE0
FF80000000003FE0
FF80000000003FE0
FF80000000003FE0
FF80000000003FE0
FF80000000003FE0
7F80001FFC007FC0
7FC0000FFE007FC0
7FC00007FF007FC0
7FE00003FF80FFC0
3FE00001FFC0FF80
3FF00000FFE1FF80
1FF000007FF3FF00
1FF800003FFFFF00
0FFC00001FFFFE00
0FFE00000FFFFE00
07FF000007FFFC00
03FFC00003FFF800
01FFE00001FFF000
01FFF80007FFE000
00FFFF803FFFF000
003FFFFFFFFFF800
001FFFFFFFFFFC00
000FFFFFFFFFFE00
0003FFFFFFFFFF00
0001FFFFFFE3FF80
00007FFFFF81FFC0
00000FFFFE00FFE0
000001FFE0007FF0
ENDCHAR
STARTCHAR R
ENCODING 82
SWIDTH 602 0
DWIDTH 45 0
BBX 36 57 7 0
BITMAP
FFF0000000
FFFFE00000
FFFFFC0000
FFFFFF0000
FFFFFFC000
FFFFFFE000
FFFFFFF000
FFFFFFF800
FF1FFFF800
FF003FFC00
FF000FFC00
FF0007FE00
FF0003FE00
FF0003FE00
FF0001FE00
FF0001FE00
FF0001FE00
FF0001FE00
FF0001FE00
FF0001FE00
FF0001FE00
FF0003FE00
FF0003FE00
FF0007FC00
FF000FFC00
FF007FF800
FFFFFFF800
FFFFFFF000
FFFFFFE000
FFFFFFC000
FFFFFF8000
FFFFFE0000
FFFFF80000
FFFFE00000
FF3FF00000
FF1FF80000
FF0FFC0000
FF0FFC0000
FF07FE0000
FF03FF0000
FF03FF0000
FF01FF8000
FF00FFC000
FF007FE000
FF007FE000
FF003FF000
FF001FF800
FF001FFC00
FF000FFC00
FF0007FE00
FF0007FF00
FF0003FF00
FF0001FF80
FF0000FFC0
FF0000FFE0
FF00007FE0
FF00003FF0
ENDCHAR
STARTCHAR S
ENCODING 83
SWIDTH 583 0
DWIDTH 44 0
BBX 36 59 4 -1
BITMAP
00003C0000
0007FFC000
003FFFF000
007FFFF800
00FFFFFE00
03FFFFFF00
03FFFFFF00
07FFFFFF80
0FFFCFFFC0
0FFE00FFE0
1FF8007FC0
1FF0003F00
1FF0001C00
1FE0000800
3FE0000000
3FE0000000
1FE0000000
1FF0000000
1FF0000000
1FF8000000
1FFC000000
0FFF000000
07FFC00000
07FFF80000
03FFFE0000
01FFFF8000
00FFFFE000
003FFFF800
000FFFFC00
0003FFFE00
0000FFFF00
00003FFF80
000007FFC0
000001FFE0
000000FFE0
0000007FE0
0000003FF0
0000001FF0
0000001FF0
0000001FF0
0000000FF0
0F80000FF0
FF80000FF0
FF80001FF0
FF80001FF0
7FC0001FF0
7FC0003FE0
7FE0003FE0
3FF0007FE0
3FF800FFC0
1FFE03FFC0
1FFFFFFF80
0FFFFFFF00
07FFFFFE00
03FFFFFC00
01FFFFF800
00FFFFF000
003FFFC000
0007FE0000
ENDCHAR
STARTCHAR T
ENCODING 84
SWIDTH 482 0
DWIDTH 36 0
BBX 34 57 1 0
BITMAP
FFFFFFFFC0
FFFFFFFFC0
FFFFFFFFC0
FFFFFFFFC0
FFFFFFFFC0
FFFFFFFFC0
FFFFFFFFC0
FFFFFFFFC0
0007F80000
0007F80000
0007F80000
0007F80000
0007F80000
0007F80000
0007F80000
0007F80000
0007F80000
0007F80000
0007F80000
0007F80000
0007F80000
0007F80000
0007F80000
0007F80000
0007F80000
0007F80000
0007F80000
0007F80000
0007F80000
0007F80000
0007F80000
0007F80000
0007F80000
0007F80000
0007F80000
0007F80000
0007F80000
0007F80000
0007F80000
0007F80000
0007F80000
0007F80000
0007F80000
0007F80000
0007F80000
0007F80000
0007F80000
0007F80000
0007F80000
0007F80000
0007F80000
0007F80000
0007F80000
0007F80000
0007F80000
0007F80000
0007F80000
ENDCHAR
STARTCHAR U
ENCODING 85
SWIDTH 738 0
DWIDTH 55 0
BBX 42 58 7 -1
BITMAP
FF0000007FC0
FF0000007FC0
FF0000007FC0
FF0000007FC0
FF0000007FC0
FF0000007FC0
FF0000007FC0
FF0000007FC0
FF0000007FC0
FF0000007FC0
FF0000007FC0
FF0000007FC0
FF0000007FC0
FF0000007FC0
FF0000007FC0
FF0000007FC0
FF0000007FC0
FF0000007FC0
FF0000007FC0
FF0000007FC0
FF0000007FC0
FF0000007FC0
FF0000007FC0
FF0000007FC0
FF0000007FC0
FF0000007FC0
FF0000007FC0
FF0000007FC0
FF0000007FC0
FF0000007FC0
FF0000007FC0
FF0000007FC0
FF0000007FC0
FF0000007FC0
FF0000007FC0
FF0000007FC0
FF0000007FC0
FF0000007FC0
FF8000007FC0
FF8000007FC0
FF8000007F80
FF800000FF80
FF800000FF80
7FC00000FF80
7FC00001FF00
7FE00003FF00
3FF00003FF00
3FF80007FE00
1FFC001FFC00
0FFF807FFC00
0FFFFFFFF800
07FFFFFFF000
03FFFFFFE000
01FFFFFFC000
007FFFFF8000
003FFFFE0000
000FFFF80000
0000FFC00000
ENDCHAR
STARTCHAR V
ENCODING 86
SWIDTH 676 0
DWIDTH 51 0
BBX 50 60 0 -3
BITMAP
FFC00000007FC0
7FC00000007FC0
7FC0000000FFC0
3FE0000000FF80
3FE0000001FF80
3FF0000001FF00
1FF0000001FF00
1FF0000003FF00
0FF8000003FE00
0FF8000007FE00
0FFC000007FC00
07FC000007FC00
07FC00000FF800
03FE00000FF800
03FE00001FF800
03FF00001FF000
01FF00001FF000
01FF00003FE000
00FF80003FE000
00FF80007FE000
00FFC0007FC000
007FC0007FC000
007FC000FF8000
003FE000FF8000
003FE001FF0000
003FF001FF0000
001FF001FF0000
001FF003FE0000
000FF803FE0000
000FF807FC0000
0007FC07FC0000
0007FC07FC0000
0007FC0FF80000
0003FE0FF80000
0003FE1FF00000
0001FF1FF00000
0001FF1FE00000
0001FF3FE00000
0000FFBFE00000
0000FFFFC00000
00007FFFC00000
00007FFF800000
00007FFF800000
00003FFF800000
00003FFF000000
00001FFF000000
00001FFE000000
00001FFE000000
00000FFC000000
00000FFC000000
000007FC000000
000007F8000000
000003F8000000
000003F0000000
000003F0000000
000001E0000000
000001E0000000
000000E0000000
000000C0000000
000000C0000000
ENDCHAR
STARTCHAR W
ENCODING 87
SWIDTH 1060 0
DWIDTH 80 0
BBX 79 62 0 -3
BITMAP
00000000010000000000
00000000010000000000
FFC000000180000003FE
7FC000000380000003FE
7FC000000380000007FC
3FE0000007C0000007FC
3FE0000007C000000FFC
3FF0000007C000000FF8
1FF000000FE000001FF8
1FF000000FE000001FF0
0FF800000FF000001FF0
0FF800001FF000003FF0
0FF800001FF000003FE0
07FC00003FF800007FE0
07FC00003FF800007FC0
07FE00003FF800007FC0
03FE00007FFC0000FF80
03FE00007FFC0000FF80
01FF00007FFC0001FF80
01FF0000FFFE0001FF00
00FF8000FFFE0001FF00
00FF8001FFFF0003FE00
00FF8001FFFF0003FE00
007FC001FEFF0007FC00
007FC003FEFF8007FC00
007FE003FC7F800FFC00
003FE007FC7F800FF800
003FE007FC7FC00FF800
001FF007F83FC01FF000
001FF00FF83FC01FF000
001FF00FF03FE03FF000
000FF80FF01FE03FE000
000FF81FF01FF03FE000
0007FC1FE01FF07FC000
0007FC3FE00FF07FC000
0007FC3FE00FF8FF8000
0003FE3FC007F8FF8000
0003FE7FC007F9FF8000
0001FF7F8007FDFF0000
0001FF7F8003FDFF0000
0001FFFF8003FFFE0000
0000FFFF0003FFFE0000
0000FFFF0001FFFC0000
00007FFF0001FFFC0000
00007FFE0001FFFC0000
00007FFE0000FFF80000
00003FFC0000FFF80000
00003FFC00007FF00000
00001FFC00007FF00000
00001FF800007FF00000
00001FF800003FE00000
00000FF800003FE00000
00000FF000003FC00000
000007F000001FC00000
000007E000001F800000
000007E000001F800000
000003E000000F800000
000003C000000F000000
000001C0000007000000
000001C0000006000000
00000180000006000000
00000080000000000000
ENDCHAR
STARTCHAR X
ENCODING 88
SWIDTH 617 0
DWIDTH 46 0
BBX 44 57 1 0
BITMAP
3FF000003FF0
1FF000007FE0
1FF800007FC0
0FF80000FFC0
0FFC0001FF80
07FE0001FF80
03FE0003FF00
03FF0003FE00
01FF0007FE00
01FF8007FC00
00FF800FFC00
00FFC01FF800
007FE01FF000
003FE03FF000
003FF03FE000
001FF07FE000
001FF8FFC000
000FF8FF8000
000FFDFF8000
0007FDFF0000
0003FFFF0000
0003FFFE0000
0001FFFC0000
0001FFFC0000
0000FFF80000
0000FFF80000
00007FF00000
00003FE00000
00007FF00000
0000FFF80000
0000FFF80000
0001FFFC0000
0001FFFC0000
0003FFFE0000
0007FFFE0000
0007FFFF0000
000FFDFF8000
000FF8FF8000
001FF8FFC000
003FF07FC000
003FE07FE000
007FE03FF000
007FC01FF000
00FFC01FF800
01FF800FF800
01FF000FFC00
03FF0007FC00
03FE0007FE00
07FE0003FF00
0FFC0001FF00
0FF80001FF80
1FF80000FF80
1FF00000FFC0
3FF000007FC0
7FE000007FE0
7FC000003FF0
FFC000001FF0
ENDCHAR
STARTCHAR Y
ENCODING 89
SWIDTH 600 0
DWIDTH 45 0
BBX 45 57 0 0
BITMAP
FFC000001FF8
FFC000001FF8
7FE000003FF0
7FE000003FF0
3FF000007FE0
1FF000007FC0
1FF80000FFC0
0FFC0001FF80
0FFC0001FF80
07FE0003FF00
03FE0003FE00
03FF0007FE00
01FF0007FC00
01FF800FFC00
00FFC01FF800
00FFC01FF800
007FE03FF000
003FE03FE000
003FF07FE000
001FF07FC000
001FF8FFC000
000FFDFF8000
000FFDFF8000
0007FFFF0000
0003FFFE0000
0003FFFE0000
0001FFFC0000
0001FFFC0000
0000FFF80000
0000FFF80000
00007FF00000
00003FE00000
00003FE00000
00003FE00000
00003FE00000
00003FE00000
00003FE00000
00003FE00000
00003FE00000
00003FE00000
00003FE00000
00003FE00000
00003FE00000
00003FE00000
00003FE00000
00003FE00000
00003FE00000
00003FE00000
00003FE00000
00003FE00000
00003FE00000
00003FE00000
00003FE00000
00003FE00000
00003FE00000
00003FE00000
00003FE00000
ENDCHAR
STARTCHAR Z
ENCODING 90
SWIDTH 625 0
DWIDTH 47 0
BBX 41 57 3 0
BITMAP
0FFFFFFFFF80
0FFFFFFFFF80
0FFFFFFFFF00
0FFFFFFFFF00
0FFFFFFFFE00
0FFFFFFFFC00
0FFFFFFFFC00
0FFFFFFFF800
0000001FF800
0000001FF000
0000003FF000
0000003FE000
0000007FC000
000000FFC000
000000FF8000
000001FF8000
000001FF0000
000003FF0000
000003FE0000
000007FC0000
00000FFC0000
00000FF80000
00001FF80000
00001FF00000
00003FF00000
00003FE00000
00007FC00000
0000FFC00000
0000FF800000
0001FF800000
0001FF000000
0003FF000000
0003FE000000
0007FC000000
000FFC000000
000FF8000000
001FF8000000
001FF0000000
003FF0000000
003FE0000000
007FC0000000
00FFC0000000
00FF80000000
01FF80000000
01FF00000000
03FF00000000
03FE00000000
07FC00000000
0FFC00000000
0FFFFFFFFF80
1FFFFFFFFF80
1FFFFFFFFF80
3FFFFFFFFF80
3FFFFFFFFF80
7FFFFFFFFF80
FFFFFFFFFF80
FFFFFFFFFF80
ENDCHAR
STARTCHAR bracketleft
ENCODING 91
SWIDTH 357 0
DWIDTH 27 0
BBX 16 77 7 -15
BITMAP
FFFF
FFFF
FFFF
FFFF
FFFF
FFFF
FFFF
FFFF
FF80
FF80
FF80
FF80
FF80
FF80
FF80
FF80
FF80
FF80
FF80
FF80
FF80
FF80
FF80
FF80
FF80
FF80
FF80
FF80
FF80
FF80
FF80
FF80
FF80
FF80
FF80
FF80
FF80
FF80
FF80
FF80
FF80
FF80
FF80
FF80
FF80
FF80
FF80
FF80
FF80
FF80
FF80
FF80
FF80
FF80
FF80
FF80
FF80
FF80
FF80
FF80
FF80
FF80
FF80
FF80
FF80
FF80
FF80
FF80
FF80
FFFF
FFFF
FFFF
FFFF
FFFF
FFFF
FFFF
FFFF
ENDCHAR
STARTCHAR backslash
ENCODING 92
SWIDTH 518 0
DWIDTH 39 0
BBX 39 77 0 -15
BITMAP
0700000000
1F00000000
FF00000000
7F80000000
7F80000000
3FC0000000
3FC0000000
3FE0000000
1FE0000000
1FE0000000
0FF0000000
0FF0000000
07F8000000
07F8000000
07FC000000
03FC000000
03FC000000
01FE000000
01FE000000
00FF000000
00FF000000
00FF800000
007F800000
007F800000
003FC00000
003FC00000
001FE00000
001FE00000
000FF00000
000FF00000
000FF00000
0007F80000
0007F80000
0003FC0000
0003FC0000
0001FE0000
0001FE0000
0001FF0000
0000FF0000
0000FF0000
00007F8000
00007F8000
00003FC000
00003FC000
00003FE000
00001FE000
00001FE000
00000FF000
00000FF000
000007F800
000007F800
000007FC00
000003FC00
000003FC00
000001FE00
000001FE00
000000FF00
000000FF00
000000FF80
0000007F80
0000007F80
0000003FC0
0000003FC0
0000001FE0
0000001FE0
0000000FF0
0000000FF0
0000000FF0
00000007F8
00000007F8
00000003FC
00000003FC
00000001FE
00000001FE
00000001FE
00000000F8
00000000E0
ENDCHAR
STARTCHAR bracketright
ENCODING 93
SWIDTH 357 0
DWIDTH 27 0
BBX 15 77 4 -15
BITMAP
FFFE
FFFE
FFFE
FFFE
FFFE
FFFE
FFFE
FFFE
01FE
01FE
01FE
01FE
01FE
01FE
01FE
01FE
01FE
01FE
01FE
01FE
01FE
01FE
01FE
01FE
01FE
01FE
01FE
01FE
01FE
01FE
01FE
01FE
01FE
01FE
01FE
01FE
01FE
01FE
01FE
01FE
01FE
01FE
01FE
01FE
01FE
01FE
01FE
01FE
01FE
01FE
01FE
01FE
01FE
01FE
01FE
01FE
01FE
01FE
01FE
01FE
01FE
01FE
01FE
01FE
01FE
01FE
01FE
01FE
01FE
FFFE
FFFE
FFFE
FFFE
FFFE
FFFE
FFFE
FFFE
ENDCHAR
STARTCHAR asciicircum
ENCODING 94
SWIDTH 565 0
DWIDTH 42 0
BBX 39 27 2 30
BITMAP
0007FF8000
0007FF8000
000FFFC000
000FFFE000
001FFFE000
001FFFF000
003FFFF000
003FFFF800
007FCFF800
007FC7FC00
00FF87FC00
00FF83FE00
01FF03FE00
01FF01FF00
03FE01FF00
03FE00FF80
07FC00FF80
0FFC007FC0
0FF8007FC0
1FF0003FE0
1FF0003FF0
3FE0001FF0
3FE0000FF8
7FC0000FF8
7FC00007FC
FF800007FC
FF800003FE
ENDCHAR
STARTCHAR underscore
ENCODING 95
SWIDTH 565 0
DWIDTH 42 0
BBX 42 7 0 -12
BITMAP
FFFFFFFFFFC0
FFFFFFFFFFC0
FFFFFFFFFFC0
FFFFFFFFFFC0
FFFFFFFFFFC0
FFFFFFFFFFC0
FFFFFFFFFFC0
ENDCHAR
STARTCHAR grave
ENCODING 96
SWIDTH 565 0
DWIDTH 42 0
BBX 17 16 8 41
BITMAP
070000
0F0000
3F8000
FFC000
FFE000
7FE000
3FF000
1FF800
0FFC00
03FC00
01FE00
00FF00
007F80
003F00
001E00
000800
ENDCHAR
STARTCHAR a
ENCODING 97
SWIDTH 599 0
DWIDTH 45 0
BBX 36 38 4 -1
BITMAP
0001C00000
003FFC1FF0
00FFFF1FF0
01FFFF9FF0
07FFFFDFF0
0FFFFFFFF0
0FFFFFFFF0
1FFFFFFFF0
3FFC03FFF0
3FF000FFF0
7FE0007FF0
7FC0003FF0
FFC0003FF0
FF80001FF0
FF80001FF0
FF00000FF0
FF00000FF0
FF00000FF0
FF00000FF0
FF00000FF0
FF00000FF0
FF00000FF0
FF00000FF0
FF80001FF0
FF80001FF0
FF80001FF0
7FC0003FF0
7FE0007FF0
3FF000FFF0
3FF801FFF0
1FFF0FFFF0
1FFFFFFFF0
0FFFFFFFF0
07FFFFFFF0
03FFFFDFF0
00FFFF9FF0
007FFE1FF0
000FF00000
ENDCHAR
STARTCHAR b
ENCODING 98
SWIDTH 599 0
DWIDTH 45 0
BBX 36 63 5 -1
BITMAP
FF00000000
FF00000000
FF00000000
FF00000000
FF00000000
FF00000000
FF00000000
FF00000000
FF00000000
FF00000000
FF00000000
FF00000000
FF00000000
FF00000000
FF00000000
FF00000000
FF00000000
FF00000000
FF00000000
FF00000000
FF00000000
FF00000000
FF00000000
FF00000000
FF00000000
FF00380000
FF03FFC000
FF0FFFF000
FF1FFFF800
FF7FFFFC00
FFFFFFFE00
FFFFFFFF00
FFFFFFFF80
FFFC03FFC0
FFF000FFC0
FFE0007FE0
FFC0003FE0
FFC0003FE0
FF80001FF0
FF80001FF0
FF00000FF0
FF00000FF0
FF00000FF0
FF00000FF0
FF00000FF0
FF00000FF0
FF00000FF0
FF00000FF0
FF80001FF0
FF80001FF0
FF80001FF0
FFC0003FE0
FFE0007FE0
FFF000FFC0
FFF801FFC0
FFFF0FFF80
FFFFFFFF80
FFFFFFFF00
FF7FFFFE00
FF3FFFFC00
FF1FFFF000
FF07FFE000
0000FF0000
ENDCHAR
STARTCHAR c
ENCODING 99
SWIDTH 476 0
DWIDTH 36 0
BBX 29 38 4 -1
BITMAP
0000FC00
000FFFC0
003FFFF0
00FFFFF8
01FFFFF8
03FFFFF8
0FFFFFF8
0FFFFFF8
1FFE01F8
3FF80078
3FF00038
7FE00018
7FC00008
FF800000
FF800000
FF000000
FF000000
FF000000
FF000000
FF000000
FF000000
FF000000
FF000000
FF800000
FF800000
FF800008
7FC00018
7FE00038
3FF00078
3FFC00F8
1FFF8FF8
0FFFFFF8
07FFFFF8
03FFFFF8
01FFFFF8
007FFFF8
001FFFE0
0003FE00
ENDCHAR
STARTCHAR d
ENCODING 100
SWIDTH 599 0
DWIDTH 45 0
BBX 36 63 4 -1
BITMAP
0000001FF0
0000001FF0
0000001FF0
0000001FF0
0000001FF0
0000001FF0
0000001FF0
0000001FF0
0000001FF0
0000001FF0
0000001FF0
0000001FF0
0000001FF0
0000001FF0
0000001FF0
0000001FF0
0000001FF0
0000001FF0
0000001FF0
0000001FF0
0000001FF0
0000001FF0
0000001FF0
0000001FF0
0000001FF0
0001C01FF0
003FFC1FF0
00FFFF1FF0
01FFFF9FF0
07FFFFDFF0
07FFFFFFF0
0FFFFFFFF0
1FFFFFFFF0
3FFC03FFF0
3FF000FFF0
7FE0007FF0
7FC0003FF0
FFC0003FF0
FF80001FF0
FF80001FF0
FF00000FF0
FF00000FF0
FF00000FF0
FF00000FF0
FF00000FF0
FF00000FF0
FF00000FF0
FF00000FF0
FF80001FF0
FF80001FF0
FF80001FF0
7FC0003FF0
7FE0007FF0
3FF000FFF0
3FF801FFF0
1FFF0FFFF0
1FFFFFFFF0
0FFFFFFFF0
07FFFFFFF0
03FFFFDFF0
00FFFF9FF0
007FFE1FF0
000FF80000
ENDCHAR
STARTCHAR e
ENCODING 101
SWIDTH 553 0
DWIDTH 41 0
BBX 34 38 4 -1
BITMAP
0001E00000
003FFF0000
00FFFFC000
03FFFFE000
07FFFFF000
0FFFFFF800
1FFFFFFC00
1FFFFFFE00
3FF807FE00
3FF003FF00
7FE001FF00
7FC000FF80
FF80007F80
FF80007F80
FFFFFFFF80
FFFFFFFF80
FFFFFFFFC0
FFFFFFFFC0
FFFFFFFFC0
FFFFFFFFC0
FFFFFFFFC0
FF00000000
FF00000000
FF80000000
FF80001000
FF80003C00
7FC0007F00
7FC000FFC0
7FE001FF80
3FF803FF80
3FFF1FFF00
1FFFFFFE00
0FFFFFFC00
07FFFFFC00
03FFFFF000
01FFFFE000
007FFF8000
000FFC0000
ENDCHAR
STARTCHAR f
ENCODING 102
SWIDTH 296 0
DWIDTH 22 0
BBX 20 63 3 0
BITMAP
001F80
00FFF0
03FFF0
07FFF0
0FFFF0
0FFFF0
1FFFF0
1FFFF0
1FF870
1FF010
1FE000
3FE000
3FE000
3FE000
3FE000
3FE000
3FE000
3FE000
3FE000
3FE000
3FE000
3FE000
3FE000
3FE000
3FE000
3FE000
3FE000
FFFFF0
FFFFF0
FFFFF0
FFFFF0
FFFFF0
FFFFF0
FFFFF0
FFFFF0
3FE000
3FE000
3FE000
3FE000
3FE000
3FE000
3FE000
3FE000
3FE000
3FE000
3FE000
3FE000
3FE000
3FE000
3FE000
3FE000
3FE000
3FE000
3FE000
3FE000
3FE000
3FE000
3FE000
3FE000
3FE000
3FE000
3FE000
3FE000
ENDCHAR
STARTCHAR g
ENCODING 103
SWIDTH 598 0
DWIDTH 45 0
BBX 36 56 4 -19
BITMAP
0001C00000
003FFC1FF0
00FFFF1FF0
01FFFF9FF0
07FFFFFFF0
0FFFFFFFF0
0FFFFFFFF0
1FFFFFFFF0
3FFC03FFF0
3FF001FFF0
7FE0007FF0
7FC0007FF0
FFC0003FF0
FF80001FF0
FF80001FF0
FF00001FF0
FF00000FF0
FF00000FF0
FF00000FF0
FF00000FF0
FF00000FF0
FF00000FF0
FF00001FF0
FF80001FF0
FF80001FF0
FF80003FF0
7FC0003FF0
7FE0007FF0
7FF000FFF0
3FF801FFF0
3FFF0FFFF0
1FFFFFFFF0
0FFFFFFFF0
07FFFFFFF0
03FFFFDFF0
01FFFF9FF0
007FFE1FF0
000FF01FF0
0000001FF0
0000001FF0
0000001FF0
0000001FE0
7FC0001FE0
7FC0001FE0
3FC0003FE0
3FE0003FE0
3FF0007FC0
1FF800FFC0
1FFE03FF80
0FFFFFFF80
0FFFFFFF00
07FFFFFE00
03FFFFFC00
00FFFFF800
007FFFE000
000FFF8000
ENDCHAR
STARTCHAR h
ENCODING 104
SWIDTH 548 0
DWIDTH 41 0
BBX 31 62 5 0
BITMAP
FF000000
FF000000
FF000000
FF000000
FF000000
FF000000
FF000000
FF000000
FF000000
FF000000
FF000000
FF000000
FF000000
FF000000
FF000000
FF000000
FF000000
FF000000
FF000000
FF000000
FF000000
FF000000
FF000000
FF000000
FF000000
FF00F000
FF07FF00
FF1FFFC0
FF7FFFE0
FFFFFFF0
FFFFFFF8
FFFFFFF8
FFFFFFFC
FFF00FFC
FFE007FC
FFC003FE
FFC003FE
FF8003FE
FF8003FE
FF8001FE
FF8001FE
FF8001FE
FF0001FE
FF0001FE
FF0001FE
FF0001FE
FF0001FE
FF0001FE
FF0001FE
FF0001FE
FF0001FE
FF0001FE
FF0001FE
FF0001FE
FF0001FE
FF0001FE
FF0001FE
FF0001FE
FF0001FE
FF0001FE
FF0001FE
FF0001FE
ENDCHAR
STARTCHAR i
ENCODING 105
SWIDTH 249 0
DWIDTH 19 0
BBX 11 56 4 0
BITMAP
0E00
3F80
7FC0
FFC0
FFE0
FFE0
FFE0
FFC0
7FC0
3F80
1E00
0000
0000
0000
0000
0000
0000
0000
0000
0000
7F80
7F80
7F80
7F80
7F80
7F80
7F80
7F80
7F80
7F80
7F80
7F80
7F80
7F80
7F80
7F80
7F80
7F80
7F80
7F80
7F80
7F80
7F80
7F80
7F80
7F80
7F80
7F80
7F80
7F80
7F80
7F80
7F80
7F80
7F80
7F80
ENDCHAR
STARTCHAR j
ENCODING 106
SWIDTH 249 0
DWIDTH 19 0
BBX 11 75 4 -19
BITMAP
0E00
3F80
7FC0
FFC0
FFE0
FFE0
FFE0
FFC0
7FC0
3F80
1E00
0000
0000
0000
0000
0000
0000
0000
0000
0000
7F80
7F80
7F80
7F80
7F80
7F80
7F80
7F80
7F80
7F80
7F80
7F80
7F80
7F80
7F80
7F80
7F80
7F80
7F80
7F80
7F80
7F80
7F80
7F80
7F80
7F80
7F80
7F80
7F80
7F80
7F80
7F80
7F80
7F80
7F80
7F80
7F80
7F80
7F80
7F80
7F80
7F80
7F80
7F80
7F80
7F80
7F80
7F80
7F80
7F80
7F80
7F80
7F80
7F80
7F80
ENDCHAR
STARTCHAR k
ENCODING 107
SWIDTH 498 0
DWIDTH 37 0
BBX 32 62 5 0
BITMAP
FF000000
FF000000
FF000000
FF000000
FF000000
FF000000
FF000000
FF000000
FF000000
FF000000
FF000000
FF000000
FF000000
FF000000
FF000000
FF000000
FF000000
FF000000
FF000000
FF000000
FF000000
FF000000
FF000000
FF000000
FF000000
FF000000
FF000FFE
FF001FFC
FF003FF8
FF007FF0
FF00FFE0
FF01FFC0
FF03FF80
FF07FF00
FF0FFE00
FF1FFC00
FF3FF800
FF7FF000
FFFFE000
FFFFC000
FFFF0000
FFFF0000
FFFF8000
FFFF8000
FFFFC000
FFFFE000
FFFFF000
FFBFF800
FF1FF800
FF0FFC00
FF07FE00
FF07FF00
FF03FF80
FF01FF80
FF00FFC0
FF00FFE0
FF007FF0
FF003FF8
FF001FF8
FF000FFC
FF000FFE
FF0007FF
ENDCHAR
STARTCHAR l
ENCODING 108
SWIDTH 249 0
DWIDTH 19 0
BBX 8 62 5 0
BITMAP
FF
FF
FF
FF
FF
FF
FF
FF
FF
FF
FF
FF
FF
FF
FF
FF
FF
FF
FF
FF
FF
FF
FF
FF
FF
FF
FF
FF
FF
FF
FF
FF
FF
FF
FF
FF
FF
FF
FF
FF
FF
FF
FF
FF
FF
FF
FF
FF
FF
FF
FF
FF
FF
FF
FF
FF
FF
FF
FF
FF
FF
FF
ENDCHAR
STARTCHAR m
ENCODING 109
SWIDTH 791 0
DWIDTH 59 0
BBX 49 37 5 0
BITMAP
0001C0000E0000
FF0FFC01FFE000
FF1FFF03FFF800
FF3FFF8FFFFC00
FF7FFFDFFFFE00
FFFFFFDFFFFE00
FFFFFFFFFFFF00
FFFFFFFFFFFF00
FFF03FFF03FF00
FFE01FFE01FF80
FFC01FFC00FF80
FF800FFC00FF80
FF800FFC00FF80
FF800FF8007F80
FF800FF8007F80
FF8007F8007F80
FF8007F8007F80
FF0007F8007F80
FF0007F8007F80
FF0007F8007F80
FF0007F8007F80
FF0007F8007F80
FF0007F8007F80
FF0007F8007F80
FF0007F8007F80
FF0007F8007F80
FF0007F8007F80
FF0007F8007F80
FF0007F8007F80
FF0007F8007F80
FF0007F8007F80
FF0007F8007F80
FF0007F8007F80
FF0007F8007F80
FF0007F8007F80
FF0007F8007F80
FF0007F8007F80
ENDCHAR
STARTCHAR n
ENCODING 110
SWIDTH 548 0
DWIDTH 41 0
BBX 31 37 5 0
BITMAP
00007000
FF07FF00
FF1FFFC0
FF3FFFE0
FF7FFFF0
FFFFFFF8
FFFFFFF8
FFFFFFFC
FFF00FFC
FFE007FC
FFC003FE
FFC003FE
FF8003FE
FF8003FE
FF8001FE
FF8001FE
FF8001FE
FF8001FE
FF8001FE
FF0001FE
FF0001FE
FF0001FE
FF0001FE
FF0001FE
FF0001FE
FF0001FE
FF0001FE
FF0001FE
FF0001FE
FF0001FE
FF0001FE
FF0001FE
FF0001FE
FF0001FE
FF0001FE
FF0001FE
FF0001FE
ENDCHAR
STARTCHAR o
ENCODING 111
SWIDTH 601 0
DWIDTH 45 0
BBX 38 38 4 -1
BITMAP
0000700000
000FFF8000
007FFFF000
00FFFFF800
03FFFFFE00
07FFFFFF00
0FFFFFFF80
1FFFFFFFC0
1FFE01FFC0
3FF8007FE0
7FE0003FF0
7FC0001FF0
7FC0001FF0
FF80000FF8
FF80000FF8
FF000007F8
FF000007F8
FF000007F8
FF000007FC
FF000007FC
FF000007FC
FF000007F8
FF000007F8
FF800007F8
FF80000FF8
7F80000FF8
7FC0001FF0
7FE0003FF0
3FF0007FE0
3FF800FFE0
1FFF87FFC0
0FFFFFFF80
07FFFFFF00
03FFFFFE00
01FFFFFC00
007FFFF000
001FFFC000
0003FE0000
ENDCHAR
STARTCHAR p
ENCODING 112
SWIDTH 599 0
DWIDTH 45 0
BBX 36 56 5 -19
BITMAP
0000780000
FF03FFC000
FF0FFFF000
FF3FFFF800
FF7FFFFC00
FFFFFFFE00
FFFFFFFF00
FFFFFFFF80
FFFC03FFC0
FFF000FFC0
FFE0007FE0
FFC0003FE0
FFC0003FE0
FF80001FF0
FF80001FF0
FF00000FF0
FF00000FF0
FF00000FF0
FF00000FF0
FF00000FF0
FF00000FF0
FF00000FF0
FF00000FF0
FF80001FF0
FF80001FF0
FF80001FF0
FFC0003FE0
FFE0007FE0
FFF000FFC0
FFF801FFC0
FFFF0FFF80
FFFFFFFF80
FFFFFFFF00
FF7FFFFE00
FF3FFFFC00
FF1FFFF000
FF07FFE000
FF00FF0000
FF00000000
FF00000000
FF00000000
FF00000000
FF00000000
FF00000000
FF00000000
FF00000000
FF00000000
FF00000000
FF00000000
FF00000000
FF00000000
FF00000000
FF00000000
FF00000000
FF00000000
FF00000000
ENDCHAR
STARTCHAR q
ENCODING 113
SWIDTH 599 0
DWIDTH 45 0
BBX 36 56 4 -19
BITMAP
0001E00000
003FFC1FF0
00FFFF1FF0
01FFFFDFF0
03FFFFFFF0
07FFFFFFF0
0FFFFFFFF0
1FFFFFFFF0
3FFC03FFF0
3FF000FFF0
7FE0007FF0
7FC0003FF0
FFC0003FF0
FF80001FF0
FF80001FF0
FF00000FF0
FF00000FF0
FF00000FF0
FF00000FF0
FF00000FF0
FF00000FF0
FF00000FF0
FF00000FF0
FF80001FF0
FF80001FF0
FF80001FF0
7FC0003FF0
7FE0007FF0
7FF000FFF0
3FF801FFF0
1FFF0FFFF0
1FFFFFFFF0
0FFFFFFFF0
07FFFFFFF0
03FFFFDFF0
01FFFF9FF0
007FFE1FF0
000FF01FF0
0000001FF0
0000001FF0
0000001FF0
0000001FF0
0000001FF0
0000001FF0
0000001FF0
0000001FF0
0000001FF0
0000001FF0
0000001FF0
0000001FF0
0000001FF0
0000001FF0
0000001FF0
0000001FF0
0000001FF0
0000001FF0
ENDCHAR
STARTCHAR r
ENCODING 114
SWIDTH 374 0
DWIDTH 28 0
BBX 24 37 5 0
BITMAP
0001E0
FF0FFC
FF1FFF
FF7FFE
FFFFFE
FFFFFC
FFFFFC
FFFFF8
FFFCF8
FFE010
FFC000
FFC000
FF8000
FF8000
FF8000
FF8000
FF8000
FF0000
FF0000
FF0000
FF0000
FF0000
FF0000
FF0000
FF0000
FF0000
FF0000
FF0000
FF0000
FF0000
FF0000
FF0000
FF0000
FF0000
FF0000
FF0000
FF0000
ENDCHAR
STARTCHAR s
ENCODING 115
SWIDTH 405 0
DWIDTH 30 0
BBX 25 38 3 -1
BITMAP
001C0000
00FFC000
03FFE000
07FFF000
0FFFF800
1FFFFC00
1FFFFC00
3FFFFE00
3FC3F800
3FC1E000
3F808000
3FC00000
3FE00000
3FF00000
3FFC0000
1FFF0000
1FFFC000
0FFFF000
07FFFC00
01FFFE00
007FFF00
001FFF00
0007FF80
0001FF80
0000FF80
0000FF80
02007F80
0F007F80
7F007F80
FF80FF80
FFF3FF00
7FFFFF00
3FFFFE00
3FFFFE00
1FFFFC00
0FFFF800
03FFE000
00FF8000
ENDCHAR
STARTCHAR t
ENCODING 116
SWIDTH 273 0
DWIDTH 21 0
BBX 18 49 2 0
BITMAP
1FF000
1FF000
1FF000
1FF000
1FF000
1FF000
1FF000
1FF000
1FF000
1FF000
1FF000
1FF000
1FF000
FFFFC0
FFFFC0
FFFFC0
FFFFC0
FFFFC0
FFFFC0
FFFFC0
FFFFC0
1FF000
1FF000
1FF000
1FF000
1FF000
1FF000
1FF000
1FF000
1FF000
1FF000
1FF000
1FF000
1FF000
1FF000
1FF000
1FF000
1FF000
1FF000
1FF000
1FF000
1FF000
1FF000
1FF000
1FF000
1FF000
1FF000
1FF000
1FF000
ENDCHAR
STARTCHAR u
ENCODING 117
SWIDTH 544 0
DWIDTH 41 0
BBX 31 37 5 -1
BITMAP
FF0003FE
FF0003FE
FF0003FE
FF0003FE
FF0003FE
FF0003FE
FF0003FE
FF0003FE
FF0003FE
FF0003FE
FF0003FE
FF0003FE
FF0003FE
FF0003FE
FF0003FE
FF0003FE
FF0003FE
FF0003FE
FF0003FE
FF0003FE
FF0003FE
FF0003FE
FF8003FE
FF8003FE
FF8003FC
FF8003FC
7FC007FC
7FC007FC
7FE00FFC
3FFC7FF8
3FFFFFF8
1FFFFFF0
0FFFFFE0
07FFFFC0
03FFFF80
00FFFE00
001FF000
ENDCHAR
STARTCHAR v
ENCODING 118
SWIDTH 502 0
DWIDTH 38 0
BBX 37 38 0 -2
BITMAP
FFC0000FF8
7FC0001FF8
7FE0001FF0
3FE0001FF0
3FF0003FE0
1FF0003FE0
1FF0007FC0
0FF8007FC0
0FF800FF80
07FC00FF80
07FC01FF00
03FE01FF00
03FE03FE00
01FF03FE00
01FF03FC00
00FF87FC00
00FF87F800
007FCFF800
007FCFF800
003FDFF000
003FFFF000
001FFFE000
001FFFE000
000FFFC000
000FFFC000
0007FF8000
0007FF8000
0003FF0000
0003FF0000
0003FE0000
0001FE0000
0001FC0000
0000FC0000
0000F80000
0000780000
0000700000
0000300000
0000200000
ENDCHAR
STARTCHAR w
ENCODING 119
SWIDTH 773 0
DWIDTH 58 0
BBX 58 40 0 -2
BITMAP
0000000C00000000
0000000C00000000
FFC0000E0000FFC0
7FC0001E0000FF80
7FE0001E0001FF80
3FE0003F0001FF00
3FF0003F0001FF00
1FF0007F8003FE00
1FF8007F8003FE00
0FF8007FC007FC00
0FF800FFC007FC00
07FC00FFC00FF800
07FC01FFE00FF800
03FE01FFE01FF000
03FE03FFF01FF000
01FF03FFF03FE000
01FF03FFF83FE000
00FF87FFF83FC000
00FF87FFF87FC000
007FCFF3FC7F8000
007FCFF3FCFF8000
003FDFE1FEFF0000
003FFFE1FFFF0000
001FFFE0FFFE0000
001FFFC0FFFE0000
000FFFC0FFFC0000
000FFF807FFC0000
0007FF807FF80000
0007FF003FF80000
0003FF003FF00000
0003FF001FF00000
0001FE001FE00000
0001FE001FE00000
0000FC000FE00000
0000FC000FC00000
0000780007C00000
0000780007800000
0000700003800000
0000300003000000
0000300003000000
ENDCHAR
STARTCHAR x
ENCODING 120
SWIDTH 558 0
DWIDTH 42 0
BBX 40 36 1 0
BITMAP
1FF0000FFC
1FF8001FF8
0FFC001FF8
07FE003FF0
03FE007FE0
03FF00FFC0
01FF81FF80
00FFC1FF80
007FE3FF00
003FE7FE00
003FFFFC00
001FFFF800
000FFFF800
0007FFF000
0003FFE000
0003FFC000
0001FF8000
0001FFC000
0003FFE000
0007FFE000
000FFFF000
001FFFF800
003FFFFC00
003FF7FE00
007FE3FE00
00FFC3FF00
01FF81FF80
03FF00FFC0
03FF007FE0
07FE003FE0
0FFC003FF0
1FF8001FF8
3FF0000FFC
7FE00007FE
7FE00007FE
FFC00003FF
ENDCHAR
STARTCHAR y
ENCODING 121
SWIDTH 543 0
DWIDTH 41 0
BBX 40 55 0 -19
BITMAP
FFC00001FF
7FE00003FF
3FE00003FE
3FF00007FE
1FF00007FC
1FF8000FFC
0FF8000FF8
0FFC001FF8
07FC001FF0
07FE003FF0
03FE003FE0
01FF003FE0
01FF007FC0
00FF807FC0
00FFC0FF80
007FC0FF80
007FE1FF00
003FE1FF00
003FF3FE00
001FF3FC00
000FFFFC00
000FFFF800
0007FFF800
0007FFF000
0003FFF000
0003FFE000
0001FFE000
0001FFC000
0000FFC000
0000FF8000
0000FF8000
0001FF0000
0001FF0000
0003FE0000
0003FE0000
0007FC0000
0007FC0000
000FF80000
000FF80000
001FF00000
003FF00000
003FE00000
007FE00000
007FC00000
00FFC00000
00FF800000
01FF800000
01FF000000
03FF000000
03FE000000
07FC000000
07FC000000
0FF8000000
0FF8000000
1FF0000000
ENDCHAR
STARTCHAR z
ENCODING 122
SWIDTH 543 0
DWIDTH 41 0
BBX 39 36 1 0
BITMAP
07FFFFFFFE
07FFFFFFFC
07FFFFFFF8
07FFFFFFF0
07FFFFFFF0
07FFFFFFE0
07FFFFFFC0
07FFFFFF80
000003FF00
000003FF00
000007FE00
00000FFC00
00001FF800
00003FF000
00007FE000
00007FE000
0000FFC000
0001FF8000
0003FF0000
0007FE0000
000FFC0000
000FFC0000
001FF80000
003FF00000
007FE00000
00FFC00000
00FF800000
01FF800000
03FFFFFFF8
07FFFFFFF8
0FFFFFFFF8
1FFFFFFFF8
1FFFFFFFF8
3FFFFFFFF8
7FFFFFFFF8
FFFFFFFFF8
ENDCHAR
STARTCHAR braceleft
ENCODING 123
SWIDTH 357 0
DWIDTH 27 0
BBX 20 78 3 -16
BITMAP
003FF0
00FFF0
01FFF0
01FFF0
03FFF0
03FFF0
03FFF0
07FF00
07FE00
07FC00
07FC00
07FC00
07FC00
07FC00
07FC00
07FC00
07FC00
07FC00
07FC00
07FC00
07FC00
07FC00
07FC00
07FC00
07FC00
07FC00
07FC00
07FC00
07FC00
07FC00
07FC00
07F800
0FF800
1FF800
7FF800
FFF000
FFE000
FFC000
FF8000
FFC000
FFE000
FFF000
3FF800
0FF800
0FF800
07FC00
07FC00
07FC00
07FC00
07FC00
07FC00
07FC00
07FC00
07FC00
07FC00
07FC00
07FC00
07FC00
07FC00
07FC00
07FC00
07FC00
07FC00
07FC00
07FC00
07FC00
07FC00
07FC00
07FC00
03FF00
03FFF0
03FFF0
03FFF0
01FFF0
01FFF0
00FFF0
003FF0
0007F0
ENDCHAR
STARTCHAR bar
ENCODING 124
SWIDTH 565 0
DWIDTH 42 0
BBX 8 71 17 -14
BITMAP
FF
FF
FF
FF
FF
FF
FF
FF
FF
FF
FF
FF
FF
FF
FF
FF
FF
FF
FF
FF
FF
FF
FF
FF
FF
FF
FF
FF
FF
FF
FF
FF
FF
FF
FF
FF
FF
FF
FF
FF
FF
FF
FF
FF
FF
FF
FF
FF
FF
FF
FF
FF
FF
FF
FF
FF
FF
FF
FF
FF
FF
FF
FF
FF
FF
FF
FF
FF
FF
FF
FF
ENDCHAR
STARTCHAR braceright
ENCODING 125
SWIDTH 357 0
DWIDTH 27 0
BBX 19 79 4 -16
BITMAP
080000
FFC000
FFE000
FFF000
FFF800
FFF800
FFFC00
FFFC00
0FFC00
07FC00
03FE00
03FE00
03FE00
03FE00
03FE00
03FE00
03FE00
03FE00
03FE00
03FE00
03FE00
03FE00
03FE00
03FE00
03FE00
03FE00
03FE00
03FE00
03FE00
03FE00
03FE00
03FE00
03FE00
03FE00
01FF00
01FF80
00FFE0
007FE0
003FE0
001FE0
003FE0
007FE0
00FFE0
01FFE0
01FF80
01FF00
03FE00
03FE00
03FE00
03FE00
03FE00
03FE00
03FE00
03FE00
03FE00
03FE00
03FE00
03FE00
03FE00
03FE00
03FE00
03FE00
03FE00
03FE00
03FE00
03FE00
03FE00
03FE00
03FE00
07FC00
0FFC00
FFFC00
FFFC00
FFFC00
FFF800
FFF800
FFF000
FFC000
FE0000
ENDCHAR
STARTCHAR asciitilde
ENCODING 126
SWIDTH 753 0
DWIDTH 57 0
BBX 41 15 8 48
BITMAP
000000000C00
00FF80001E00
03FFF0003F00
07FFFC003F80
0FFFFF007F00
1FFFFFF7FF00
3FFFFFFFFE00
3FFFFFFFFC00
7FFFFFFFFC00
7F81FFFFF800
FE003FFFF000
FE000FFFE000
7C0003FF8000
7800003C0000
100000000000
ENDCHAR
STARTCHAR nonbreakingspace
ENCODING 160
SWIDTH 308 0
DWIDTH 23 0
BBX 1 1 0 0
BITMAP
00
ENDCHAR
STARTCHAR exclamdown
ENCODING 161
SWIDTH 331 0
DWIDTH 25 0
BBX 11 58 7 -13
BITMAP
0600
3F80
7FC0
7FC0
FFC0
FFE0
FFC0
7FC0
7FC0
3F80
0400
0000
0000
0000
7FC0
7FC0
7FC0
7FC0
7FC0
7FC0
7FC0
7FC0
7FC0
7FC0
7FC0
7FC0
7FC0
7FC0
7FC0
7FC0
7FC0
7FC0
7FC0
7FC0
7FC0
7FC0
7FC0
7FC0
7FC0
7FC0
7FC0
7FC0
7FC0
7FC0
7FC0
7FC0
7FC0
7FC0
7FC0
7FC0
7FC0
7FC0
7FC0
7FC0
7FC0
7FC0
7FC0
7FC0
ENDCHAR
STARTCHAR cent
ENCODING 162
SWIDTH 617 0
DWIDTH 46 0
BBX 29 52 7 2
BITMAP
0003F800
0003F800
0003F800
0003F800
0003F800
0003F800
0003F800
0007FF00
001FFFE0
007FFFF8
01FFFFF8
03FFFFF8
07FFFFF8
0FFFFFF8
1FFFFFF8
3FFC01F8
3FF00078
7FE00038
7FC00018
7FC00008
FF800000
FF800000
FF000000
FF000000
FF000000
FF000000
FF000000
FF000000
FF000000
FF800000
FF800000
7F800008
7FC00018
7FE00038
3FF00078
3FF800F8
1FFF07F8
0FFFFFF8
07FFFFF8
03FFFFF8
01FFFFF8
00FFFFF8
003FFFF0
000FFF80
0003F800
0003F800
0003F800
0003F800
0003F800
0003F800
0003F800
0003F800
ENDCHAR
STARTCHAR sterling
ENCODING 163
SWIDTH 617 0
DWIDTH 46 0
BBX 44 58 1 -1
BITMAP
00007FFC0000
0001FFFF8000
0007FFFFC000
000FFFFFF000
001FFFFFF800
003FFFFFFC00
007FFFFFFC00
00FFFFFFFE00
01FFE00FFF00
01FFC003FF00
03FF8001FF80
03FF0000FF80
03FE0000FF80
07FE00007F80
07FC00007FC0
07FC00007FC0
07FC00007FC0
07FC00007FC0
07FC00007F00
07FC00007C00
07FC00002000
03FC00000000
03FE00000000
03FE00000000
01FF00000000
01FF00000000
01FF80000000
00FF80000000
00FFC0000000
3FFFFFF80000
3FFFFFF80000
3FFFFFF80000
3FFFFFF80000
3FFFFFF80000
3FFFFFF80000
000FF8000000
000FF8000000
0007F8000000
0007F8000000
0007F8000000
0007F8000000
0007F8000000
0007F8000000
000FF8000000
000FF8000400
003FF0000E00
01FFF8000F80
03FFFF001FE0
07FFFFE03FF0
0FFFFFFFFFE0
1FFFFFFFFFE0
3FFFFFFFFFC0
3FFFFFFFFFC0
7FF1FFFFFF80
FFC01FFFFF00
3F8003FFFE00
0F80007FF800
03000007C000
ENDCHAR
STARTCHAR currency
ENCODING 164
SWIDTH 617 0
DWIDTH 46 0
BBX 50 49 -2 7
BITMAP
08000000000400
1C000000000E00
3E000000001F00
7F000000003F80
FF8003F8007FC0
7FC03FFF00FF80
3FE0FFFFC1FF00
1FF3FFFFF3FE00
0FFFFFFFFFFC00
07FFFFFFFFF800
03FFFFFFFFF000
01FFFFFFFFE000
00FFF807FFC000
00FFE000FFC000
01FF80007FE000
01FF00003FE000
03FE00001FF000
03FC00000FF000
03FC000007F800
07F8000007F800
07F8000007F800
07F8000003FC00
07F0000003FC00
0FF0000003FC00
0FF0000003FC00
0FF0000003FC00
07F0000003FC00
07F0000003FC00
07F8000003F800
07F8000007F800
07F8000007F800
03FC00000FF800
03FE00000FF000
01FF00001FF000
01FF80003FE000
00FFC0007FE000
00FFE001FFC000
00FFFC0FFFE000
01FFFFFFFFF000
03FFFFFFFFF800
07FFFFFFFFFC00
0FFFFFFFFBFE00
1FF1FFFFE1FF00
3FE07FFF80FF80
7FC00FFE007FC0
7F800000003FC0
3F000000001F80
1E000000000F00
0C000000000600
ENDCHAR
STARTCHAR yen
ENCODING 165
SWIDTH 617 0
DWIDTH 46 0
BBX 44 57 1 0
BITMAP
FFC000003FF0
7FC000003FE0
3FE000007FE0
3FE000007FC0
1FF00000FFC0
1FF00000FF80
0FF80001FF00
0FFC0001FF00
07FC0003FE00
07FE0003FE00
03FE0007FC00
01FF000FFC00
01FF000FF800
00FF801FF800
00FF801FF000
007FC03FF000
007FE03FE000
003FE07FC000
003FF07FC000
3FFFF0FFFFC0
3FFFF9FFFFC0
3FFFF9FFFFC0
3FFFFFFFFFC0
3FFFFFFFFFC0
3FFFFFFFFFC0
0003FFFC0000
0001FFF80000
0001FFF80000
0000FFF00000
0000FFF00000
00007FE00000
3FFFFFFFFFC0
3FFFFFFFFFC0
3FFFFFFFFFC0
3FFFFFFFFFC0
3FFFFFFFFFC0
3FFFFFFFFFC0
00003FC00000
00003FC00000
00003FC00000
00003FC00000
00003FC00000
00003FC00000
00003FC00000
00003FC00000
00003FC00000
00003FC00000
00003FC00000
00003FC00000
00003FC00000
00003FC00000
00003FC00000
00003FC00000
00003FC00000
00003FC00000
00003FC00000
00003FC00000
ENDCHAR
STARTCHAR brokenbar
ENCODING 166
SWIDTH 565 0
DWIDTH 42 0
BBX 8 71 17 -14
BITMAP
FF
FF
FF
FF
FF
FF
FF
FF
FF
FF
FF
FF
FF
FF
FF
FF
FF
FF
FF
FF
FF
FF
FF
FF
FF
FF
FF
FF
FF
00
00
00
00
00
00
00
00
00
00
00
00
00
00
00
FF
FF
FF
FF
FF
FF
FF
FF
FF
FF
FF
FF
FF
FF
FF
FF
FF
FF
FF
FF
FF
FF
FF
FF
FF
FF
FF
ENDCHAR
STARTCHAR section
ENCODING 167
SWIDTH 617 0
DWIDTH 46 0
BBX 34 78 6 -16
BITMAP
0007FF0000
003FFFC000
007FFFF000
00FFFFF800
03FFFFFC00
03FFFFFE00
07FFFFFE00
0FFFDFFF00
0FFC01FF80
1FF800FF80
1FF0007F80
1FE0007FC0
3FE0003FC0
3FE0003FC0
3FC0003FC0
3FE0003FC0
3FE0003FC0
1FE0000000
1FE0000000
1FF0000000
0FFC000000
0FFE000000
07FFC00000
03FFF80000
01FFFF0000
007FFFC000
01FFFFF000
03FFFFF800
07FFFFFC00
0FFFFFFE00
1FFE0FFF00
3FF803FF80
3FE000FF80
3FE000FFC0
7FC0007FC0
7F80003FC0
7F80003FC0
7F80003FC0
7F80003FC0
7F80003FC0
7F80003FC0
7FC0007FC0
7FC0007FC0
3FE000FF80
3FF001FF80
3FF803FF00
1FFF1FFF00
0FFFFFFE00
07FFFFFC00
01FFFFF800
00FFFFE000
003FFFE000
0007FFF000
0001FFF800
00007FFC00
00000FFE00
000007FE00
000001FF00
000001FF00
000000FF00
000000FF00
FF0000FF00
FF0000FF00
FF8000FF00
FF8000FF00
7F8000FF00
7FC001FF00
7FC001FF00
7FF007FE00
3FFC0FFE00
3FFFFFFC00
1FFFFFFC00
0FFFFFF800
07FFFFF000
03FFFFE000
00FFFF8000
003FFE0000
0003F00000
ENDCHAR
STARTCHAR dieresis
ENCODING 168
SWIDTH 565 0
DWIDTH 42 0
BBX 26 10 8 42
BITMAP
1F003E00
3F807F80
7FC0FF80
FFE0FFC0
FFE0FFC0
FFE0FFC0
7FE0FFC0
7FC0FF80
3FC07F80
1F003F00
ENDCHAR
STARTCHAR copyright
ENCODING 169
SWIDTH 857 0
DWIDTH 64 0
BBX 58 59 3 -1
BITMAP
0000007F80000000
000007FFFC000000
00003FFFFF000000
0000FFFFFFE00000
0003FFFFFFF00000
000FFC000FFC0000
001FF00001FE0000
003FC000007F0000
007F0000003FC000
00FC0000000FC000
01F800000007E000
03F000000003F000
07E0001FC001F800
07C001FFFC00FC00
0FC007FFFF007C00
1F800FFFFF007E00
1F001FFFFF003E00
3F007FFFFF001F00
3E00FFE03F001F00
3E00FF800F000F80
7C01FE0003000F80
7C03FC0000000F80
7C03F800000007C0
F807F000000007C0
F807F000000007C0
F807E000000007C0
F80FE000000007C0
F80FE000000003C0
F80FE000000003C0
F80FE000000003C0
F80FE000000003C0
F80FE000000003C0
F80FE000000003C0
F807E000000007C0
F807F000000007C0
F807F000000007C0
7807F800000007C0
7C03F800000007C0
7C03FC0001000F80
7C01FF0007000F80
3E00FFC01F001F80
3E007FFDFF001F00
1F003FFFFF003F00
1F801FFFFF003E00
0F800FFFFF007E00
0FC003FFFE00FC00
07E0007FF001F800
03F000000001F800
01F800000003F000
01FC0000000FE000
00FE0000001FC000
007F8000003F8000
001FE00000FF0000
000FF80007FC0000
0007FF807FF80000
0001FFFFFFE00000
00007FFFFFC00000
00001FFFFE000000
000001FFE0000000
ENDCHAR
STARTCHAR ordfeminine
ENCODING 170
SWIDTH 409 0
DWIDTH 31 0
BBX 23 23 3 33
BITMAP
00FC00
07FF3E
0FFFBE
1FFFFE
3FFFFE
3F81FE
7F00FE
7E007E
7C003E
7C003E
FC003E
FC003E
FC003E
7C003E
7E007E
7E007E
7F00FE
3F81FE
1FFFFE
0FFFFE
07FFBE
03FF3E
007800
ENDCHAR
STARTCHAR guillemotleft
ENCODING 171
SWIDTH 575 0
DWIDTH 43 0
BBX 34 37 4 0
BITMAP
0004000400
0006000E00
000F801F00
001FC01FC0
003FE03FC0
003FC07FC0
007F80FF80
00FF80FF00
01FF01FE00
03FE03FE00
03FC07FC00
07FC07F800
0FF80FF000
1FF01FF000
1FE03FE000
3FE03FC000
7FC07F8000
FF80FF8000
FF01FF0000
FF80FF0000
7F80FF8000
7FC07FC000
3FE03FE000
1FF01FE000
0FF01FF000
07F80FF800
07FC07FC00
03FE03FC00
01FF01FE00
00FF01FF00
00FF80FF80
007FC07FC0
003FE03FC0
001FC03FC0
000F801F80
000E000E00
0004000400
ENDCHAR
STARTCHAR logicalnot
ENCODING 172
SWIDTH 565 0
DWIDTH 42 0
BBX 37 23 3 0
BITMAP
FFFFFFFFF8
FFFFFFFFF8
FFFFFFFFF8
FFFFFFFFF8
FFFFFFFFF8
FFFFFFFFF8
FFFFFFFFF8
FFFFFFFFF8
0000000FF8
0000000FF8
0000000FF8
0000000FF8
0000000FF8
0000000FF8
0000000FF8
0000000FF8
0000000FF8
0000000FF8
0000000FF8
0000000FF8
0000000FF8
0000000FF8
0000000FF8
ENDCHAR
STARTCHAR softhyphen
ENCODING 173
SWIDTH 217 0
DWIDTH 16 0
BBX 16 7 0 15
BITMAP
FFFF
FFFF
FFFF
FFFF
FFFF
FFFF
FFFF
ENDCHAR
STARTCHAR registered
ENCODING 174
SWIDTH 857 0
DWIDTH 64 0
BBX 58 59 3 -1
BITMAP
0000007F80000000
000007FFFC000000
00003FFFFF000000
0000FFFFFFE00000
0003FFFFFFF00000
000FFC000FFC0000
001FF00001FE0000
003FC000007F0000
007F0000003FC000
00FC0000000FC000
01F800000007E000
03F000000003F000
07E000000001F800
07C01FFF0000FC00
0FC01FFFE0007C00
1F801FFFF0007E00
1F001FFFF8003E00
3F001FFFFC001F00
3E001FFFFC001F00
3E001F81FE000F80
7C001F80FE000F80
7C001F807E000F80
7C001F807E0007C0
F8001F807E0007C0
F8001F807E0007C0
F8001F80FE0007C0
F8001F80FE0007C0
F8001F87FC0003C0
F8001FFFFC0003C0
F8001FFFF80003C0
F8001FFFF00003C0
F8001FFFC00003C0
F8001FFF000003C0
F8001FFF800007C0
F8001FBFC00007C0
F8001F9FC00007C0
78001F8FE00007C0
7C001F8FF00007C0
7C001F87F8000F80
7C001F83F8000F80
3E001F81FC001F80
3E001F81FE001F00
1F001F80FF003F00
1F801F807F803E00
0F801F803F807E00
0FC01F803FC0FC00
07E01F801FE1F800
03F000000001F800
01F800000003F000
01FC0000000FE000
00FE0000001FC000
007F8000003F8000
001FE00000FF0000
000FF80007FC0000
0007FF807FF80000
0001FFFFFFE00000
00007FFFFFC00000
00001FFFFE000000
000001FFE0000000
ENDCHAR
STARTCHAR macron
ENCODING 175
SWIDTH 565 0
DWIDTH 42 0
BBX 26 6 8 43
BITMAP
FFFFFFC0
FFFFFFC0
FFFFFFC0
FFFFFFC0
FFFFFFC0
FFFFFFC0
ENDCHAR
STARTCHAR degree
ENCODING 176
SWIDTH 641 0
DWIDTH 48 0
BBX 22 22 13 35
BITMAP
01FF00
07FF80
1FFFE0
3FFFF0
3FFFF0
7FCFF8
7E01FC
FC00FC
FC00FC
F8007C
F8007C
F8007C
F8007C
FC00FC
FC00FC
7E01F8
7F03F8
3FFFF0
1FFFE0
0FFFC0
07FF80
01FE00
ENDCHAR
STARTCHAR plusminus
ENCODING 177
SWIDTH 617 0
DWIDTH 46 0
BBX 39 49 4 0
BITMAP
0000FE0000
0000FE0000
0000FE0000
0000FE0000
0000FE0000
0000FE0000
0000FE0000
0000FE0000
0000FE0000
0000FE0000
0000FE0000
0000FE0000
0000FE0000
0000FE0000
0000FE0000
0000FE0000
FFFFFFFFFE
FFFFFFFFFE
FFFFFFFFFE
FFFFFFFFFE
FFFFFFFFFE
FFFFFFFFFE
FFFFFFFFFE
0000FE0000
0000FE0000
0000FE0000
0000FE0000
0000FE0000
0000FE0000
0000FE0000
0000FE0000
0000FE0000
0000FE0000
0000FE0000
0000FE0000
0000FE0000
0000FE0000
0000FE0000
0000000000
0000000000
0000000000
0000000000
FFFFFFFFFE
FFFFFFFFFE
FFFFFFFFFE
FFFFFFFFFE
FFFFFFFFFE
FFFFFFFFFE
FFFFFFFFFE
ENDCHAR
STARTCHAR twosuperior
ENCODING 178
SWIDTH 437 0
DWIDTH 33 0
BBX 23 34 4 23
BITMAP
01FF00
07FFC0
0FFFE0
1FFFF0
3FFFF8
3F83FC
7F00FC
7E00FC
FC007E
FC007E
FC007E
00007E
00007E
0000FC
0001FC
0001F8
0003F8
0007F0
000FE0
000FE0
001FC0
003F80
007F00
00FE00
01FC00
03FC00
03F800
07F000
0FE000
1FFFFE
3FFFFE
7FFFFE
FFFFFE
FFFFFE
ENDCHAR
STARTCHAR threesuperior
ENCODING 179
SWIDTH 437 0
DWIDTH 33 0
BBX 22 35 4 22
BITMAP
01FE00
07FFC0
0FFFE0
1FFFF0
3FFFF0
3F87F8
7F01F8
7E00FC
7E00FC
7C00FC
0000FC
0000FC
0001F8
0003F8
003FF0
003FE0
003FC0
003FF0
003FF8
0003F8
0001FC
0000FC
0000FC
00007C
00007C
F800FC
FC00FC
FC00FC
7E01FC
7F87F8
7FFFF0
3FFFF0
1FFFC0
07FF80
01FC00
ENDCHAR
STARTCHAR acute
ENCODING 180
SWIDTH 565 0
DWIDTH 42 0
BBX 17 16 18 41
BITMAP
006000
00F800
01FE00
01FF80
03FF00
07FE00
0FFC00
0FF800
1FF000
3FE000
7FC000
7F8000
FF0000
FE0000
380000
100000
ENDCHAR
STARTCHAR mu
ENCODING 181
SWIDTH 544 0
DWIDTH 41 0
BBX 31 55 5 -19
BITMAP
FF0003FE
FF0003FE
FF0003FE
FF0003FE
FF0003FE
FF0003FE
FF0003FE
FF0003FE
FF0003FE
FF0003FE
FF0003FE
FF0003FE
FF0003FE
FF0003FE
FF0003FE
FF0003FE
FF0003FE
FF0003FE
FF0003FE
FF0003FE
FF0003FE
FF0003FE
FF0003FE
FF8003FE
FF8003FC
FF8003FC
FFC007FC
FFC007FC
FFE00FFC
FFFC7FF8
FFFFFFF8
FFFFFFF0
FFFFFFE0
FFFFFFC0
FFFFFF80
FF7FFE00
FF1FF000
FF000000
FF000000
FF000000
FF000000
FF000000
FF000000
FF000000
FF000000
FF000000
FF000000
FF000000
FF000000
FF000000
FF000000
FF000000
FF000000
FF000000
FF000000
ENDCHAR
STARTCHAR paragraph
ENCODING 182
SWIDTH 617 0
DWIDTH 46 0
BBX 43 65 1 -8
BITMAP
0001FFFFFFE0
007FFFFFFFE0
01FFFFFFFFC0
07FFFFFFFF80
0FFFFFFFFF80
1FFFFFFFFF00
3FFFFFFFFF00
3FFFFFFFFE00
7FFFFC0FF000
7FFFFC0FF000
7FFFFC0FF000
7FFFFC0FF000
FFFFFC0FF000
FFFFFC0FF000
FFFFFC0FF000
FFFFFC0FF000
FFFFFC0FF000
7FFFFC0FF000
7FFFFC0FF000
7FFFFC0FF000
7FFFFC0FF000
3FFFFC0FF000
3FFFFC0FF000
1FFFFC0FF000
0FFFFC0FF000
07FFFC0FF000
03FFFC0FF000
00FFFC0FF000
001FFC0FF000
0003FC0FF000
0003FC0FF000
0003FC0FF000
0003FC0FF000
0003FC0FF000
0003FC0FF000
0003FC0FF000
0003FC0FF000
0003FC0FF000
0003FC0FF000
0003FC0FF000
0003FC0FF000
0003FC0FF000
0003FC0FF000
0003FC0FF000
0003FC0FF000
0003FC0FF000
0003FC0FF000
0003FC0FF000
0003FC0FF000
0003FC0FF000
0003FC0FF000
0003FC0FF000
0003FC0FF000
0003FC0FF000
0003FC0FF000
0003FC0FF000
0003FC0FF000
0003FC0FF000
0003FC0FF000
0003FC0FF000
0003FC0FF000
0003FC0FF000
0003FC0FF000
0003FC0FF000
0003FC0FF000
ENDCHAR
STARTCHAR periodcentered
ENCODING 183
SWIDTH 308 0
DWIDTH 23 0
BBX 11 10 6 23
BITMAP
1F00
3F80
7FC0
7FE0
FFE0
7FE0
7FC0
7FC0
3F80
0E00
ENDCHAR
STARTCHAR cedilla
ENCODING 184
SWIDTH 565 0
DWIDTH 42 0
BBX 14 13 15 -18
BITMAP
0380
03F0
07FC
0FF8
0FF0
1FE0
3FE0
3FC0
7F80
7F00
FE00
7E00
1C00
ENDCHAR
STARTCHAR onesuperior
ENCODING 185
SWIDTH 437 0
DWIDTH 33 0
BBX 12 34 8 23
BITMAP
1FF0
1FF0
3FF0
3FF0
7FF0
FFF0
03F0
03F0
03F0
03F0
03F0
03F0
03F0
03F0
03F0
03F0
03F0
03F0
03F0
03F0
03F0
03F0
03F0
03F0
03F0
03F0
03F0
03F0
03F0
03F0
03F0
03F0
03F0
03F0
ENDCHAR
STARTCHAR ordmasculine
ENCODING 186
SWIDTH 410 0
DWIDTH 31 0
BBX 24 23 3 33
BITMAP
007F00
03FFE0
07FFF0
0FFFF8
1FFFFC
3F80FE
7F007E
7E003F
7C003F
7C001F
FC001F
FC001F
FC001F
7C001F
7E003F
7E003F
3F007E
3F81FC
1FFFFC
0FFFF8
07FFF0
01FFC0
003E00
ENDCHAR
STARTCHAR guillemotright
ENCODING 187
SWIDTH 575 0
DWIDTH 43 0
BBX 35 37 5 0
BITMAP
0000080000
1C001C0000
3E003C0000
7F00FE0000
FF01FF0000
FF80FF8000
7FC07F8000
3FE03FC000
1FE03FE000
1FF01FF000
0FF80FF000
07FC07F800
03FC07FC00
03FE03FE00
01FF01FF00
00FF80FF00
007F80FF80
007FC07FC0
003FE03FE0
003FE03FC0
007FC07FC0
00FF80FF80
00FF01FF00
01FF01FE00
03FE03FC00
07FC07FC00
07F80FF800
0FF01FF000
1FF01FE000
3FE03FE000
7FC07FC000
7F80FF8000
FF80FF0000
FF00FE0000
3E007E0000
1C001C0000
0800080000
ENDCHAR
STARTCHAR onequarter
ENCODING 188
SWIDTH 967 0
DWIDTH 73 0
BBX 63 59 7 -1
BITMAP
0000000000100000
1FF0000000180000
3FF00000003E0000
3FF00000003E0000
7FF00000007E0000
FFF00000007C0000
FFF0000000F80000
03F0000001F80000
03F0000001F00000
03F0000003F00000
03F0000003E00000
03F0000007C00000
03F0000007C00000
03F000000F800000
03F000001F800000
03F000001F000000
03F000003F000000
03F000003E000000
03F000007C000000
03F00000FC000000
03F00000F8000000
03F00001F8000010
03F00001F0000010
03F00003F0000030
03F00003E0000070
03F00007C00000F0
03F0000FC00000F0
03F0000F800001F0
03F0001F800003F0
03F0001F000003F0
03F0003F000007F0
03F0003E00000FF0
03F0007C00001FF0
03F000FC00001FF0
03F000F800003FF0
000001F800007FF0
000001F000007FF0
000003E00000FFF0
000007E00001FFF0
000007C00003FBF0
00000FC00003F3F0
00000F800007E3F0
00001F80000FE3F0
00001F00000FC3F0
00003E00001F83F0
00007E00003F83F0
00007C00007F03F0
0000FC00007E03F0
0000F80000FFFFFE
0001F80001FFFFFE
0001F00001FFFFFE
0003E00003FFFFFE
0007E00007FFFFFE
0007C000000003F0
000FC000000003F0
000F8000000003F0
001F8000000003F0
00070000000003F0
0002000000000000
ENDCHAR
STARTCHAR onehalf
ENCODING 189
SWIDTH 967 0
DWIDTH 73 0
BBX 61 59 7 -1
BITMAP
0000000000100000
1FF0000000180000
3FF00000003E0000
3FF00000003E0000
7FF00000007E0000
FFF00000007C0000
FFF0000000F80000
03F0000001F80000
03F0000001F00000
03F0000003F00000
03F0000003E00000
03F0000007C00000
03F0000007C00000
03F000000F800000
03F000001F800000
03F000001F000000
03F000003F000000
03F000003E000000
03F000007C000000
03F00000FC000000
03F00000F8000000
03F00001F8000000
03F00001F0000000
03F00003F0004000
03F00003E007FE00
03F00007C01FFF80
03F0000FC03FFFC0
03F0000F807FFFE0
03F0001F80FFFFF0
03F0001F00FE07F0
03F0003F01FC03F8
03F0003E01F801F8
03F0007C01F801F8
03F000FC01F000F8
03F000F801F000F8
000001F8000001F8
000001F0000001F8
000003E0000003F8
000007E0000003F0
000007C0000007F0
00000FC000000FE0
00000F8000001FC0
00001F8000003FC0
00001F0000003F80
00003E0000007F00
00007E000000FE00
00007C000001FC00
0000FC000003F800
0000F8000007F800
0001F8000007F000
0001F000000FE000
0003E000001FC000
0007E000003F8000
0007C000007FFFF8
000FC00000FFFFF8
000F800001FFFFF8
001F800001FFFFF8
0007000003FFFFF8
0002000000000000
ENDCHAR
STARTCHAR threequarters
ENCODING 190
SWIDTH 967 0
DWIDTH 73 0
BBX 68 59 2 -1
BITMAP
000000000000800000
01FF00000000C00000
07FFC0000001F00000
0FFFE0000001F00000
1FFFF0000003E00000
3FFFF8000003E00000
3F83F8000007C00000
3F01FC00000FC00000
7E00FC00000F800000
7E00FC00001F800000
7E00FC00001F000000
0000FC00003E000000
0000FC00007E000000
0000FC00007C000000
0003F80000FC000000
003FF80000F8000000
003FF00001F8000000
003FE00001F0000000
003FF00003E0000000
003FF80007E0000000
0003F80007C0000000
0000FC000FC0000080
0000FC000F80000080
00007C001F80000180
00007E001F00000380
00007E003E00000780
FC007E007E00000780
FC00FC007C00000F80
FE00FC00FC00001F80
7E01FC00F800001F80
7F87F801F000003F80
3FFFF803F000007F80
3FFFF003E00000FF80
1FFFE007E00000FF80
07FF8007C00001FF80
01FE000FC00003FF80
0000000F800003FF80
0000001F000007FF80
0000003F00000FFF80
0000003E00001FDF80
0000007E00001F9F80
0000007C00003F1F80
000000FC00007F1F80
000000F800007E1F80
000001F00000FC1F80
000003F00001FC1F80
000003E00003F81F80
000007E00003F01F80
000007C00007FFFFF0
00000FC0000FFFFFF0
00000F80000FFFFFF0
00001F00001FFFFFF0
00003F00003FFFFFF0
00003E000000001F80
00007E000000001F80
00007C000000001F80
0000F8000000001F80
000038000000001F80
000010000000000000
ENDCHAR
STARTCHAR questiondown
ENCODING 191
SWIDTH 489 0
DWIDTH 37 0
BBX 27 59 5 -14
BITMAP
00040000
003F8000
007F8000
007FC000
00FFC000
00FFC000
00FFC000
007FC000
007FC000
003F8000
00060000
00000000
00000000
00000000
00040000
00FFE000
03FFF800
07FFFC00
0FFFFE00
1FFFFF00
1FFFFF00
3FFFFF80
3FF1FF80
7FE07FC0
7FC07FC0
7FC03FC0
7F803FC0
7F803FC0
00007FC0
0000FFC0
0001FFC0
000FFF80
007FFF80
01FFFF00
07FFFE00
0FFFFC00
1FFFF800
3FFFE000
7FFF0000
7FFC0000
FFE00000
FFC00000
FF801FE0
FF001FE0
FF001FE0
FF001FE0
FF001FE0
FF001FE0
FF803FE0
FF807FE0
7FE0FFC0
7FFFFFC0
3FFFFF80
3FFFFF80
1FFFFF00
0FFFFE00
07FFF800
01FFF000
001F8000
ENDCHAR
STARTCHAR Agrave
ENCODING 192
SWIDTH 740 0
DWIDTH 56 0
BBX 54 76 1 0
BITMAP
00001C00000000
00003E00000000
0000FF00000000
0001FF80000000
0003FFC0000000
0000FFE0000000
00007FF0000000
00001FF8000000
00000FFC000000
000003FE000000
000001FF000000
0000007F000000
0000003E000000
0000000C000000
00000000000000
00000000000000
00000010000000
00000010000000
00000030000000
00000038000000
00000078000000
0000007C000000
000000FC000000
000000FE000000
000001FE000000
000001FF000000
000003FF000000
000003FF000000
000007FF800000
000007FF800000
00000FFFC00000
00000FFFC00000
00000FFFE00000
00001FFFE00000
00001FFFF00000
00003FFFF00000
00003FCFF80000
00007FCFF80000
00007FC7F80000
0000FF87FC0000
0000FF83FC0000
0001FF03FE0000
0001FF03FE0000
0003FE01FF0000
0003FE01FF0000
0007FC00FF8000
0007FC00FF8000
0007F8007F8000
000FF8007FC000
000FF8007FC000
001FF0003FE000
001FF0003FE000
003FE0001FF000
003FE0001FF000
007FFFFFFFF800
007FFFFFFFF800
00FFFFFFFFFC00
00FFFFFFFFFC00
01FFFFFFFFFC00
01FFFFFFFFFE00
03FFFFFFFFFE00
03FFFFFFFFFF00
03FE000001FF00
07FC000000FF80
07FC000000FF80
0FF8000000FFC0
0FF80000007FC0
1FF00000007FC0
1FF00000003FE0
3FE00000003FE0
3FE00000001FF0
7FE00000001FF0
7FC00000001FF8
FFC00000000FF8
FF800000000FFC
FF8000000007FC
ENDCHAR
STARTCHAR Aacute
ENCODING 193
SWIDTH 740 0
DWIDTH 56 0
BBX 54 76 1 0
BITMAP
00000000E00000
00000001F00000
00000003FC0000
00000007FE0000
0000000FFF0000
0000001FFC0000
0000003FF80000
0000007FE00000
000000FFC00000
000001FF000000
000003FE000000
000003FC000000
000001F0000000
000000E0000000
00000000000000
00000000000000
00000010000000
00000010000000
00000030000000
00000038000000
00000078000000
0000007C000000
000000FC000000
000000FE000000
000001FE000000
000001FF000000
000003FF000000
000003FF000000
000007FF800000
000007FF800000
00000FFFC00000
00000FFFC00000
00000FFFE00000
00001FFFE00000
00001FFFF00000
00003FFFF00000
00003FCFF80000
00007FCFF80000
00007FC7F80000
0000FF87FC0000
0000FF83FC0000
0001FF03FE0000
0001FF03FE0000
0003FE01FF0000
0003FE01FF0000
0007FC00FF8000
0007FC00FF8000
0007F8007F8000
000FF8007FC000
000FF8007FC000
001FF0003FE000
001FF0003FE000
003FE0001FF000
003FE0001FF000
007FFFFFFFF800
007FFFFFFFF800
00FFFFFFFFFC00
00FFFFFFFFFC00
01FFFFFFFFFC00
01FFFFFFFFFE00
03FFFFFFFFFE00
03FFFFFFFFFF00
03FE000001FF00
07FC000000FF80
07FC000000FF80
0FF8000000FFC0
0FF80000007FC0
1FF00000007FC0
1FF00000003FE0
3FE00000003FE0
3FE00000001FF0
7FE00000001FF0
7FC00000001FF8
FFC00000000FF8
FF800000000FFC
FF8000000007FC
ENDCHAR
STARTCHAR Acircumflex
ENCODING 194
SWIDTH 740 0
DWIDTH 56 0
BBX 54 78 1 0
BITMAP
00000010000000
00000038000000
0000007C000000
000000FE000000
000001FF000000
000003FF800000
00000FFFC00000
00001FFFE00000
00003FFFF00000
00007FFFFC0000
0000FFCFFE0000
0001FF87FF0000
0001FF01FF0000
0000FE00FC0000
00003C00780000
00001800300000
00000000000000
00000000000000
00000010000000
00000010000000
00000030000000
00000038000000
00000078000000
0000007C000000
000000FC000000
000000FE000000
000001FE000000
000001FF000000
000003FF000000
000003FF000000
000007FF800000
000007FF800000
00000FFFC00000
00000FFFC00000
00000FFFE00000
00001FFFE00000
00001FFFF00000
00003FFFF00000
00003FCFF80000
00007FCFF80000
00007FC7F80000
0000FF87FC0000
0000FF83FC0000
0001FF03FE0000
0001FF03FE0000
0003FE01FF0000
0003FE01FF0000
0007FC00FF8000
0007FC00FF8000
0007F8007F8000
000FF8007FC000
000FF8007FC000
001FF0003FE000
001FF0003FE000
003FE0001FF000
003FE0001FF000
007FFFFFFFF800
007FFFFFFFF800
00FFFFFFFFFC00
00FFFFFFFFFC00
01FFFFFFFFFC00
01FFFFFFFFFE00
03FFFFFFFFFE00
03FFFFFFFFFF00
03FE000001FF00
07FC000000FF80
07FC000000FF80
0FF8000000FFC0
0FF80000007FC0
1FF00000007FC0
1FF00000003FE0
3FE00000003FE0
3FE00000001FF0
7FE00000001FF0
7FC00000001FF8
FFC00000000FF8
FF800000000FFC
FF8000000007FC
ENDCHAR
STARTCHAR Atilde
ENCODING 195
SWIDTH 740 0
DWIDTH 56 0
BBX 54 73 1 0
BITMAP
00003F80040000
00007FF00F0000
0000FFFC0F8000
0001FFFF3FC000
0003FFFFFFC000
0007FFFFFF8000
000FFFFFFF8000
0007F1FFFF0000
0003E03FFE0000
0001C00FF80000
00000001C00000
00000000000000
00000000000000
00000010000000
00000010000000
00000030000000
00000038000000
00000078000000
0000007C000000
000000FC000000
000000FE000000
000001FE000000
000001FF000000
000003FF000000
000003FF000000
000007FF800000
000007FF800000
00000FFFC00000
00000FFFC00000
00000FFFE00000
00001FFFE00000
00001FFFF00000
00003FFFF00000
00003FCFF80000
00007FCFF80000
00007FC7F80000
0000FF87FC0000
0000FF83FC0000
0001FF03FE0000
0001FF03FE0000
0003FE01FF0000
0003FE01FF0000
0007FC00FF8000
0007FC00FF8000
0007F8007F8000
000FF8007FC000
000FF8007FC000
001FF0003FE000
001FF0003FE000
003FE0001FF000
003FE0001FF000
007FFFFFFFF800
007FFFFFFFF800
00FFFFFFFFFC00
00FFFFFFFFFC00
01FFFFFFFFFC00
01FFFFFFFFFE00
03FFFFFFFFFE00
03FFFFFFFFFF00
03FE000001FF00
07FC000000FF80
07FC000000FF80
0FF8000000FFC0
0FF80000007FC0
1FF00000007FC0
1FF00000003FE0
3FE00000003FE0
3FE00000001FF0
7FE00000001FF0
7FC00000001FF8
FFC00000000FF8
FF800000000FFC
FF8000000007FC
ENDCHAR
STARTCHAR Adieresis
ENCODING 196
SWIDTH 740 0
DWIDTH 56 0
BBX 54 73 1 0
BITMAP
00003000380000
0000FC00FE0000
0001FE01FF0000
0003FF01FF0000
0003FF03FF8000
0003FF03FF8000
0003FF03FF8000
0003FF01FF0000
0001FE01FF0000
0000FC00FE0000
00003800380000
00000000000000
00000000000000
00000010000000
00000010000000
00000030000000
00000038000000
00000078000000
0000007C000000
000000FC000000
000000FE000000
000001FE000000
000001FF000000
000003FF000000
000003FF000000
000007FF800000
000007FF800000
00000FFFC00000
00000FFFC00000
00000FFFE00000
00001FFFE00000
00001FFFF00000
00003FFFF00000
00003FCFF80000
00007FCFF80000
00007FC7F80000
0000FF87FC0000
0000FF83FC0000
0001FF03FE0000
0001FF03FE0000
0003FE01FF0000
0003FE01FF0000
0007FC00FF8000
0007FC00FF8000
0007F8007F8000
000FF8007FC000
000FF8007FC000
001FF0003FE000
001FF0003FE000
003FE0001FF000
003FE0001FF000
007FFFFFFFF800
007FFFFFFFF800
00FFFFFFFFFC00
00FFFFFFFFFC00
01FFFFFFFFFC00
01FFFFFFFFFE00
03FFFFFFFFFE00
03FFFFFFFFFF00
03FE000001FF00
07FC000000FF80
07FC000000FF80
0FF8000000FFC0
0FF80000007FC0
1FF00000007FC0
1FF00000003FE0
3FE00000003FE0
3FE00000001FF0
7FE00000001FF0
7FC00000001FF8
FFC00000000FF8
FF800000000FFC
FF8000000007FC
ENDCHAR
STARTCHAR Aring
ENCODING 197
SWIDTH 740 0
DWIDTH 56 0
BBX 54 78 1 0
BITMAP
00000038000000
000001FE000000
000003FF800000
000007FFC00000
00000FFFC00000
00000F83E00000
00000F03E00000
00001F01E00000
00001F01E00000
00001F01E00000
00000F03E00000
00000FC7E00000
000007FFC00000
000007FF800000
000003FF000000
000000FE000000
00000000000000
00000000000000
00000010000000
00000010000000
00000030000000
00000038000000
00000078000000
0000007C000000
000000FC000000
000000FE000000
000001FE000000
000001FF000000
000003FF000000
000003FF000000
000007FF800000
000007FF800000
00000FFFC00000
00000FFFC00000
00000FFFE00000
00001FFFE00000
00001FFFF00000
00003FFFF00000
00003FCFF80000
00007FCFF80000
00007FC7F80000
0000FF87FC0000
0000FF83FC0000
0001FF03FE0000
0001FF03FE0000
0003FE01FF0000
0003FE01FF0000
0007FC00FF8000
0007FC00FF8000
0007F8007F8000
000FF8007FC000
000FF8007FC000
001FF0003FE000
001FF0003FE000
003FE0001FF000
003FE0001FF000
007FFFFFFFF800
007FFFFFFFF800
00FFFFFFFFFC00
00FFFFFFFFFC00
01FFFFFFFFFC00
01FFFFFFFFFE00
03FFFFFFFFFE00
03FFFFFFFFFF00
03FE000001FF00
07FC000000FF80
07FC000000FF80
0FF8000000FFC0
0FF80000007FC0
1FF00000007FC0
1FF00000003FE0
3FE00000003FE0
3FE00000001FF0
7FE00000001FF0
7FC00000001FF8
FFC00000000FF8
FF800000000FFC
FF8000000007FC
ENDCHAR
STARTCHAR AE
ENCODING 198
SWIDTH 1047 0
DWIDTH 79 0
BBX 76 57 1 0
BITMAP
0000001FFFFFF0000000
0000003FFFFFF0000000
0000003FFFFFF8000000
0000003FFFFFF8000000
0000007FFFFFFC000000
0000007FFFFFFC000000
000000FFFFFFFE000000
000000FFFFFFFE000000
000001FF800000000000
000001FF800000000000
000003FFC00000000000
000003FFC00000000000
000007FFE00000000000
000007FFE00000000000
00000FFFF00000000000
00000FFFF00000000000
00001FFFF80000000000
00001FFFF80000000000
00003FE7F80000000000
00003FE7FC0000000000
00007FC7FC0000000000
00007FC3FE0000000000
0000FF83FFFFFFF80000
0000FF81FFFFFFFC0000
0001FF01FFFFFFFC0000
0001FF00FFFFFFFC0000
0003FE00FFFFFFFE0000
0003FE00FFFFFFFE0000
0003FC007FFFFFFF0000
0007FC007FFFFFFF0000
0007FC003FE000000000
000FF8003FE000000000
000FF8001FF000000000
001FF0001FF000000000
001FF0000FF000000000
003FFFFFFFF800000000
003FFFFFFFF800000000
007FFFFFFFFC00000000
007FFFFFFFFC00000000
00FFFFFFFFFE00000000
00FFFFFFFFFE00000000
01FFFFFFFFFE00000000
01FFFFFFFFFF00000000
03FE000001FF00000000
03FE000000FF80000000
07FC000000FF80000000
07FC0000007FC0000000
0FFC0000007FC0000000
0FF80000003FC0000000
1FF80000003FFFFFFF80
1FF00000003FFFFFFFC0
3FF00000001FFFFFFFC0
3FE00000001FFFFFFFE0
3FE00000000FFFFFFFE0
7FC00000000FFFFFFFF0
7FC000000007FFFFFFF0
FF8000000007FFFFFFF0
ENDCHAR
STARTCHAR Ccedilla
ENCODING 199
SWIDTH 700 0
DWIDTH 53 0
BBX 45 77 4 -19
BITMAP
0000001F8000
000007FFFC00
00003FFFFF80
0000FFFFFFE0
0003FFFFFFF8
0007FFFFFFF8
001FFFFFFFF8
003FFFFFFFF8
007FFFF3FFF8
00FFFE000FF8
01FFF00003F8
03FFC00000F8
03FF80000038
07FF00000018
0FFE00000008
0FFC00000000
1FF800000000
1FF000000000
3FF000000000
3FE000000000
7FE000000000
7FC000000000
7FC000000000
7F8000000000
FF8000000000
FF8000000000
FF8000000000
FF8000000000
FF8000000000
FF8000000000
FF8000000000
FF8000000000
FF8000000000
FF8000000000
FF8000000000
FF8000000000
7FC000000000
7FC000000000
7FC000000000
7FE000000000
3FE000000000
3FF000000000
1FF000000000
1FF800000000
0FFC00000000
0FFE00000018
07FF00000038
03FFC0000078
01FFE00001F8
01FFF80007F8
00FFFF003FF8
007FFFFFFFF8
001FFFFFFFF8
000FFFFFFFF8
0007FFFFFFF8
0001FFFFFFE0
00007FFFFF80
00001FFFFE00
000001FFE000
000000000000
000000000000
000000000000
000000000000
000000700000
000000FC0000
000000FF0000
000001FF0000
000003FE0000
000003FE0000
000007FC0000
00000FF80000
00000FF00000
00001FE00000
00003FC00000
00001FC00000
000007800000
000003000000
ENDCHAR
STARTCHAR Egrave
ENCODING 200
SWIDTH 565 0
DWIDTH 42 0
BBX 31 77 7 0
BITMAP
00100000
00380000
00FC0000
01FE0000
07FF0000
07FF8000
03FFC000
00FFE000
007FF000
001FF800
000FFC00
0007FE00
0001FE00
0000F800
00003000
00000000
00000000
00000000
00000000
00000000
FFFFFFFE
FFFFFFFE
FFFFFFFE
FFFFFFFE
FFFFFFFE
FFFFFFFE
FFFFFFFE
FFFFFFFE
FF000000
FF000000
FF000000
FF000000
FF000000
FF000000
FF000000
FF000000
FF000000
FF000000
FF000000
FF000000
FF000000
FF000000
FFFFFFFC
FFFFFFFC
FFFFFFFC
FFFFFFFC
FFFFFFFC
FFFFFFFC
FFFFFFFC
FFFFFFFC
FF000000
FF000000
FF000000
FF000000
FF000000
FF000000
FF000000
FF000000
FF000000
FF000000
FF000000
FF000000
FF000000
FF000000
FF000000
FF000000
FF000000
FF000000
FF000000
FFFFFFFE
FFFFFFFE
FFFFFFFE
FFFFFFFE
FFFFFFFE
FFFFFFFE
FFFFFFFE
FFFFFFFE
ENDCHAR
STARTCHAR Eacute
ENCODING 201
SWIDTH 565 0
DWIDTH 42 0
BBX 31 76 7 0
BITMAP
00000E00
00001F00
00003FC0
00007FE0
0000FFF0
0001FFC0
0003FF80
0007FE00
000FFC00
001FF000
003FE000
003FC000
001F0000
000E0000
00000000
00000000
00000000
00000000
00000000
FFFFFFFE
FFFFFFFE
FFFFFFFE
FFFFFFFE
FFFFFFFE
FFFFFFFE
FFFFFFFE
FFFFFFFE
FF000000
FF000000
FF000000
FF000000
FF000000
FF000000
FF000000
FF000000
FF000000
FF000000
FF000000
FF000000
FF000000
FF000000
FFFFFFFC
FFFFFFFC
FFFFFFFC
FFFFFFFC
FFFFFFFC
FFFFFFFC
FFFFFFFC
FFFFFFFC
FF000000
FF000000
FF000000
FF000000
FF000000
FF000000
FF000000
FF000000
FF000000
FF000000
FF000000
FF000000
FF000000
FF000000
FF000000
FF000000
FF000000
FF000000
FF000000
FFFFFFFE
FFFFFFFE
FFFFFFFE
FFFFFFFE
FFFFFFFE
FFFFFFFE
FFFFFFFE
FFFFFFFE
ENDCHAR
STARTCHAR Ecircumflex
ENCODING 202
SWIDTH 565 0
DWIDTH 42 0
BBX 31 78 7 0
BITMAP
00010000
00038000
0007C000
000FE000
001FF000
003FF800
007FFC00
01FFFE00
03FFFF80
07FFFFC0
0FFC7FE0
1FF83FF0
1FF01FF0
0FE00FE0
03C00780
01800300
00000000
00000000
00000000
00000000
00000000
FFFFFFFE
FFFFFFFE
FFFFFFFE
FFFFFFFE
FFFFFFFE
FFFFFFFE
FFFFFFFE
FFFFFFFE
FF000000
FF000000
FF000000
FF000000
FF000000
FF000000
FF000000
FF000000
FF000000
FF000000
FF000000
FF000000
FF000000
FF000000
FFFFFFFC
FFFFFFFC
FFFFFFFC
FFFFFFFC
FFFFFFFC
FFFFFFFC
FFFFFFFC
FFFFFFFC
FF000000
FF000000
FF000000
FF000000
FF000000
FF000000
FF000000
FF000000
FF000000
FF000000
FF000000
FF000000
FF000000
FF000000
FF000000
FF000000
FF000000
FF000000
FF000000
FFFFFFFE
FFFFFFFE
FFFFFFFE
FFFFFFFE
FFFFFFFE
FFFFFFFE
FFFFFFFE
FFFFFFFE
ENDCHAR
STARTCHAR Edieresis
ENCODING 203
SWIDTH 565 0
DWIDTH 42 0
BBX 31 73 7 0
BITMAP
03800180
0FE00FE0
1FF00FF0
1FF01FF8
3FF81FF8
3FF81FF8
3FF81FF8
1FF01FF8
1FF00FF0
0FE00FE0
03800380
00000000
00000000
00000000
00000000
00000000
FFFFFFFE
FFFFFFFE
FFFFFFFE
FFFFFFFE
FFFFFFFE
FFFFFFFE
FFFFFFFE
FFFFFFFE
FF000000
FF000000
FF000000
FF000000
FF000000
FF000000
FF000000
FF000000
FF000000
FF000000
FF000000
FF000000
FF000000
FF000000
FFFFFFFC
FFFFFFFC
FFFFFFFC
FFFFFFFC
FFFFFFFC
FFFFFFFC
FFFFFFFC
FFFFFFFC
FF000000
FF000000
FF000000
FF000000
FF000000
FF000000
FF000000
FF000000
FF000000
FF000000
FF000000
FF000000
FF000000
FF000000
FF000000
FF000000
FF000000
FF000000
FF000000
FFFFFFFE
FFFFFFFE
FFFFFFFE
FFFFFFFE
FFFFFFFE
FFFFFFFE
FFFFFFFE
FFFFFFFE
ENDCHAR
STARTCHAR Igrave
ENCODING 204
SWIDTH 294 0
DWIDTH 22 0
BBX 17 77 -2 0
BITMAP
020000
0F0000
1F8000
3F8000
FFC000
FFE000
7FF000
3FF800
0FFC00
07FE00
01FF00
00FF80
007F80
001F00
000C00
000000
000000
000000
000000
000000
007F80
007F80
007F80
007F80
007F80
007F80
007F80
007F80
007F80
007F80
007F80
007F80
007F80
007F80
007F80
007F80
007F80
007F80
007F80
007F80
007F80
007F80
007F80
007F80
007F80
007F80
007F80
007F80
007F80
007F80
007F80
007F80
007F80
007F80
007F80
007F80
007F80
007F80
007F80
007F80
007F80
007F80
007F80
007F80
007F80
007F80
007F80
007F80
007F80
007F80
007F80
007F80
007F80
007F80
007F80
007F80
007F80
ENDCHAR
STARTCHAR Iacute
ENCODING 205
SWIDTH 294 0
DWIDTH 22 0
BBX 17 77 7 0
BITMAP
002000
003800
007C00
00FE00
01FF80
03FF80
07FF00
0FFE00
1FF800
3FF000
7FE000
FF8000
FF0000
3C0000
180000
000000
000000
000000
000000
000000
FF0000
FF0000
FF0000
FF0000
FF0000
FF0000
FF0000
FF0000
FF0000
FF0000
FF0000
FF0000
FF0000
FF0000
FF0000
FF0000
FF0000
FF0000
FF0000
FF0000
FF0000
FF0000
FF0000
FF0000
FF0000
FF0000
FF0000
FF0000
FF0000
FF0000
FF0000
FF0000
FF0000
FF0000
FF0000
FF0000
FF0000
FF0000
FF0000
FF0000
FF0000
FF0000
FF0000
FF0000
FF0000
FF0000
FF0000
FF0000
FF0000
FF0000
FF0000
FF0000
FF0000
FF0000
FF0000
FF0000
FF0000
ENDCHAR
STARTCHAR Icircumflex
ENCODING 206
SWIDTH 294 0
DWIDTH 22 0
BBX 24 77 -1 0
BITMAP
001800
003C00
00FF00
01FF80
03FFC0
07FFE0
0FFFF0
1FFFF8
3FFFFC
7FE7FE
FFC3FF
FF81FF
7F00FE
3E007C
0C0038
000000
000000
000000
000000
000000
00FF00
00FF00
00FF00
00FF00
00FF00
00FF00
00FF00
00FF00
00FF00
00FF00
00FF00
00FF00
00FF00
00FF00
00FF00
00FF00
00FF00
00FF00
00FF00
00FF00
00FF00
00FF00
00FF00
00FF00
00FF00
00FF00
00FF00
00FF00
00FF00
00FF00
00FF00
00FF00
00FF00
00FF00
00FF00
00FF00
00FF00
00FF00
00FF00
00FF00
00FF00
00FF00
00FF00
00FF00
00FF00
00FF00
00FF00
00FF00
00FF00
00FF00
00FF00
00FF00
00FF00
00FF00
00FF00
00FF00
00FF00
ENDCHAR
STARTCHAR Idieresis
ENCODING 207
SWIDTH 294 0
DWIDTH 22 0
BBX 24 73 -1 0
BITMAP
0C0078
3F00FC
7F81FE
FFC3FF
FFC3FF
FFC3FF
FFC3FF
FFC3FF
7F81FE
3F80FC
0E0070
000000
000000
000000
000000
000000
00FF00
00FF00
00FF00
00FF00
00FF00
00FF00
00FF00
00FF00
00FF00
00FF00
00FF00
00FF00
00FF00
00FF00
00FF00
00FF00
00FF00
00FF00
00FF00
00FF00
00FF00
00FF00
00FF00
00FF00
00FF00
00FF00
00FF00
00FF00
00FF00
00FF00
00FF00
00FF00
00FF00
00FF00
00FF00
00FF00
00FF00
00FF00
00FF00
00FF00
00FF00
00FF00
00FF00
00FF00
00FF00
00FF00
00FF00
00FF00
00FF00
00FF00
00FF00
00FF00
00FF00
00FF00
00FF00
00FF00
00FF00
ENDCHAR
STARTCHAR Eth
ENCODING 208
SWIDTH 726 0
DWIDTH 54 0
BBX 48 57 2 0
BITMAP
07FF80000000
07FFFFF00000
07FFFFFE0000
07FFFFFFC000
07FFFFFFE000
07FFFFFFF800
07FFFFFFFC00
07FFFFFFFE00
07F87FFFFF80
07F8003FFFC0
07F80007FFC0
07F80001FFE0
07F80000FFF0
07F800007FF8
07F800001FF8
07F800001FFC
07F800000FFC
07F8000007FE
07F8000007FE
07F8000003FE
07F8000003FE
07F8000001FF
07F8000001FF
07F8000001FF
FFFFFF8000FF
FFFFFF8000FF
FFFFFF8000FF
FFFFFF8000FF
FFFFFF8000FF
FFFFFF8000FF
FFFFFF8000FF
07F8000000FF
07F8000000FF
07F8000001FF
07F8000001FF
07F8000001FF
07F8000001FF
07F8000003FE
07F8000003FE
07F8000007FE
07F800000FFC
07F800000FFC
07F800001FF8
07F800003FF8
07F800007FF0
07F80001FFE0
07F80003FFE0
07F8001FFFC0
07F800FFFF80
07FFFFFFFF00
07FFFFFFFE00
07FFFFFFF800
07FFFFFFF000
07FFFFFFC000
07FFFFFF0000
07FFFFFC0000
07FFFF800000
ENDCHAR
STARTCHAR Ntilde
ENCODING 209
SWIDTH 844 0
DWIDTH 63 0
BBX 50 76 7 -3
BITMAP
0000FC00300000
0003FF80380000
0007FFE07C0000
000FFFF9FE0000
001FFFFFFE0000
003FFFFFFC0000
003FFFFFFC0000
003F87FFF80000
000F01FFF00000
0006007FC00000
0000000E000000
00000000000000
00000000000000
80000000000000
C0000000000000
E0000000000000
E0000000007FC0
F0000000007FC0
F8000000007FC0
FC000000007FC0
FE000000007FC0
FF000000007FC0
FF800000007FC0
FFC00000007FC0
FFE00000007FC0
FFF00000007FC0
FFF80000007FC0
FFFC0000007FC0
FFFE0000007FC0
FFFF0000007FC0
FFFF8000007FC0
FFFFC000007FC0
FFFFE000007FC0
FFFFF000007FC0
FF7FF800007FC0
FF3FFC00007FC0
FF1FFE00007FC0
FF0FFF00007FC0
FF07FF80007FC0
FF03FFC0007FC0
FF01FFC0007FC0
FF00FFE0007FC0
FF007FF0007FC0
FF003FF8007FC0
FF001FFC007FC0
FF000FFE007FC0
FF0007FF007FC0
FF0003FF807FC0
FF0001FFC07FC0
FF0000FFE07FC0
FF00007FF07FC0
FF00003FF87FC0
FF00001FFC7FC0
FF00000FFE7FC0
FF000007FF7FC0
FF000007FFFFC0
FF000003FFFFC0
FF000001FFFFC0
FF000000FFFFC0
FF0000007FFFC0
FF0000003FFFC0
FF0000001FFFC0
FF0000000FFFC0
FF00000007FFC0
FF00000003FFC0
FF00000001FFC0
FF00000000FFC0
FF000000007FC0
FF000000003FC0
FF000000001FC0
FF000000000FC0
FF0000000007C0
FF0000000003C0
000000000001C0
000000000000C0
00000000000040
ENDCHAR
STARTCHAR Ograve
ENCODING 210
SWIDTH 893 0
DWIDTH 67 0
BBX 59 78 4 -1
BITMAP
0000008000000000
000001C000000000
000007E000000000
00000FF000000000
00003FF800000000
00003FFC00000000
00001FFE00000000
000007FF00000000
000003FF80000000
000000FFC0000000
0000007FE0000000
0000003FF0000000
0000000FF0000000
00000007C0000000
0000000180000000
0000000000000000
0000000000000000
0000000000000000
0000000000000000
0000001F00000000
000007FFFC000000
00003FFFFF800000
0000FFFFFFE00000
0003FFFFFFF80000
0007FFFFFFFC0000
000FFFFFFFFF0000
003FFFFFFFFF8000
007FFFFBFFFFC000
00FFFE000FFFE000
01FFF00001FFF000
03FFC000007FF800
03FF8000003FF800
07FF0000001FFC00
0FFE0000000FFE00
0FFC00000007FE00
1FF800000003FF00
1FF000000001FF00
3FE000000001FF80
3FE000000000FF80
7FC0000000007FC0
7FC0000000007FC0
7FC0000000007FC0
7F80000000003FC0
FF80000000003FE0
FF80000000003FE0
FF80000000003FE0
FF80000000003FE0
FF80000000003FE0
FF80000000003FE0
FF80000000003FE0
FF80000000003FE0
FF80000000003FE0
FF80000000003FE0
FF80000000003FE0
FF80000000003FE0
7FC0000000007FC0
7FC0000000007FC0
7FC0000000007FC0
7FE000000000FFC0
3FE000000000FF80
3FF000000001FF80
1FF800000003FF00
1FF800000003FF00
0FFC00000007FE00
0FFE0000000FFC00
07FF8000001FFC00
03FFC000007FF800
01FFF00000FFF000
00FFFC0003FFE000
00FFFF803FFFC000
003FFFFFFFFF8000
001FFFFFFFFF0000
000FFFFFFFFE0000
0003FFFFFFF80000
0001FFFFFFF00000
00007FFFFFC00000
00000FFFFE000000
000000FFE0000000
ENDCHAR
STARTCHAR Oacute
ENCODING 211
SWIDTH 893 0
DWIDTH 67 0
BBX 59 78 4 -1
BITMAP
0000000010000000
0000000038000000
000000007E000000
00000000FF000000
00000001FF800000
00000003FFC00000
00000007FF800000
0000000FFE000000
0000001FFC000000
0000003FF0000000
0000007FE0000000
000000FF80000000
000000FF00000000
0000007C00000000
0000001800000000
0000000000000000
0000000000000000
0000000000000000
0000000000000000
0000001F00000000
000007FFFC000000
00003FFFFF800000
0000FFFFFFE00000
0003FFFFFFF80000
0007FFFFFFFC0000
000FFFFFFFFF0000
003FFFFFFFFF8000
007FFFFBFFFFC000
00FFFE000FFFE000
01FFF00001FFF000
03FFC000007FF800
03FF8000003FF800
07FF0000001FFC00
0FFE0000000FFE00
0FFC00000007FE00
1FF800000003FF00
1FF000000001FF00
3FE000000001FF80
3FE000000000FF80
7FC0000000007FC0
7FC0000000007FC0
7FC0000000007FC0
7F80000000003FC0
FF80000000003FE0
FF80000000003FE0
FF80000000003FE0
FF80000000003FE0
FF80000000003FE0
FF80000000003FE0
FF80000000003FE0
FF80000000003FE0
FF80000000003FE0
FF80000000003FE0
FF80000000003FE0
FF80000000003FE0
7FC0000000007FC0
7FC0000000007FC0
7FC0000000007FC0
7FE000000000FFC0
3FE000000000FF80
3FF000000001FF80
1FF800000003FF00
1FF800000003FF00
0FFC00000007FE00
0FFE0000000FFC00
07FF8000001FFC00
03FFC000007FF800
01FFF00000FFF000
00FFFC0003FFE000
00FFFF803FFFC000
003FFFFFFFFF8000
001FFFFFFFFF0000
000FFFFFFFFE0000
0003FFFFFFF80000
0001FFFFFFF00000
00007FFFFFC00000
00000FFFFE000000
000000FFE0000000
ENDCHAR
STARTCHAR Ocircumflex
ENCODING 212
SWIDTH 893 0
DWIDTH 67 0
BBX 59 79 4 -1
BITMAP
0000000400000000
0000000E00000000
0000001F00000000
0000003F80000000
0000007FC0000000
000000FFF0000000
000001FFF8000000
000003FFFC000000
000007FFFE000000
00000FFFFF000000
00003FF9FF800000
00007FF0FFC00000
00007FC07FC00000
00001F803F800000
00000F001F000000
000006000C000000
0000000000000000
0000000000000000
0000000000000000
0000000000000000
0000001F00000000
000007FFFC000000
00003FFFFF800000
0000FFFFFFE00000
0003FFFFFFF80000
0007FFFFFFFC0000
000FFFFFFFFF0000
003FFFFFFFFF8000
007FFFFBFFFFC000
00FFFE000FFFE000
01FFF00001FFF000
03FFC000007FF800
03FF8000003FF800
07FF0000001FFC00
0FFE0000000FFE00
0FFC00000007FE00
1FF800000003FF00
1FF000000001FF00
3FE000000001FF80
3FE000000000FF80
7FC0000000007FC0
7FC0000000007FC0
7FC0000000007FC0
7F80000000003FC0
FF80000000003FE0
FF80000000003FE0
FF80000000003FE0
FF80000000003FE0
FF80000000003FE0
FF80000000003FE0
FF80000000003FE0
FF80000000003FE0
FF80000000003FE0
FF80000000003FE0
FF80000000003FE0
FF80000000003FE0
7FC0000000007FC0
7FC0000000007FC0
7FC0000000007FC0
7FE000000000FFC0
3FE000000000FF80
3FF000000001FF80
1FF800000003FF00
1FF800000003FF00
0FFC00000007FE00
0FFE0000000FFC00
07FF8000001FFC00
03FFC000007FF800
01FFF00000FFF000
00FFFC0003FFE000
00FFFF803FFFC000
003FFFFFFFFF8000
001FFFFFFFFF0000
000FFFFFFFFE0000
0003FFFFFFF80000
0001FFFFFFF00000
00007FFFFFC00000
00000FFFFE000000
000000FFE0000000
ENDCHAR
STARTCHAR Otilde
ENCODING 213
SWIDTH 893 0
DWIDTH 67 0
BBX 59 74 4 -1
BITMAP
00000FC001000000
00003FF803800000
00007FFE07C00000
0000FFFFCFE00000
0001FFFFFFE00000
0003FFFFFFE00000
0003FFFFFFC00000
0001F87FFF800000
0000F01FFF000000
00006007FE000000
0000200060000000
0000000000000000
0000000000000000
0000000000000000
0000000000000000
0000001F00000000
000007FFFC000000
00003FFFFF800000
0000FFFFFFE00000
0003FFFFFFF80000
0007FFFFFFFC0000
000FFFFFFFFF0000
003FFFFFFFFF8000
007FFFFBFFFFC000
00FFFE000FFFE000
01FFF00001FFF000
03FFC000007FF800
03FF8000003FF800
07FF0000001FFC00
0FFE0000000FFE00
0FFC00000007FE00
1FF800000003FF00
1FF000000001FF00
3FE000000001FF80
3FE000000000FF80
7FC0000000007FC0
7FC0000000007FC0
7FC0000000007FC0
7F80000000003FC0
FF80000000003FE0
FF80000000003FE0
FF80000000003FE0
FF80000000003FE0
FF80000000003FE0
FF80000000003FE0
FF80000000003FE0
FF80000000003FE0
FF80000000003FE0
FF80000000003FE0
FF80000000003FE0
FF80000000003FE0
7FC0000000007FC0
7FC0000000007FC0
7FC0000000007FC0
7FE000000000FFC0
3FE000000000FF80
3FF000000001FF80
1FF800000003FF00
1FF800000003FF00
0FFC00000007FE00
0FFE0000000FFC00
07FF8000001FFC00
03FFC000007FF800
01FFF00000FFF000
00FFFC0003FFE000
00FFFF803FFFC000
003FFFFFFFFF8000
001FFFFFFFFF0000
000FFFFFFFFE0000
0003FFFFFFF80000
0001FFFFFFF00000
00007FFFFFC00000
00000FFFFE000000
000000FFE0000000
ENDCHAR
STARTCHAR Odieresis
ENCODING 214
SWIDTH 893 0
DWIDTH 67 0
BBX 59 74 4 -1
BITMAP
00000E0006000000
00003F803F800000
00007FC03FC00000
00007FC07FE00000
0000FFC07FE00000
0000FFE07FE00000
0000FFE07FE00000
00007FC07FE00000
00007FC07FC00000
00003F803F800000
00000E000E000000
0000000000000000
0000000000000000
0000000000000000
0000000000000000
0000001F00000000
000007FFFC000000
00003FFFFF800000
0000FFFFFFE00000
0003FFFFFFF80000
0007FFFFFFFC0000
000FFFFFFFFF0000
003FFFFFFFFF8000
007FFFFBFFFFC000
00FFFE000FFFE000
01FFF00001FFF000
03FFC000007FF800
03FF8000003FF800
07FF0000001FFC00
0FFE0000000FFE00
0FFC00000007FE00
1FF800000003FF00
1FF000000001FF00
3FE000000001FF80
3FE000000000FF80
7FC0000000007FC0
7FC0000000007FC0
7FC0000000007FC0
7F80000000003FC0
FF80000000003FE0
FF80000000003FE0
FF80000000003FE0
FF80000000003FE0
FF80000000003FE0
FF80000000003FE0
FF80000000003FE0
FF80000000003FE0
FF80000000003FE0
FF80000000003FE0
FF80000000003FE0
FF80000000003FE0
7FC0000000007FC0
7FC0000000007FC0
7FC0000000007FC0
7FE000000000FFC0
3FE000000000FF80
3FF000000001FF80
1FF800000003FF00
1FF800000003FF00
0FFC00000007FE00
0FFE0000000FFC00
07FF8000001FFC00
03FFC000007FF800
01FFF00000FFF000
00FFFC0003FFE000
00FFFF803FFFC000
003FFFFFFFFF8000
001FFFFFFFFF0000
000FFFFFFFFE0000
0003FFFFFFF80000
0001FFFFFFF00000
00007FFFFFC00000
00000FFFFE000000
000000FFE0000000
ENDCHAR
STARTCHAR multiply
ENCODING 215
SWIDTH 617 0
DWIDTH 46 0
BBX 34 33 6 13
BITMAP
0C00000400
1E00000E00
3F00001F00
7F80003F80
FFC0007FC0
7FE000FF80
3FF001FF00
1FF803FE00
0FFC07FC00
07FE0FF800
03FF1FF000
01FFBFE000
00FFFFC000
007FFF8000
003FFF0000
001FFE0000
000FFC0000
000FFE0000
001FFF0000
003FFF8000
007FFFC000
00FFFFE000
01FF3FF000
03FE1FF800
07FC0FFC00
0FF807FE00
1FF003FF00
3FE001FF80
7FC000FFC0
7F80007F80
3F00003F00
1E00001E00
0C00000C00
ENDCHAR
STARTCHAR Oslash
ENCODING 216
SWIDTH 892 0
DWIDTH 67 0
BBX 59 59 4 -1
BITMAP
0000001E00000400
000007FFFC000E00
00003FFFFF801F00
0000FFFFFFE03F80
0003FFFFFFF87FC0
0007FFFFFFFCFFC0
000FFFFFFFFFFF80
003FFFFFFFFFFF00
007FFFF9FFFFFE00
00FFFE000FFFFC00
01FFF00001FFF800
03FFC000007FF800
03FF8000007FF800
07FF000000FFFC00
0FFE000001FFFE00
0FFC000003FFFE00
1FF8000007FFFF00
1FF000000FFDFF00
3FF000001FF9FF80
3FE000003FF0FF80
7FE000007FE0FF80
7FC00000FFC07FC0
7FC00001FF807FC0
7F800003FF007FC0
FF800007FE003FE0
FF80000FFC003FE0
FF80001FF8003FE0
FF80003FF0003FE0
FF80007FE0003FE0
FF8000FFC0003FE0
FF8001FF80003FE0
FF8003FF00003FE0
FF8007FE00003FE0
FF800FFC00003FE0
FF801FF800003FE0
FF803FF000003FC0
7FC07FE000007FC0
7FC0FFC000007FC0
7FC1FF8000007FC0
7FE3FF000000FF80
3FE7FE000000FF80
3FFFFC000001FF80
1FFFF8000003FF00
1FFFF0000003FF00
0FFFE0000007FE00
0FFFC000000FFC00
07FF8000003FFC00
03FFC000007FF800
07FFF00000FFF000
0FFFFC0003FFE000
1FFFFF803FFFC000
3FFFFFFFFFFF8000
7FFFFFFFFFFF0000
FFCFFFFFFFFE0000
7F83FFFFFFF80000
3F01FFFFFFF00000
1E007FFFFFC00000
0C000FFFFE000000
000000FFE0000000
ENDCHAR
STARTCHAR Ugrave
ENCODING 217
SWIDTH 738 0
DWIDTH 55 0
BBX 42 78 7 -1
BITMAP
000100000000
000380000000
000FC0000000
001FE0000000
007FF0000000
007FF8000000
003FFC000000
000FFE000000
0007FF000000
0001FF800000
0000FFC00000
00003FE00000
00001FE00000
00000F800000
000003000000
000000000000
000000000000
000000000000
000000000000
000000000000
FF0000007FC0
FF0000007FC0
FF0000007FC0
FF0000007FC0
FF0000007FC0
FF0000007FC0
FF0000007FC0
FF0000007FC0
FF0000007FC0
FF0000007FC0
FF0000007FC0
FF0000007FC0
FF0000007FC0
FF0000007FC0
FF0000007FC0
FF0000007FC0
FF0000007FC0
FF0000007FC0
FF0000007FC0
FF0000007FC0
FF0000007FC0
FF0000007FC0
FF0000007FC0
FF0000007FC0
FF0000007FC0
FF0000007FC0
FF0000007FC0
FF0000007FC0
FF0000007FC0
FF0000007FC0
FF0000007FC0
FF0000007FC0
FF0000007FC0
FF0000007FC0
FF0000007FC0
FF0000007FC0
FF0000007FC0
FF0000007FC0
FF8000007FC0
FF8000007FC0
FF8000007F80
FF800000FF80
FF800000FF80
7FC00000FF80
7FC00001FF00
7FE00003FF00
3FF00003FF00
3FF80007FE00
1FFC001FFC00
0FFF807FFC00
0FFFFFFFF800
07FFFFFFF000
03FFFFFFE000
01FFFFFFC000
007FFFFF8000
003FFFFE0000
000FFFF80000
0000FFC00000
ENDCHAR
STARTCHAR Uacute
ENCODING 218
SWIDTH 738 0
DWIDTH 55 0
BBX 42 78 7 -1
BITMAP
000000200000
000000700000
000000FC0000
000001FE0000
000003FF8000
000007FF8000
00000FFF0000
00001FFC0000
00003FF80000
00007FE00000
0000FFC00000
0001FF000000
0001FE000000
0000F8000000
000030000000
000000000000
000000000000
000000000000
000000000000
000000000000
FF0000007FC0
FF0000007FC0
FF0000007FC0
FF0000007FC0
FF0000007FC0
FF0000007FC0
FF0000007FC0
FF0000007FC0
FF0000007FC0
FF0000007FC0
FF0000007FC0
FF0000007FC0
FF0000007FC0
FF0000007FC0
FF0000007FC0
FF0000007FC0
FF0000007FC0
FF0000007FC0
FF0000007FC0
FF0000007FC0
FF0000007FC0
FF0000007FC0
FF0000007FC0
FF0000007FC0
FF0000007FC0
FF0000007FC0
FF0000007FC0
FF0000007FC0
FF0000007FC0
FF0000007FC0
FF0000007FC0
FF0000007FC0
FF0000007FC0
FF0000007FC0
FF0000007FC0
FF0000007FC0
FF0000007FC0
FF0000007FC0
FF8000007FC0
FF8000007FC0
FF8000007F80
FF800000FF80
FF800000FF80
7FC00000FF80
7FC00001FF00
7FE00003FF00
3FF00003FF00
3FF80007FE00
1FFC001FFC00
0FFF807FFC00
0FFFFFFFF800
07FFFFFFF000
03FFFFFFE000
01FFFFFFC000
007FFFFF8000
003FFFFE0000
000FFFF80000
0000FFC00000
ENDCHAR
STARTCHAR Ucircumflex
ENCODING 219
SWIDTH 738 0
DWIDTH 55 0
BBX 42 79 7 -1
BITMAP
000008000000
00001C000000
00003E000000
00007F000000
0000FF800000
0001FFC00000
0003FFF00000
0007FFF80000
000FFFFC0000
003FFFFE0000
007FE3FF0000
00FFC1FF8000
00FF80FF8000
003F007F0000
001E003C0000
000C00180000
000000000000
000000000000
000000000000
000000000000
000000000000
FF0000007FC0
FF0000007FC0
FF0000007FC0
FF0000007FC0
FF0000007FC0
FF0000007FC0
FF0000007FC0
FF0000007FC0
FF0000007FC0
FF0000007FC0
FF0000007FC0
FF0000007FC0
FF0000007FC0
FF0000007FC0
FF0000007FC0
FF0000007FC0
FF0000007FC0
FF0000007FC0
FF0000007FC0
FF0000007FC0
FF0000007FC0
FF0000007FC0
FF0000007FC0
FF0000007FC0
FF0000007FC0
FF0000007FC0
FF0000007FC0
FF0000007FC0
FF0000007FC0
FF0000007FC0
FF0000007FC0
FF0000007FC0
FF0000007FC0
FF0000007FC0
FF0000007FC0
FF0000007FC0
FF0000007FC0
FF0000007FC0
FF8000007FC0
FF8000007FC0
FF8000007F80
FF800000FF80
FF800000FF80
7FC00000FF80
7FC00001FF00
7FE00003FF00
3FF00003FF00
3FF80007FE00
1FFC001FFC00
0FFF807FFC00
0FFFFFFFF800
07FFFFFFF000
03FFFFFFE000
01FFFFFFC000
007FFFFF8000
003FFFFE0000
000FFFF80000
0000FFC00000
ENDCHAR
STARTCHAR Udieresis
ENCODING 220
SWIDTH 738 0
DWIDTH 55 0
BBX 42 74 7 -1
BITMAP
001C000C0000
007F007F0000
00FF807F8000
00FF80FFC000
01FFC0FFC000
01FFC0FFC000
01FFC0FFC000
00FF80FFC000
00FF807F8000
007F007F0000
001C001C0000
000000000000
000000000000
000000000000
000000000000
000000000000
FF0000007FC0
FF0000007FC0
FF0000007FC0
FF0000007FC0
FF0000007FC0
FF0000007FC0
FF0000007FC0
FF0000007FC0
FF0000007FC0
FF0000007FC0
FF0000007FC0
FF0000007FC0
FF0000007FC0
FF0000007FC0
FF0000007FC0
FF0000007FC0
FF0000007FC0
FF0000007FC0
FF0000007FC0
FF0000007FC0
FF0000007FC0
FF0000007FC0
FF0000007FC0
FF0000007FC0
FF0000007FC0
FF0000007FC0
FF0000007FC0
FF0000007FC0
FF0000007FC0
FF0000007FC0
FF0000007FC0
FF0000007FC0
FF0000007FC0
FF0000007FC0
FF0000007FC0
FF0000007FC0
FF0000007FC0
FF0000007FC0
FF8000007FC0
FF8000007FC0
FF8000007F80
FF800000FF80
FF800000FF80
7FC00000FF80
7FC00001FF00
7FE00003FF00
3FF00003FF00
3FF80007FE00
1FFC001FFC00
0FFF807FFC00
0FFFFFFFF800
07FFFFFFF000
03FFFFFFE000
01FFFFFFC000
007FFFFF8000
003FFFFE0000
000FFFF80000
0000FFC00000
ENDCHAR
STARTCHAR Yacute
ENCODING 221
SWIDTH 600 0
DWIDTH 45 0
BBX 45 77 0 0
BITMAP
000000020000
000000070000
0000000F8000
0000001FE000
0000003FF000
0000007FF800
000000FFF000
000001FFC000
000003FF8000
000007FE0000
00000FFC0000
00001FF00000
00001FE00000
00000F800000
000007000000
000000000000
000000000000
000000000000
000000000000
000000000000
FFC000001FF8
FFC000001FF8
7FE000003FF0
7FE000003FF0
3FF000007FE0
1FF000007FC0
1FF80000FFC0
0FFC0001FF80
0FFC0001FF80
07FE0003FF00
03FE0003FE00
03FF0007FE00
01FF0007FC00
01FF800FFC00
00FFC01FF800
00FFC01FF800
007FE03FF000
003FE03FE000
003FF07FE000
001FF07FC000
001FF8FFC000
000FFDFF8000
000FFDFF8000
0007FFFF0000
0003FFFE0000
0003FFFE0000
0001FFFC0000
0001FFFC0000
0000FFF80000
0000FFF80000
00007FF00000
00003FE00000
00003FE00000
00003FE00000
00003FE00000
00003FE00000
00003FE00000
00003FE00000
00003FE00000
00003FE00000
00003FE00000
00003FE00000
00003FE00000
00003FE00000
00003FE00000
00003FE00000
00003FE00000
00003FE00000
00003FE00000
00003FE00000
00003FE00000
00003FE00000
00003FE00000
00003FE00000
00003FE00000
00003FE00000
00003FE00000
ENDCHAR
STARTCHAR Thorn
ENCODING 222
SWIDTH 540 0
DWIDTH 41 0
BBX 31 57 7 0
BITMAP
FF000000
FF000000
FF000000
FF000000
FF000000
FF000000
FF000000
FF000000
FFF80000
FFFFF800
FFFFFE00
FFFFFF80
FFFFFFC0
FFFFFFE0
FFFFFFF0
FFFFFFF8
FF01FFF8
FF001FFC
FF000FFC
FF0007FE
FF0003FE
FF0001FE
FF0001FE
FF0001FE
FF0001FE
FF0001FE
FF0001FE
FF0001FE
FF0001FE
FF0003FE
FF0003FE
FF0007FC
FF001FFC
FF00FFFC
FFFFFFF8
FFFFFFF0
FFFFFFE0
FFFFFFC0
FFFFFF80
FFFFFE00
FFFFF800
FFFFC000
FF000000
FF000000
FF000000
FF000000
FF000000
FF000000
FF000000
FF000000
FF000000
FF000000
FF000000
FF000000
FF000000
FF000000
FF000000
ENDCHAR
STARTCHAR germandbls
ENCODING 223
SWIDTH 622 0
DWIDTH 47 0
BBX 41 64 2 -1
BITMAP
0000FF000000
0007FFE00000
001FFFF80000
007FFFFE0000
00FFFFFF0000
01FFFFFF8000
03FFFFFFC000
03FFFFFFC000
07FF00FFE000
07FC003FF000
0FF8001FF000
0FF8000FF000
0FF0000FF000
0FF0000FF800
1FF00007F800
1FF00007F800
1FF00007F800
1FF0000FF800
1FF0000FF800
1FF0000FF000
1FF0001FF000
1FF0001FF000
1FE0003FE000
1FE000FFE000
1FE01FFFC000
1FE01FFF8000
1FE01FFF0000
FFE01FFE0000
FFE01FFF8000
FFE01FFFC000
FFE01FFFF000
FFE01FFFF000
FFE003FFF800
FFE0003FFC00
FFE0000FFE00
1FE00007FE00
1FE00003FF00
1FE00001FF00
1FE00000FF00
1FE00000FF80
1FE00000FF80
1FE000007F80
1FE000007F80
1FE000007F80
1FE000007F80
1FE000007F80
1FE00000FF80
1FE00000FF80
1FE00000FF80
1FE00001FF00
1FE00001FF00
1FE00003FF00
1FE00007FE00
1FE0000FFE00
1FE0003FFC00
1FE000FFFC00
1FE01FFFF800
1FE01FFFF000
1FE01FFFE000
1FE01FFFC000
1FE01FFF0000
1FE01FFC0000
1FE01FF00000
00001F800000
ENDCHAR
STARTCHAR agrave
ENCODING 224
SWIDTH 599 0
DWIDTH 45 0
BBX 36 58 4 -1
BITMAP
0006000000
001F000000
007F800000
01FF800000
00FFC00000
007FE00000
003FF00000
001FF00000
000FF80000
0007FC0000
0003FE0000
0001FE0000
0000FF0000
00007F0000
00001C0000
0000080000
0000000000
0000000000
0000000000
0000000000
0001C00000
003FFC1FF0
00FFFF1FF0
01FFFF9FF0
07FFFFDFF0
0FFFFFFFF0
0FFFFFFFF0
1FFFFFFFF0
3FFC03FFF0
3FF000FFF0
7FE0007FF0
7FC0003FF0
FFC0003FF0
FF80001FF0
FF80001FF0
FF00000FF0
FF00000FF0
FF00000FF0
FF00000FF0
FF00000FF0
FF00000FF0
FF00000FF0
FF00000FF0
FF80001FF0
FF80001FF0
FF80001FF0
7FC0003FF0
7FE0007FF0
3FF000FFF0
3FF801FFF0
1FFF0FFFF0
1FFFFFFFF0
0FFFFFFFF0
07FFFFFFF0
03FFFFDFF0
00FFFF9FF0
007FFE1FF0
000FF00000
ENDCHAR
STARTCHAR aacute
ENCODING 225
SWIDTH 599 0
DWIDTH 45 0
BBX 36 58 4 -1
BITMAP
0000018000
000003E000
000007F800
00000FFE00
00000FFC00
00001FF800
00003FF000
00007FE000
00007FC000
0000FF8000
0001FF0000
0003FE0000
0003F80000
0003F00000
0000E00000
0000400000
0000000000
0000000000
0000000000
0000000000
0001C00000
003FFC1FF0
00FFFF1FF0
01FFFF9FF0
07FFFFDFF0
0FFFFFFFF0
0FFFFFFFF0
1FFFFFFFF0
3FFC03FFF0
3FF000FFF0
7FE0007FF0
7FC0003FF0
FFC0003FF0
FF80001FF0
FF80001FF0
FF00000FF0
FF00000FF0
FF00000FF0
FF00000FF0
FF00000FF0
FF00000FF0
FF00000FF0
FF00000FF0
FF80001FF0
FF80001FF0
FF80001FF0
7FC0003FF0
7FE0007FF0
3FF000FFF0
3FF801FFF0
1FFF0FFFF0
1FFFFFFFF0
0FFFFFFFF0
07FFFFFFF0
03FFFFDFF0
00FFFF9FF0
007FFE1FF0
000FF00000
ENDCHAR
STARTCHAR acircumflex
ENCODING 226
SWIDTH 599 0
DWIDTH 45 0
BBX 36 58 4 -1
BITMAP
0000300000
0000780000
0000FC0000
0001FE0000
0003FF0000
0007FF8000
000FFFC000
003FFFF000
007FFFF800
00FFCFFC00
01FF87FE00
03FF03FF00
01FE01FE00
007C00F800
0038007000
0010002000
0000000000
0000000000
0000000000
0000000000
0001C00000
003FFC1FF0
00FFFF1FF0
01FFFF9FF0
07FFFFDFF0
0FFFFFFFF0
0FFFFFFFF0
1FFFFFFFF0
3FFC03FFF0
3FF000FFF0
7FE0007FF0
7FC0003FF0
FFC0003FF0
FF80001FF0
FF80001FF0
FF00000FF0
FF00000FF0
FF00000FF0
FF00000FF0
FF00000FF0
FF00000FF0
FF00000FF0
FF00000FF0
FF80001FF0
FF80001FF0
FF80001FF0
7FC0003FF0
7FE0007FF0
3FF000FFF0
3FF801FFF0
1FFF0FFFF0
1FFFFFFFF0
0FFFFFFFF0
07FFFFFFF0
03FFFFDFF0
00FFFF9FF0
007FFE1FF0
000FF00000
ENDCHAR
STARTCHAR atilde
ENCODING 227
SWIDTH 599 0
DWIDTH 45 0
BBX 36 54 4 -1
BITMAP
000C000400
007FC00600
00FFF00F00
01FFFE1F80
03FFFFFFC0
07FFFFFF80
0FFFFFFF80
0FFFFFFF00
03E07FFE00
01C01FFC00
008007F000
0000000000
0000000000
0000000000
0000000000
0000000000
0001C00000
003FFC1FF0
00FFFF1FF0
01FFFF9FF0
07FFFFDFF0
0FFFFFFFF0
0FFFFFFFF0
1FFFFFFFF0
3FFC03FFF0
3FF000FFF0
7FE0007FF0
7FC0003FF0
FFC0003FF0
FF80001FF0
FF80001FF0
FF00000FF0
FF00000FF0
FF00000FF0
FF00000FF0
FF00000FF0
FF00000FF0
FF00000FF0
FF00000FF0
FF80001FF0
FF80001FF0
FF80001FF0
7FC0003FF0
7FE0007FF0
3FF000FFF0
3FF801FFF0
1FFF0FFFF0
1FFFFFFFF0
0FFFFFFFF0
07FFFFFFF0
03FFFFDFF0
00FFFF9FF0
007FFE1FF0
000FF00000
ENDCHAR
STARTCHAR adieresis
ENCODING 228
SWIDTH 599 0
DWIDTH 45 0
BBX 36 53 4 -1
BITMAP
00FC00F800
01FE01FC00
03FF03FE00
03FF07FE00
03FF07FF00
03FF07FF00
03FF07FE00
03FF03FE00
01FE03FC00
00FC00F800
0000000000
0000000000
0000000000
0000000000
0000000000
0001C00000
003FFC1FF0
00FFFF1FF0
01FFFF9FF0
07FFFFDFF0
0FFFFFFFF0
0FFFFFFFF0
1FFFFFFFF0
3FFC03FFF0
3FF000FFF0
7FE0007FF0
7FC0003FF0
FFC0003FF0
FF80001FF0
FF80001FF0
FF00000FF0
FF00000FF0
FF00000FF0
FF00000FF0
FF00000FF0
FF00000FF0
FF00000FF0
FF00000FF0
FF80001FF0
FF80001FF0
FF80001FF0
7FC0003FF0
7FE0007FF0
3FF000FFF0
3FF801FFF0
1FFF0FFFF0
1FFFFFFFF0
0FFFFFFFF0
07FFFFFFF0
03FFFFDFF0
00FFFF9FF0
007FFE1FF0
000FF00000
ENDCHAR
STARTCHAR aring
ENCODING 229
SWIDTH 599 0
DWIDTH 45 0
BBX 36 58 4 -1
BITMAP
0000FC0000
0003FF0000
0007FF8000
000FFF8000
001F8FC000
001F07C000
001E03E000
001E03E000
001E03E000
001F03E000
001F07C000
000FFFC000
000FFF8000
0007FF0000
0003FE0000
0000F80000
0000000000
0000000000
0000000000
0000000000
0001C00000
003FFC1FF0
00FFFF1FF0
01FFFF9FF0
07FFFFDFF0
0FFFFFFFF0
0FFFFFFFF0
1FFFFFFFF0
3FFC03FFF0
3FF000FFF0
7FE0007FF0
7FC0003FF0
FFC0003FF0
FF80001FF0
FF80001FF0
FF00000FF0
FF00000FF0
FF00000FF0
FF00000FF0
FF00000FF0
FF00000FF0
FF00000FF0
FF00000FF0
FF80001FF0
FF80001FF0
FF80001FF0
7FC0003FF0
7FE0007FF0
3FF000FFF0
3FF801FFF0
1FFF0FFFF0
1FFFFFFFF0
0FFFFFFFF0
07FFFFFFF0
03FFFFDFF0
00FFFF9FF0
007FFE1FF0
000FF00000
ENDCHAR
STARTCHAR ae
ENCODING 230
SWIDTH 860 0
DWIDTH 65 0
BBX 57 38 4 -1
BITMAP
000FC00007C00000
0FFFFC007FFE0000
0FFFFF01FFFF8000
0FFFFFC7FFFFC000
0FFFFFEFFFFFE000
0FFFFFFFFFFFF000
0FFFFFFFFFFFF800
0FFFFFFFFFFFFC00
0E001FFFF00FFE00
000007FFE003FE00
000003FFC001FF00
000003FF8001FF00
000003FF0000FF00
000001FF0000FF00
007FC1FFFFFFFF80
03FFF9FFFFFFFF80
07FFFFFFFFFFFF80
1FFFFFFFFFFFFF80
3FFFFFFFFFFFFF80
7FFFFFFFFFFFFF80
7FFFFFFFFFFFFF80
FFF03FFE00000000
FFC00FFE00000000
FF0007FF00000000
FF0003FF00007000
FF0003FF00007C00
FF0003FF8000FE00
FF0003FFC001FF80
FF0007FFE003FF80
FFC00FFFF007FF00
FFF03FFFFE3FFE00
7FFFFFFFFFFFFC00
7FFFFFFFFFFFFC00
3FFFFFC7FFFFF800
1FFFFF83FFFFE000
07FFFF01FFFFC000
03FFFC007FFF0000
007FE0000FF80000
ENDCHAR
STARTCHAR ccedilla
ENCODING 231
SWIDTH 476 0
DWIDTH 36 0
BBX 29 55 4 -18
BITMAP
0000FC00
000FFFC0
003FFFF0
00FFFFF8
01FFFFF8
03FFFFF8
0FFFFFF8
0FFFFFF8
1FFE01F8
3FF80078
3FF00038
7FE00018
7FC00008
FF800000
FF800000
FF000000
FF000000
FF000000
FF000000
FF000000
FF000000
FF000000
FF000000
FF800000
FF800000
FF800008
7FC00018
7FE00038
3FF00078
3FFC00F8
1FFF8FF8
0FFFFFF8
07FFFFF8
03FFFFF8
01FFFFF8
007FFFF8
001FFFE0
0003FE00
00000000
00000000
00000000
00000000
0001C000
0003F000
0007FC00
0007F800
000FF000
001FF000
001FE000
003FC000
003F8000
007F8000
00FF0000
007E0000
001C0000
ENDCHAR
STARTCHAR egrave
ENCODING 232
SWIDTH 553 0
DWIDTH 41 0
BBX 34 58 4 -1
BITMAP
0018000000
007C000000
01FE000000
07FF000000
03FF000000
01FF800000
00FFC00000
007FE00000
003FE00000
001FF00000
000FF80000
0003FC0000
0001FC0000
0000FC0000
0000780000
0000200000
0000000000
0000000000
0000000000
0000000000
0001E00000
003FFF0000
00FFFFC000
03FFFFE000
07FFFFF000
0FFFFFF800
1FFFFFFC00
1FFFFFFE00
3FF807FE00
3FF003FF00
7FE001FF00
7FC000FF80
FF80007F80
FF80007F80
FFFFFFFF80
FFFFFFFF80
FFFFFFFFC0
FFFFFFFFC0
FFFFFFFFC0
FFFFFFFFC0
FFFFFFFFC0
FF00000000
FF00000000
FF80000000
FF80001000
FF80003C00
7FC0007F00
7FC000FFC0
7FE001FF80
3FF803FF80
3FFF1FFF00
1FFFFFFE00
0FFFFFFC00
07FFFFFC00
03FFFFF000
01FFFFE000
007FFF8000
000FFC0000
ENDCHAR
STARTCHAR eacute
ENCODING 233
SWIDTH 553 0
DWIDTH 41 0
BBX 34 58 4 -1
BITMAP
0000060000
00000F8000
00001FE000
00003FF800
00003FF000
00007FE000
0000FFC000
0001FF8000
0001FF0000
0003FE0000
0007FC0000
000FF80000
000FE00000
000FC00000
0003800000
0001000000
0000000000
0000000000
0000000000
0000000000
0001E00000
003FFF0000
00FFFFC000
03FFFFE000
07FFFFF000
0FFFFFF800
1FFFFFFC00
1FFFFFFE00
3FF807FE00
3FF003FF00
7FE001FF00
7FC000FF80
FF80007F80
FF80007F80
FFFFFFFF80
FFFFFFFF80
FFFFFFFFC0
FFFFFFFFC0
FFFFFFFFC0
FFFFFFFFC0
FFFFFFFFC0
FF00000000
FF00000000
FF80000000
FF80001000
FF80003C00
7FC0007F00
7FC000FFC0
7FE001FF80
3FF803FF80
3FFF1FFF00
1FFFFFFE00
0FFFFFFC00
07FFFFFC00
03FFFFF000
01FFFFE000
007FFF8000
000FFC0000
ENDCHAR
STARTCHAR ecircumflex
ENCODING 234
SWIDTH 553 0
DWIDTH 41 0
BBX 34 58 4 -1
BITMAP
0000C00000
0001E00000
0003F00000
0007F80000
000FFC0000
001FFE0000
003FFF8000
00FFFFC000
01FFFFE000
03FF3FF000
07FE1FF800
0FFC0FFC00
07F807F800
01F003E000
00E001C000
0040008000
0000000000
0000000000
0000000000
0000000000
0001E00000
003FFF0000
00FFFFC000
03FFFFE000
07FFFFF000
0FFFFFF800
1FFFFFFC00
1FFFFFFE00
3FF807FE00
3FF003FF00
7FE001FF00
7FC000FF80
FF80007F80
FF80007F80
FFFFFFFF80
FFFFFFFF80
FFFFFFFFC0
FFFFFFFFC0
FFFFFFFFC0
FFFFFFFFC0
FFFFFFFFC0
FF00000000
FF00000000
FF80000000
FF80001000
FF80003C00
7FC0007F00
7FC000FFC0
7FE001FF80
3FF803FF80
3FFF1FFF00
1FFFFFFE00
0FFFFFFC00
07FFFFFC00
03FFFFF000
01FFFFE000
007FFF8000
000FFC0000
ENDCHAR
STARTCHAR edieresis
ENCODING 235
SWIDTH 553 0
DWIDTH 41 0
BBX 34 53 4 -1
BITMAP
01F003E000
03F807F800
07FC0FF800
0FFC0FFC00
0FFE1FFC00
0FFE1FFC00
0FFC0FFC00
07FC0FF800
07F807F800
01F003E000
0000000000
0000000000
0000000000
0000000000
0000000000
0001E00000
003FFF0000
00FFFFC000
03FFFFE000
07FFFFF000
0FFFFFF800
1FFFFFFC00
1FFFFFFE00
3FF807FE00
3FF003FF00
7FE001FF00
7FC000FF80
FF80007F80
FF80007F80
FFFFFFFF80
FFFFFFFF80
FFFFFFFFC0
FFFFFFFFC0
FFFFFFFFC0
FFFFFFFFC0
FFFFFFFFC0
FF00000000
FF00000000
FF80000000
FF80001000
FF80003C00
7FC0007F00
7FC000FFC0
7FE001FF80
3FF803FF80
3FFF1FFF00
1FFFFFFE00
0FFFFFFC00
07FFFFFC00
03FFFFF000
01FFFFE000
007FFF8000
000FFC0000
ENDCHAR
STARTCHAR igrave
ENCODING 236
SWIDTH 249 0
DWIDTH 19 0
BBX 16 57 -3 0
BITMAP
0600
0F00
3F80
FFC0
FFC0
7FE0
3FF0
1FF0
0FF8
07FC
03FC
01FE
00FF
007E
003C
0010
0000
0000
0000
0000
0000
00FF
00FF
00FF
00FF
00FF
00FF
00FF
00FF
00FF
00FF
00FF
00FF
00FF
00FF
00FF
00FF
00FF
00FF
00FF
00FF
00FF
00FF
00FF
00FF
00FF
00FF
00FF
00FF
00FF
00FF
00FF
00FF
00FF
00FF
00FF
00FF
ENDCHAR
STARTCHAR iacute
ENCODING 237
SWIDTH 249 0
DWIDTH 19 0
BBX 17 57 5 0
BITMAP
006000
007800
00FE00
01FF80
03FF00
03FE00
07FC00
0FF800
0FF000
1FE000
3FC000
3F8000
7F0000
7E0000
1C0000
000000
000000
000000
000000
000000
000000
FF0000
FF0000
FF0000
FF0000
FF0000
FF0000
FF0000
FF0000
FF0000
FF0000
FF0000
FF0000
FF0000
FF0000
FF0000
FF0000
FF0000
FF0000
FF0000
FF0000
FF0000
FF0000
FF0000
FF0000
FF0000
FF0000
FF0000
FF0000
FF0000
FF0000
FF0000
FF0000
FF0000
FF0000
FF0000
FF0000
ENDCHAR
STARTCHAR icircumflex
ENCODING 238
SWIDTH 249 0
DWIDTH 19 0
BBX 25 57 -3 0
BITMAP
00180000
003C0000
007E0000
00FF0000
01FF8000
03FFC000
07FFE000
0FFFF800
1FFFFC00
3FF7FE00
7FE3FF00
FFC1FF80
7F80FE00
1F007C00
0E003800
04001000
00000000
00000000
00000000
00000000
00000000
00FF0000
00FF0000
00FF0000
00FF0000
00FF0000
00FF0000
00FF0000
00FF0000
00FF0000
00FF0000
00FF0000
00FF0000
00FF0000
00FF0000
00FF0000
00FF0000
00FF0000
00FF0000
00FF0000
00FF0000
00FF0000
00FF0000
00FF0000
00FF0000
00FF0000
00FF0000
00FF0000
00FF0000
00FF0000
00FF0000
00FF0000
00FF0000
00FF0000
00FF0000
00FF0000
00FF0000
ENDCHAR
STARTCHAR idieresis
ENCODING 239
SWIDTH 249 0
DWIDTH 19 0
BBX 23 52 -2 0
BITMAP
3E01F8
7F83FC
FF87FE
FFC7FE
FFC7FE
FFC7FE
FFC7FE
FF87FE
7F83FC
3E01F8
000000
000000
000000
000000
000000
000000
01FE00
01FE00
01FE00
01FE00
01FE00
01FE00
01FE00
01FE00
01FE00
01FE00
01FE00
01FE00
01FE00
01FE00
01FE00
01FE00
01FE00
01FE00
01FE00
01FE00
01FE00
01FE00
01FE00
01FE00
01FE00
01FE00
01FE00
01FE00
01FE00
01FE00
01FE00
01FE00
01FE00
01FE00
01FE00
01FE00
ENDCHAR
STARTCHAR eth
ENCODING 240
SWIDTH 601 0
DWIDTH 45 0
BBX 38 63 4 -1
BITMAP
1E00000000
1F80008000
3FE003C000
7FF80FC000
7FFC3FE000
1FFFFFE000
07FFFFC000
01FFFF0000
007FFC0000
007FF80000
01FFFC0000
07FFFE0000
1FFFFF0000
1FF9FF8000
0FE0FFC000
0F807FC000
06003FE000
00003FF000
00001FF800
00000FF800
000007FC00
000007FE00
000003FE00
000001FF00
000001FF00
000030FF80
000FFFFF80
003FFFFFC0
00FFFFFFC0
01FFFFFFE0
07FFFFFFE0
0FFFFFFFE0
0FFFFFFFF0
1FFE01FFF0
3FF8007FF0
3FE0003FF8
7FC0001FF8
7FC0001FF8
FF80000FF8
FF80000FF8
FF000007F8
FF000007F8
FF000007FC
FF000007FC
FF000007FC
FF000007F8
FF000007F8
FF000007F8
FF800007F8
FF80000FF8
FF80000FF0
7FC0001FF0
7FE0003FF0
3FF0007FE0
3FF800FFE0
1FFF87FFC0
0FFFFFFF80
07FFFFFF00
03FFFFFE00
01FFFFFC00
007FFFF000
001FFFE000
0003FE0000
ENDCHAR
STARTCHAR ntilde
ENCODING 241
SWIDTH 548 0
DWIDTH 41 0
BBX 31 53 5 0
BITMAP
00C00040
07FC0060
0FFF00F0
1FFFE1F8
3FFFFFFC
7FFFFFF8
FFFFFFF8
FFFFFFF0
3E07FFE0
1C01FFC0
08007F00
00000000
00000000
00000000
00000000
00000000
00007000
FF07FF00
FF1FFFC0
FF3FFFE0
FF7FFFF0
FFFFFFF8
FFFFFFF8
FFFFFFFC
FFF00FFC
FFE007FC
FFC003FE
FFC003FE
FF8003FE
FF8003FE
FF8001FE
FF8001FE
FF8001FE
FF8001FE
FF8001FE
FF0001FE
FF0001FE
FF0001FE
FF0001FE
FF0001FE
FF0001FE
FF0001FE
FF0001FE
FF0001FE
FF0001FE
FF0001FE
FF0001FE
FF0001FE
FF0001FE
FF0001FE
FF0001FE
FF0001FE
FF0001FE
ENDCHAR
STARTCHAR ograve
ENCODING 242
SWIDTH 601 0
DWIDTH 45 0
BBX 38 58 4 -1
BITMAP
0006000000
001F000000
007F800000
01FF800000
00FFC00000
007FE00000
003FF00000
001FF00000
000FF80000
0007FC0000
0003FE0000
0001FE0000
0000FF0000
00003F0000
00001C0000
0000080000
0000000000
0000000000
0000000000
0000000000
0000700000
000FFF8000
007FFFF000
00FFFFF800
03FFFFFE00
07FFFFFF00
0FFFFFFF80
1FFFFFFFC0
1FFE01FFC0
3FF8007FE0
7FE0003FF0
7FC0001FF0
7FC0001FF0
FF80000FF8
FF80000FF8
FF000007F8
FF000007F8
FF000007F8
FF000007FC
FF000007FC
FF000007FC
FF000007F8
FF000007F8
FF800007F8
FF80000FF8
7F80000FF8
7FC0001FF0
7FE0003FF0
3FF0007FE0
3FF800FFE0
1FFF87FFC0
0FFFFFFF80
07FFFFFF00
03FFFFFE00
01FFFFFC00
007FFFF000
001FFFC000
0003FE0000
ENDCHAR
STARTCHAR oacute
ENCODING 243
SWIDTH 601 0
DWIDTH 45 0
BBX 38 58 4 -1
BITMAP
0000018000
000003E000
000007F800
00000FFC00
00000FFC00
00001FF800
00003FF000
00007FE000
0000FFC000
0000FF8000
0001FE0000
0003FC0000
0007F80000
0003F00000
0001E00000
0000400000
0000000000
0000000000
0000000000
0000000000
0000700000
000FFF8000
007FFFF000
00FFFFF800
03FFFFFE00
07FFFFFF00
0FFFFFFF80
1FFFFFFFC0
1FFE01FFC0
3FF8007FE0
7FE0003FF0
7FC0001FF0
7FC0001FF0
FF80000FF8
FF80000FF8
FF000007F8
FF000007F8
FF000007F8
FF000007FC
FF000007FC
FF000007FC
FF000007F8
FF000007F8
FF800007F8
FF80000FF8
7F80000FF8
7FC0001FF0
7FE0003FF0
3FF0007FE0
3FF800FFE0
1FFF87FFC0
0FFFFFFF80
07FFFFFF00
03FFFFFE00
01FFFFFC00
007FFFF000
001FFFC000
0003FE0000
ENDCHAR
STARTCHAR ocircumflex
ENCODING 244
SWIDTH 601 0
DWIDTH 45 0
BBX 38 58 4 -1
BITMAP
0000200000
0000F00000
0001FC0000
0003FE0000
0007FF0000
000FFF8000
001FFFC000
003FFFE000
007FFFF000
00FFDFF800
01FF8FFC00
03FF07FE00
01FE03FC00
00FC01F800
007800F000
0010004000
0000000000
0000000000
0000000000
0000000000
0000700000
000FFF8000
007FFFF000
00FFFFF800
03FFFFFE00
07FFFFFF00
0FFFFFFF80
1FFFFFFFC0
1FFE01FFC0
3FF8007FE0
7FE0003FF0
7FC0001FF0
7FC0001FF0
FF80000FF8
FF80000FF8
FF000007F8
FF000007F8
FF000007F8
FF000007FC
FF000007FC
FF000007FC
FF000007F8
FF000007F8
FF800007F8
FF80000FF8
7F80000FF8
7FC0001FF0
7FE0003FF0
3FF0007FE0
3FF800FFE0
1FFF87FFC0
0FFFFFFF80
07FFFFFF00
03FFFFFE00
01FFFFFC00
007FFFF000
001FFFC000
0003FE0000
ENDCHAR
STARTCHAR otilde
ENCODING 245
SWIDTH 601 0
DWIDTH 45 0
BBX 38 54 4 -1
BITMAP
0006000000
007FE00600
00FFF80F00
01FFFE1FC0
03FFFFFFC0
03FFFFFFC0
07FFFFFF80
07FBFFFF00
03E07FFE00
01C01FFC00
00C003F000
0000000000
0000000000
0000000000
0000000000
0000000000
0000700000
000FFF8000
007FFFF000
00FFFFF800
03FFFFFE00
07FFFFFF00
0FFFFFFF80
1FFFFFFFC0
1FFE01FFC0
3FF8007FE0
7FE0003FF0
7FC0001FF0
7FC0001FF0
FF80000FF8
FF80000FF8
FF000007F8
FF000007F8
FF000007F8
FF000007FC
FF000007FC
FF000007FC
FF000007F8
FF000007F8
FF800007F8
FF80000FF8
7F80000FF8
7FC0001FF0
7FE0003FF0
3FF0007FE0
3FF800FFE0
1FFF87FFC0
0FFFFFFF80
07FFFFFF00
03FFFFFE00
01FFFFFC00
007FFFF000
001FFFC000
0003FE0000
ENDCHAR
STARTCHAR odieresis
ENCODING 246
SWIDTH 601 0
DWIDTH 45 0
BBX 38 53 4 -1
BITMAP
00F800F800
01FE03FC00
03FE03FE00
03FF07FE00
03FF07FE00
03FF07FE00
03FF07FE00
03FE03FE00
01FE03FC00
00FC01F800
0000000000
0000000000
0000000000
0000000000
0000000000
0000700000
000FFF8000
007FFFF000
00FFFFF800
03FFFFFE00
07FFFFFF00
0FFFFFFF80
1FFFFFFFC0
1FFE01FFC0
3FF8007FE0
7FE0003FF0
7FC0001FF0
7FC0001FF0
FF80000FF8
FF80000FF8
FF000007F8
FF000007F8
FF000007F8
FF000007FC
FF000007FC
FF000007FC
FF000007F8
FF000007F8
FF800007F8
FF80000FF8
7F80000FF8
7FC0001FF0
7FE0003FF0
3FF0007FE0
3FF800FFE0
1FFF87FFC0
0FFFFFFF80
07FFFFFF00
03FFFFFE00
01FFFFFC00
007FFFF000
001FFFC000
0003FE0000
ENDCHAR
STARTCHAR divide
ENCODING 247
SWIDTH 617 0
DWIDTH 46 0
BBX 39 35 4 12
BITMAP
0000780000
0000FC0000
0001FE0000
0001FF0000
0003FF0000
0003FF0000
0001FF0000
0001FE0000
0000FC0000
0000380000
0000000000
0000000000
0000000000
0000000000
FFFFFFFFFE
FFFFFFFFFE
FFFFFFFFFE
FFFFFFFFFE
FFFFFFFFFE
FFFFFFFFFE
FFFFFFFFFE
0000000000
0000000000
0000000000
0000000000
0000000000
0000FC0000
0001FE0000
0001FF0000
0003FF0000
0003FF0000
0001FF0000
0001FE0000
0000FE0000
0000780000
ENDCHAR
STARTCHAR oslash
ENCODING 248
SWIDTH 601 0
DWIDTH 45 0
BBX 41 42 2 -3
BITMAP
000000000400
000000000E00
00001E001E00
0003FFE03F00
000FFFF87F80
003FFFFEFF00
00FFFFFFFE00
01FFFFFFFC00
03FFFFFFF800
07FFFFFFF000
07FFC3FFF000
0FFE003FF800
1FFC007FF800
1FF800FFFC00
1FF001FFFC00
3FE003FBFE00
3FE007F3FE00
3FC00FF1FE00
3FC01FE1FE00
3FC03FC1FF00
3FC07F81FF00
3FC0FF01FF00
3FC1FE01FF00
3FC3FC01FE00
3FC7F801FE00
3FEFF003FE00
3FFFE003FE00
1FFFC003FE00
1FFF8007FC00
1FFF000FFC00
0FFE001FF800
0FFF807FF800
07FFFFFFF000
0FFFFFFFE000
1FFFFFFFC000
3FFFFFFF8000
7FFFFFFF0000
FF1FFFFC0000
FE07FFF80000
7C00FFC00000
380000000000
100000000000
ENDCHAR
STARTCHAR ugrave
ENCODING 249
SWIDTH 544 0
DWIDTH 41 0
BBX 31 58 5 -1
BITMAP
00600000
01F00000
03F80000
0FFC0000
0FFC0000
07FE0000
03FF0000
01FF8000
00FFC000
007FC000
001FE000
000FF000
0007F800
0003F000
0001E000
00008000
00000000
00000000
00000000
00000000
00000000
FF0003FE
FF0003FE
FF0003FE
FF0003FE
FF0003FE
FF0003FE
FF0003FE
FF0003FE
FF0003FE
FF0003FE
FF0003FE
FF0003FE
FF0003FE
FF0003FE
FF0003FE
FF0003FE
FF0003FE
FF0003FE
FF0003FE
FF0003FE
FF0003FE
FF0003FE
FF8003FE
FF8003FE
FF8003FC
FF8003FC
7FC007FC
7FC007FC
7FE00FFC
3FFC7FF8
3FFFFFF8
1FFFFFF0
0FFFFFE0
07FFFFC0
03FFFF80
00FFFE00
001FF000
ENDCHAR
STARTCHAR uacute
ENCODING 250
SWIDTH 544 0
DWIDTH 41 0
BBX 31 58 5 -1
BITMAP
00000C00
00001F00
00003FC0
00003FF0
00007FF0
0000FFC0
0001FF80
0001FF00
0003FE00
0007FC00
000FF800
000FF000
001FE000
001FC000
00078000
00020000
00000000
00000000
00000000
00000000
00000000
FF0003FE
FF0003FE
FF0003FE
FF0003FE
FF0003FE
FF0003FE
FF0003FE
FF0003FE
FF0003FE
FF0003FE
FF0003FE
FF0003FE
FF0003FE
FF0003FE
FF0003FE
FF0003FE
FF0003FE
FF0003FE
FF0003FE
FF0003FE
FF0003FE
FF0003FE
FF8003FE
FF8003FE
FF8003FC
FF8003FC
7FC007FC
7FC007FC
7FE00FFC
3FFC7FF8
3FFFFFF8
1FFFFFF0
0FFFFFE0
07FFFFC0
03FFFF80
00FFFE00
001FF000
ENDCHAR
STARTCHAR ucircumflex
ENCODING 251
SWIDTH 544 0
DWIDTH 41 0
BBX 31 58 5 -1
BITMAP
00010000
00078000
000FC000
001FF000
003FF800
007FFC00
00FFFE00
01FFFF00
03FFFF80
07FEFFC0
0FFC7FE0
1FF83FF0
0FF01FE0
07E00FC0
03C00780
00000200
00000000
00000000
00000000
00000000
00000000
FF0003FE
FF0003FE
FF0003FE
FF0003FE
FF0003FE
FF0003FE
FF0003FE
FF0003FE
FF0003FE
FF0003FE
FF0003FE
FF0003FE
FF0003FE
FF0003FE
FF0003FE
FF0003FE
FF0003FE
FF0003FE
FF0003FE
FF0003FE
FF0003FE
FF0003FE
FF8003FE
FF8003FE
FF8003FC
FF8003FC
7FC007FC
7FC007FC
7FE00FFC
3FFC7FF8
3FFFFFF8
1FFFFFF0
0FFFFFE0
07FFFFC0
03FFFF80
00FFFE00
001FF000
ENDCHAR
STARTCHAR udieresis
ENCODING 252
SWIDTH 544 0
DWIDTH 41 0
BBX 31 53 5 -1
BITMAP
07C007C0
0FF01FE0
1FF01FF0
1FF83FF0
1FF83FF0
1FF83FF0
1FF83FF0
1FF03FF0
0FF01FE0
07E00FC0
00000000
00000000
00000000
00000000
00000000
00000000
FF0003FE
FF0003FE
FF0003FE
FF0003FE
FF0003FE
FF0003FE
FF0003FE
FF0003FE
FF0003FE
FF0003FE
FF0003FE
FF0003FE
FF0003FE
FF0003FE
FF0003FE
FF0003FE
FF0003FE
FF0003FE
FF0003FE
FF0003FE
FF0003FE
FF0003FE
FF8003FE
FF8003FE
FF8003FC
FF8003FC
7FC007FC
7FC007FC
7FE00FFC
3FFC7FF8
3FFFFFF8
1FFFFFF0
0FFFFFE0
07FFFFC0
03FFFF80
00FFFE00
001FF000
ENDCHAR
STARTCHAR yacute
ENCODING 253
SWIDTH 543 0
DWIDTH 41 0
BBX 40 76 0 -19
BITMAP
0000003000
0000007C00
0000007F00
000000FFC0
000001FFC0
000003FF80
000003FE00
000007FC00
00000FF800
00001FF000
00003FE000
00003FC000
00007F8000
00007F0000
00001E0000
0000000000
0000000000
0000000000
0000000000
0000000000
0000000000
FFC00001FF
7FE00003FF
3FE00003FE
3FF00007FE
1FF00007FC
1FF8000FFC
0FF8000FF8
0FFC001FF8
07FC001FF0
07FE003FF0
03FE003FE0
01FF003FE0
01FF007FC0
00FF807FC0
00FFC0FF80
007FC0FF80
007FE1FF00
003FE1FF00
003FF3FE00
001FF3FC00
000FFFFC00
000FFFF800
0007FFF800
0007FFF000
0003FFF000
0003FFE000
0001FFE000
0001FFC000
0000FFC000
0000FF8000
0000FF8000
0001FF0000
0001FF0000
0003FE0000
0003FE0000
0007FC0000
0007FC0000
000FF80000
000FF80000
001FF00000
003FF00000
003FE00000
007FE00000
007FC00000
00FFC00000
00FF800000
01FF800000
01FF000000
03FF000000
03FE000000
07FC000000
07FC000000
0FF8000000
0FF8000000
1FF0000000
ENDCHAR
STARTCHAR thorn
ENCODING 254
SWIDTH 599 0
DWIDTH 45 0
BBX 36 81 5 -19
BITMAP
FF00000000
FF00000000
FF00000000
FF00000000
FF00000000
FF00000000
FF00000000
FF00000000
FF00000000
FF00000000
FF00000000
FF00000000
FF00000000
FF00000000
FF00000000
FF00000000
FF00000000
FF00000000
FF00000000
FF00000000
FF00000000
FF00000000
FF00000000
FF00000000
FF00000000
FF00780000
FF03FFC000
FF0FFFF000
FF3FFFF800
FF7FFFFC00
FFFFFFFE00
FFFFFFFF00
FFFFFFFF80
FFFC03FFC0
FFF000FFC0
FFE0007FE0
FFC0003FE0
FFC0003FE0
FF80001FF0
FF80001FF0
FF00000FF0
FF00000FF0
FF00000FF0
FF00000FF0
FF00000FF0
FF00000FF0
FF00000FF0
FF00000FF0
FF80001FF0
FF80001FF0
FF80001FF0
FFC0003FE0
FFE0007FE0
FFF000FFC0
FFF801FFC0
FFFF0FFF80
FFFFFFFF80
FFFFFFFF00
FF7FFFFE00
FF3FFFFC00
FF1FFFF000
FF07FFE000
FF00FF0000
FF00000000
FF00000000
FF00000000
FF00000000
FF00000000
FF00000000
FF00000000
FF00000000
FF00000000
FF00000000
FF00000000
FF00000000
FF00000000
FF00000000
FF00000000
FF00000000
FF00000000
FF00000000
ENDCHAR
STARTCHAR ydieresis
ENCODING 255
SWIDTH 543 0
DWIDTH 41 0
BBX 40 71 0 -19
BITMAP
003E007E00
007F80FF00
00FF81FF80
00FFC1FF80
01FFC1FF80
00FFC1FF80
00FFC1FF80
00FF81FF80
007F80FF00
003E007E00
0000000000
0000000000
0000000000
0000000000
0000000000
0000000000
FFC00001FF
7FE00003FF
3FE00003FE
3FF00007FE
1FF00007FC
1FF8000FFC
0FF8000FF8
0FFC001FF8
07FC001FF0
07FE003FF0
03FE003FE0
01FF003FE0
01FF007FC0
00FF807FC0
00FFC0FF80
007FC0FF80
007FE1FF00
003FE1FF00
003FF3FE00
001FF3FC00
000FFFFC00
000FFFF800
0007FFF800
0007FFF000
0003FFF000
0003FFE000
0001FFE000
0001FFC000
0000FFC000
0000FF8000
0000FF8000
0001FF0000
0001FF0000
0003FE0000
0003FE0000
0007FC0000
0007FC0000
000FF80000
000FF80000
001FF00000
003FF00000
003FE00000
007FE00000
007FC00000
00FFC00000
00FF800000
01FF800000
01FF000000
03FF000000
03FE000000
07FC000000
07FC000000
0FF8000000
0FF8000000
1FF0000000
ENDCHAR
STARTCHAR Amacron
ENCODING 256
SWIDTH 740 0
DWIDTH 56 0
BBX 54 70 1 0
BITMAP
0003FFFFFF0000
0003FFFFFF0000
0003FFFFFF0000
0003FFFFFF0000
0003FFFFFF0000
0003FFFFFF0000
0003FFFFFF0000
00000000000000
00000000000000
00000000000000
00000010000000
00000010000000
00000030000000
00000038000000
00000078000000
0000007C000000
000000FC000000
000000FE000000
000001FE000000
000001FF000000
000003FF000000
000003FF000000
000007FF800000
000007FF800000
00000FFFC00000
00000FFFC00000
00000FFFE00000
00001FFFE00000
00001FFFF00000
00003FFFF00000
00003FCFF80000
00007FCFF80000
00007FC7F80000
0000FF87FC0000
0000FF83FC0000
0001FF03FE0000
0001FF03FE0000
0003FE01FF0000
0003FE01FF0000
0007FC00FF8000
0007FC00FF8000
0007F8007F8000
000FF8007FC000
000FF8007FC000
001FF0003FE000
001FF0003FE000
003FE0001FF000
003FE0001FF000
007FFFFFFFF800
007FFFFFFFF800
00FFFFFFFFFC00
00FFFFFFFFFC00
01FFFFFFFFFC00
01FFFFFFFFFE00
03FFFFFFFFFE00
03FFFFFFFFFF00
03FE000001FF00
07FC000000FF80
07FC000000FF80
0FF8000000FFC0
0FF80000007FC0
1FF00000007FC0
1FF00000003FE0
3FE00000003FE0
3FE00000001FF0
7FE00000001FF0
7FC00000001FF8
FFC00000000FF8
FF800000000FFC
FF8000000007FC
ENDCHAR
STARTCHAR amacron
ENCODING 257
SWIDTH 599 0
DWIDTH 45 0
BBX 36 50 4 -1
BITMAP
03FFFFFF00
03FFFFFF00
03FFFFFF00
03FFFFFF00
03FFFFFF00
03FFFFFF00
0000000000
0000000000
0000000000
0000000000
0000000000
0000000000
0001C00000
003FFC1FF0
00FFFF1FF0
01FFFF9FF0
07FFFFDFF0
0FFFFFFFF0
0FFFFFFFF0
1FFFFFFFF0
3FFC03FFF0
3FF000FFF0
7FE0007FF0
7FC0003FF0
FFC0003FF0
FF80001FF0
FF80001FF0
FF00000FF0
FF00000FF0
FF00000FF0
FF00000FF0
FF00000FF0
FF00000FF0
FF00000FF0
FF00000FF0
FF80001FF0
FF80001FF0
FF80001FF0
7FC0003FF0
7FE0007FF0
3FF000FFF0
3FF801FFF0
1FFF0FFFF0
1FFFFFFFF0
0FFFFFFFF0
07FFFFFFF0
03FFFFDFF0
00FFFF9FF0
007FFE1FF0
000FF00000
ENDCHAR
STARTCHAR Abreve
ENCODING 258
SWIDTH 740 0
DWIDTH 56 0
BBX 54 74 1 0
BITMAP
0003F8007F0000
0003F8007F0000
0003FC007F0000
0001FC00FF0000
0001FE01FE0000
0001FFCFFE0000
0000FFFFFC0000
00007FFFFC0000
00007FFFF80000
00001FFFF00000
00000FFFC00000
000003FF000000
00000000000000
00000000000000
00000010000000
00000010000000
00000030000000
00000038000000
00000078000000
0000007C000000
000000FC000000
000000FE000000
000001FE000000
000001FF000000
000003FF000000
000003FF000000
000007FF800000
000007FF800000
00000FFFC00000
00000FFFC00000
00000FFFE00000
00001FFFE00000
00001FFFF00000
00003FFFF00000
00003FCFF80000
00007FCFF80000
00007FC7F80000
0000FF87FC0000
0000FF83FC0000
0001FF03FE0000
0001FF03FE0000
0003FE01FF0000
0003FE01FF0000
0007FC00FF8000
0007FC00FF8000
0007F8007F8000
000FF8007FC000
000FF8007FC000
001FF0003FE000
001FF0003FE000
003FE0001FF000
003FE0001FF000
007FFFFFFFF800
007FFFFFFFF800
00FFFFFFFFFC00
00FFFFFFFFFC00
01FFFFFFFFFC00
01FFFFFFFFFE00
03FFFFFFFFFE00
03FFFFFFFFFF00
03FE000001FF00
07FC000000FF80
07FC000000FF80
0FF8000000FFC0
0FF80000007FC0
1FF00000007FC0
1FF00000003FE0
3FE00000003FE0
3FE00000001FF0
7FE00000001FF0
7FC00000001FF8
FFC00000000FF8
FF800000000FFC
FF8000000007FC
ENDCHAR
STARTCHAR abreve
ENCODING 259
SWIDTH 599 0
DWIDTH 45 0
BBX 36 55 4 -1
BITMAP
03F8007F00
03F8007F00
03F8007F00
03F800FE00
03FC01FE00
01FF03FE00
01FFFFFC00
00FFFFFC00
007FFFF800
003FFFF000
001FFFE000
0007FF8000
0000FC0000
0000000000
0000000000
0000000000
0000000000
0001C00000
003FFC1FF0
00FFFF1FF0
01FFFF9FF0
07FFFFDFF0
0FFFFFFFF0
0FFFFFFFF0
1FFFFFFFF0
3FFC03FFF0
3FF000FFF0
7FE0007FF0
7FC0003FF0
FFC0003FF0
FF80001FF0
FF80001FF0
FF00000FF0
FF00000FF0
FF00000FF0
FF00000FF0
FF00000FF0
FF00000FF0
FF00000FF0
FF00000FF0
FF80001FF0
FF80001FF0
FF80001FF0
7FC0003FF0
7FE0007FF0
3FF000FFF0
3FF801FFF0
1FFF0FFFF0
1FFFFFFFF0
0FFFFFFFF0
07FFFFFFF0
03FFFFDFF0
00FFFF9FF0
007FFE1FF0
000FF00000
ENDCHAR
STARTCHAR Aogonek
ENCODING 260
SWIDTH 740 0
DWIDTH 56 0
BBX 54 78 1 -18
BITMAP
00000010000000
00000010000000
00000030000000
00000038000000
00000078000000
0000007C000000
000000FC000000
000000FE000000
000001FE000000
000001FF000000
000003FF000000
000003FF000000
000007FF800000
000007FF800000
00000FFFC00000
00000FFFC00000
00000FFFE00000
00001FFFE00000
00001FFFF00000
00003FFFF00000
00003FCFF80000
00007FCFF80000
00007FC7F80000
0000FF87FC0000
0000FF83FC0000
0001FF03FE0000
0001FF03FE0000
0003FE01FF0000
0003FE01FF0000
0007FC00FF8000
0007FC00FF8000
0007F8007F8000
000FF8007FC000
000FF8007FC000
001FF0003FE000
001FF0003FE000
003FE0001FF000
003FE0001FF000
007FFFFFFFF800
007FFFFFFFF800
00FFFFFFFFFC00
00FFFFFFFFFC00
01FFFFFFFFFC00
01FFFFFFFFFE00
03FFFFFFFFFE00
03FFFFFFFFFF00
03FE000001FF00
07FC000000FF80
07FC000000FF80
0FF8000000FFC0
0FF80000007FC0
1FF00000007FC0
1FF00000003FE0
3FE00000003FE0
3FE00000001FF0
7FE00000001FF0
7FC00000001FF8
FFC00000000FF8
FF800000000FFC
FF8000000007FC
00000000000FE0
00000000001FC0
00000000003F80
00000000007F00
0000000000FE00
0000000001FC00
0000000003F800
0000000003F800
0000000003F800
0000000003F800
0000000003FC00
0000000003FFFC
0000000003FFFC
0000000003FFFC
0000000001FFFC
0000000000FFF8
00000000007FF8
00000000003FE0
ENDCHAR
STARTCHAR aogonek
ENCODING 261
SWIDTH 599 0
DWIDTH 45 0
BBX 37 55 4 -18
BITMAP
0001C00000
003FFC1FF0
00FFFF1FF0
01FFFF9FF0
07FFFFDFF0
0FFFFFFFF0
0FFFFFFFF0
1FFFFFFFF0
3FFC03FFF0
3FF000FFF0
7FE0007FF0
7FC0003FF0
FFC0003FF0
FF80001FF0
FF80001FF0
FF00000FF0
FF00000FF0
FF00000FF0
FF00000FF0
FF00000FF0
FF00000FF0
FF00000FF0
FF00000FF0
FF80001FF0
FF80001FF0
FF80001FF0
7FC0003FF0
7FE0007FF0
3FF000FFF0
3FF801FFF0
1FFF0FFFF0
1FFFFFFFF0
0FFFFFFFF0
07FFFFFFF0
03FFFFDFF0
00FFFF9FF0
007FFE1FF0
000FF01FC0
0000007F80
000000FE00
000001FC00
000003F800
000007F800
000007F000
000007F000
00000FF000
00000FF000
00000FF808
00000FFFF0
00000FFFF0
000007FFF0
000007FFF0
000003FFF0
000001FFF0
0000007FC0
ENDCHAR
STARTCHAR Cacute
ENCODING 262
SWIDTH 700 0
DWIDTH 53 0
BBX 45 78 4 -1
BITMAP
000000004000
00000000E000
00000001F800
00000003FC00
00000007FF00
0000000FFF00
0000001FFE00
0000003FF800
0000007FF000
000000FFC000
000001FF8000
000003FF0000
000003FC0000
000000F80000
000000600000
000000000000
000000000000
000000000000
000000000000
0000001F8000
000007FFFC00
00003FFFFF80
0000FFFFFFE0
0003FFFFFFF8
0007FFFFFFF8
001FFFFFFFF8
003FFFFFFFF8
007FFFF3FFF8
00FFFE000FF8
01FFF00003F8
03FFC00000F8
03FF80000038
07FF00000018
0FFE00000008
0FFC00000000
1FF800000000
1FF000000000
3FF000000000
3FE000000000
7FE000000000
7FC000000000
7FC000000000
7F8000000000
FF8000000000
FF8000000000
FF8000000000
FF8000000000
FF8000000000
FF8000000000
FF8000000000
FF8000000000
FF8000000000
FF8000000000
FF8000000000
FF8000000000
7FC000000000
7FC000000000
7FC000000000
7FE000000000
3FE000000000
3FF000000000
1FF000000000
1FF800000000
0FFC00000000
0FFE00000018
07FF00000038
03FFC0000078
01FFE00001F8
01FFF80007F8
00FFFF003FF8
007FFFFFFFF8
001FFFFFFFF8
000FFFFFFFF8
0007FFFFFFF8
0001FFFFFFE0
00007FFFFF80
00001FFFFE00
000001FFE000
ENDCHAR
STARTCHAR cacute
ENCODING 263
SWIDTH 476 0
DWIDTH 36 0
BBX 29 58 4 -1
BITMAP
00000600
00000F80
00001FE0
00001FF8
00003FF8
00007FE0
0000FFC0
0000FF80
0001FF00
0003FE00
0007FC00
0007F800
000FF000
000FE000
00038000
00010000
00000000
00000000
00000000
00000000
0000FC00
000FFFC0
003FFFF0
00FFFFF8
01FFFFF8
03FFFFF8
0FFFFFF8
0FFFFFF8
1FFE01F8
3FF80078
3FF00038
7FE00018
7FC00008
FF800000
FF800000
FF000000
FF000000
FF000000
FF000000
FF000000
FF000000
FF000000
FF000000
FF800000
FF800000
FF800008
7FC00018
7FE00038
3FF00078
3FFC00F8
1FFF8FF8
0FFFFFF8
07FFFFF8
03FFFFF8
01FFFFF8
007FFFF8
001FFFE0
0003FE00
ENDCHAR
STARTCHAR Ccircumflex
ENCODING 264
SWIDTH 700 0
DWIDTH 53 0
BBX 45 79 4 -1
BITMAP
000000100000
0000003C0000
0000007E0000
000001FF0000
000003FF8000
000007FFC000
00000FFFE000
00001FFFF000
00003FFFF800
00007FEFFC00
0000FFC7FF00
0001FF83FF80
0000FF01FE00
00007E00FC00
00001C003800
000008000000
000000000000
000000000000
000000000000
000000000000
0000001F8000
000007FFFC00
00003FFFFF80
0000FFFFFFE0
0003FFFFFFF8
0007FFFFFFF8
001FFFFFFFF8
003FFFFFFFF8
007FFFF3FFF8
00FFFE000FF8
01FFF00003F8
03FFC00000F8
03FF80000038
07FF00000018
0FFE00000008
0FFC00000000
1FF800000000
1FF000000000
3FF000000000
3FE000000000
7FE000000000
7FC000000000
7FC000000000
7F8000000000
FF8000000000
FF8000000000
FF8000000000
FF8000000000
FF8000000000
FF8000000000
FF8000000000
FF8000000000
FF8000000000
FF8000000000
FF8000000000
FF8000000000
7FC000000000
7FC000000000
7FC000000000
7FE000000000
3FE000000000
3FF000000000
1FF000000000
1FF800000000
0FFC00000000
0FFE00000018
07FF00000038
03FFC0000078
01FFE00001F8
01FFF80007F8
00FFFF003FF8
007FFFFFFFF8
001FFFFFFFF8
000FFFFFFFF8
0007FFFFFFF8
0001FFFFFFE0
00007FFFFF80
00001FFFFE00
000001FFE000
ENDCHAR
STARTCHAR ccircumflex
ENCODING 265
SWIDTH 476 0
DWIDTH 36 0
BBX 30 58 4 -1
BITMAP
0000C000
0001E000
0003F000
0007F800
000FFC00
001FFF00
003FFF80
007FFFC0
00FFFFE0
03FF3FF0
07FE1FF8
0FFC0FFC
03F807F8
01F003F0
00E001C0
00400080
00000000
00000000
00000000
00000000
0000FC00
000FFFC0
003FFFF0
00FFFFF8
01FFFFF8
03FFFFF8
0FFFFFF8
0FFFFFF8
1FFE01F8
3FF80078
3FF00038
7FE00018
7FC00008
FF800000
FF800000
FF000000
FF000000
FF000000
FF000000
FF000000
FF000000
FF000000
FF000000
FF800000
FF800000
FF800008
7FC00018
7FE00038
3FF00078
3FFC00F8
1FFF8FF8
0FFFFFF8
07FFFFF8
03FFFFF8
01FFFFF8
007FFFF8
001FFFE0
0003FE00
ENDCHAR
STARTCHAR Cdotaccent
ENCODING 266
SWIDTH 700 0
DWIDTH 53 0
BBX 45 74 4 -1
BITMAP
0000000C0000
0000007F0000
000000FF8000
000000FFC000
000001FFC000
000001FFC000
000001FFC000
000000FFC000
000000FFC000
0000007F8000
0000003F0000
000000000000
000000000000
000000000000
000000000000
0000001F8000
000007FFFC00
00003FFFFF80
0000FFFFFFE0
0003FFFFFFF8
0007FFFFFFF8
001FFFFFFFF8
003FFFFFFFF8
007FFFF3FFF8
00FFFE000FF8
01FFF00003F8
03FFC00000F8
03FF80000038
07FF00000018
0FFE00000008
0FFC00000000
1FF800000000
1FF000000000
3FF000000000
3FE000000000
7FE000000000
7FC000000000
7FC000000000
7F8000000000
FF8000000000
FF8000000000
FF8000000000
FF8000000000
FF8000000000
FF8000000000
FF8000000000
FF8000000000
FF8000000000
FF8000000000
FF8000000000
FF8000000000
7FC000000000
7FC000000000
7FC000000000
7FE000000000
3FE000000000
3FF000000000
1FF000000000
1FF800000000
0FFC00000000
0FFE00000018
07FF00000038
03FFC0000078
01FFE00001F8
01FFF80007F8
00FFFF003FF8
007FFFFFFFF8
001FFFFFFFF8
000FFFFFFFF8
0007FFFFFFF8
0001FFFFFFE0
00007FFFFF80
00001FFFFE00
000001FFE000
ENDCHAR
STARTCHAR cdotaccent
ENCODING 267
SWIDTH 476 0
DWIDTH 36 0
BBX 29 54 4 -1
BITMAP
0000C000
0003F800
0007FC00
000FFC00
000FFE00
000FFE00
000FFE00
000FFC00
000FFC00
0007F800
0003F000
00000000
00000000
00000000
00000000
00000000
0000FC00
000FFFC0
003FFFF0
00FFFFF8
01FFFFF8
03FFFFF8
0FFFFFF8
0FFFFFF8
1FFE01F8
3FF80078
3FF00038
7FE00018
7FC00008
FF800000
FF800000
FF000000
FF000000
FF000000
FF000000
FF000000
FF000000
FF000000
FF000000
FF800000
FF800000
FF800008
7FC00018
7FE00038
3FF00078
3FFC00F8
1FFF8FF8
0FFFFFF8
07FFFFF8
03FFFFF8
01FFFFF8
007FFFF8
001FFFE0
0003FE00
ENDCHAR
STARTCHAR Ccaron
ENCODING 268
SWIDTH 700 0
DWIDTH 53 0
BBX 45 78 4 -1
BITMAP
00000C001800
00003F007E00
00007F80FF00
0000FFC1FF80
0000FFE3FF00
00003FF7FE00
00001FFFFC00
00000FFFF800
000007FFF000
000003FFE000
000001FFC000
000000FF8000
0000007F0000
0000003E0000
0000000C0000
000000000000
000000000000
000000000000
000000000000
0000001F8000
000007FFFC00
00003FFFFF80
0000FFFFFFE0
0003FFFFFFF8
0007FFFFFFF8
001FFFFFFFF8
003FFFFFFFF8
007FFFF3FFF8
00FFFE000FF8
01FFF00003F8
03FFC00000F8
03FF80000038
07FF00000018
0FFE00000008
0FFC00000000
1FF800000000
1FF000000000
3FF000000000
3FE000000000
7FE000000000
7FC000000000
7FC000000000
7F8000000000
FF8000000000
FF8000000000
FF8000000000
FF8000000000
FF8000000000
FF8000000000
FF8000000000
FF8000000000
FF8000000000
FF8000000000
FF8000000000
FF8000000000
7FC000000000
7FC000000000
7FC000000000
7FE000000000
3FE000000000
3FF000000000
1FF000000000
1FF800000000
0FFC00000000
0FFE00000018
07FF00000038
03FFC0000078
01FFE00001F8
01FFF80007F8
00FFFF003FF8
007FFFFFFFF8
001FFFFFFFF8
000FFFFFFFF8
0007FFFFFFF8
0001FFFFFFE0
00007FFFFF80
00001FFFFE00
000001FFE000
ENDCHAR
STARTCHAR ccaron
ENCODING 269
SWIDTH 476 0
DWIDTH 36 0
BBX 29 58 4 -1
BITMAP
00C00180
01E003C0
03F007F0
07F80FF8
0FFC1FF8
07FF3FF0
03FFFFE0
00FFFFC0
007FFF80
003FFF00
001FFE00
000FFC00
0007F000
0003E000
0001C000
00008000
00000000
00000000
00000000
00000000
0000FC00
000FFFC0
003FFFF0
00FFFFF8
01FFFFF8
03FFFFF8
0FFFFFF8
0FFFFFF8
1FFE01F8
3FF80078
3FF00038
7FE00018
7FC00008
FF800000
FF800000
FF000000
FF000000
FF000000
FF000000
FF000000
FF000000
FF000000
FF000000
FF800000
FF800000
FF800008
7FC00018
7FE00038
3FF00078
3FFC00F8
1FFF8FF8
0FFFFFF8
07FFFFF8
03FFFFF8
01FFFFF8
007FFFF8
001FFFE0
0003FE00
ENDCHAR
STARTCHAR Dcaron
ENCODING 270
SWIDTH 726 0
DWIDTH 54 0
BBX 43 78 7 0
BITMAP
000002000000
038007000000
07C00FC00000
0FE01FE00000
1FF83FF00000
1FFC7FE00000
0FFEFFC00000
03FFFF800000
01FFFF000000
00FFFE000000
007FFC000000
003FF8000000
001FF0000000
000FE0000000
000780000000
000300000000
000000000000
000000000000
000000000000
000000000000
000000000000
FFF000000000
FFFFFE000000
FFFFFFC00000
FFFFFFF80000
FFFFFFFC0000
FFFFFFFF0000
FFFFFFFF8000
FFFFFFFFC000
FF0FFFFFF000
FF0007FFF800
FF0000FFF800
FF00003FFC00
FF00001FFE00
FF00000FFF00
FF000003FF00
FF000003FF80
FF000001FF80
FF000000FFC0
FF000000FFC0
FF0000007FC0
FF0000007FC0
FF0000003FE0
FF0000003FE0
FF0000003FE0
FF0000001FE0
FF0000001FE0
FF0000001FE0
FF0000001FE0
FF0000001FE0
FF0000001FE0
FF0000001FE0
FF0000001FE0
FF0000001FE0
FF0000003FE0
FF0000003FE0
FF0000003FE0
FF0000003FE0
FF0000007FC0
FF0000007FC0
FF000000FFC0
FF000001FF80
FF000001FF80
FF000003FF00
FF000007FF00
FF00000FFE00
FF00003FFC00
FF00007FFC00
FF0003FFF800
FF001FFFF000
FFFFFFFFE000
FFFFFFFFC000
FFFFFFFF0000
FFFFFFFE0000
FFFFFFF80000
FFFFFFE00000
FFFFFF800000
FFFFF0000000
ENDCHAR
STARTCHAR dcaron
ENCODING 271
SWIDTH 708 0
DWIDTH 53 0
BBX 48 63 4 -1
BITMAP
0000001FF000
0000001FF000
0000001FF000
0000001FF000
0000001FF000
0000001FF000
0000001FF0FF
0000001FF0FF
0000001FF0FF
0000001FF0FF
0000001FF0FF
0000001FF0FF
0000001FF0FF
0000001FF0FF
0000001FF0FF
0000001FF01F
0000001FF01F
0000001FF03F
0000001FF03F
0000001FF03E
0000001FF07E
0000001FF07C
0000001FF07C
0000001FF008
0000001FF000
0001C01FF000
003FFC1FF000
00FFFF1FF000
01FFFF9FF000
07FFFFDFF000
07FFFFFFF000
0FFFFFFFF000
1FFFFFFFF000
3FFC03FFF000
3FF000FFF000
7FE0007FF000
7FC0003FF000
FFC0003FF000
FF80001FF000
FF80001FF000
FF00000FF000
FF00000FF000
FF00000FF000
FF00000FF000
FF00000FF000
FF00000FF000
FF00000FF000
FF00000FF000
FF80001FF000
FF80001FF000
FF80001FF000
7FC0003FF000
7FE0007FF000
3FF000FFF000
3FF801FFF000
1FFF0FFFF000
1FFFFFFFF000
0FFFFFFFF000
07FFFFFFF000
03FFFFDFF000
00FFFF9FF000
007FFE1FF000
000FF8000000
ENDCHAR
STARTCHAR Dcroat
ENCODING 272
SWIDTH 726 0
DWIDTH 54 0
BBX 48 57 2 0
BITMAP
07FF80000000
07FFFFF00000
07FFFFFE0000
07FFFFFFC000
07FFFFFFE000
07FFFFFFF800
07FFFFFFFC00
07FFFFFFFE00
07F87FFFFF80
07F8003FFFC0
07F80007FFC0
07F80001FFE0
07F80000FFF0
07F800007FF8
07F800001FF8
07F800001FFC
07F800000FFC
07F8000007FE
07F8000007FE
07F8000003FE
07F8000003FE
07F8000001FF
07F8000001FF
07F8000001FF
FFFFFF8000FF
FFFFFF8000FF
FFFFFF8000FF
FFFFFF8000FF
FFFFFF8000FF
FFFFFF8000FF
FFFFFF8000FF
07F8000000FF
07F8000000FF
07F8000001FF
07F8000001FF
07F8000001FF
07F8000001FF
07F8000003FE
07F8000003FE
07F8000007FE
07F800000FFC
07F800000FFC
07F800001FF8
07F800003FF8
07F800007FF0
07F80001FFE0
07F80003FFE0
07F8001FFFC0
07F800FFFF80
07FFFFFFFF00
07FFFFFFFE00
07FFFFFFF800
07FFFFFFF000
07FFFFFFC000
07FFFFFF0000
07FFFFFC0000
07FFFF800000
ENDCHAR
STARTCHAR dcroat
ENCODING 273
SWIDTH 599 0
DWIDTH 45 0
BBX 42 63 4 -1
BITMAP
0000001FF000
0000001FF000
0000001FF000
0000001FF000
0000001FF000
0000001FF000
0000001FF000
0000001FF000
0000001FF000
0000001FF000
0000001FF000
00001FFFFFC0
00001FFFFFC0
00001FFFFFC0
00001FFFFFC0
00001FFFFFC0
00001FFFFFC0
00001FFFFFC0
0000001FF000
0000001FF000
0000001FF000
0000001FF000
0000001FF000
0000001FF000
0000001FF000
0001C01FF000
003FFC1FF000
00FFFF1FF000
01FFFF9FF000
07FFFFDFF000
07FFFFFFF000
0FFFFFFFF000
1FFFFFFFF000
3FFC03FFF000
3FF000FFF000
7FE0007FF000
7FC0003FF000
FFC0003FF000
FF80001FF000
FF80001FF000
FF00000FF000
FF00000FF000
FF00000FF000
FF00000FF000
FF00000FF000
FF00000FF000
FF00000FF000
FF00000FF000
FF80001FF000
FF80001FF000
FF80001FF000
7FC0003FF000
7FE0007FF000
3FF000FFF000
3FF801FFF000
1FFF0FFFF000
1FFFFFFFF000
0FFFFFFFF000
07FFFFFFF000
03FFFFDFF000
00FFFF9FF000
007FFE1FF000
000FF8000000
ENDCHAR
STARTCHAR Emacron
ENCODING 274
SWIDTH 565 0
DWIDTH 42 0
BBX 31 70 7 0
BITMAP
3FFFFFF0
3FFFFFF0
3FFFFFF0
3FFFFFF0
3FFFFFF0
3FFFFFF0
3FFFFFF0
00000000
00000000
00000000
00000000
00000000
00000000
FFFFFFFE
FFFFFFFE
FFFFFFFE
FFFFFFFE
FFFFFFFE
FFFFFFFE
FFFFFFFE
FFFFFFFE
FF000000
FF000000
FF000000
FF000000
FF000000
FF000000
FF000000
FF000000
FF000000
FF000000
FF000000
FF000000
FF000000
FF000000
FFFFFFFC
FFFFFFFC
FFFFFFFC
FFFFFFFC
FFFFFFFC
FFFFFFFC
FFFFFFFC
FFFFFFFC
FF000000
FF000000
FF000000
FF000000
FF000000
FF000000
FF000000
FF000000
FF000000
FF000000
FF000000
FF000000
FF000000
FF000000
FF000000
FF000000
FF000000
FF000000
FF000000
FFFFFFFE
FFFFFFFE
FFFFFFFE
FFFFFFFE
FFFFFFFE
FFFFFFFE
FFFFFFFE
FFFFFFFE
ENDCHAR
STARTCHAR emacron
ENCODING 275
SWIDTH 553 0
DWIDTH 41 0
BBX 34 50 4 -1
BITMAP
0FFFFFFC00
0FFFFFFC00
0FFFFFFC00
0FFFFFFC00
0FFFFFFC00
0FFFFFFC00
0000000000
0000000000
0000000000
0000000000
0000000000
0000000000
0001E00000
003FFF0000
00FFFFC000
03FFFFE000
07FFFFF000
0FFFFFF800
1FFFFFFC00
1FFFFFFE00
3FF807FE00
3FF003FF00
7FE001FF00
7FC000FF80
FF80007F80
FF80007F80
FFFFFFFF80
FFFFFFFF80
FFFFFFFFC0
FFFFFFFFC0
FFFFFFFFC0
FFFFFFFFC0
FFFFFFFFC0
FF00000000
FF00000000
FF80000000
FF80001000
FF80003C00
7FC0007F00
7FC000FFC0
7FE001FF80
3FF803FF80
3FFF1FFF00
1FFFFFFE00
0FFFFFFC00
07FFFFFC00
03FFFFF000
01FFFFE000
007FFF8000
000FFC0000
ENDCHAR
STARTCHAR Ebreve
ENCODING 276
SWIDTH 565 0
DWIDTH 42 0
BBX 31 75 7 0
BITMAP
3F8003F0
3F8007F0
3F8007F0
1FC007F0
1FE00FF0
1FF01FE0
0FFFFFE0
0FFFFFC0
07FFFFC0
03FFFF80
01FFFE00
007FFC00
000FC000
00000000
00000000
00000000
00000000
00000000
FFFFFFFE
FFFFFFFE
FFFFFFFE
FFFFFFFE
FFFFFFFE
FFFFFFFE
FFFFFFFE
FFFFFFFE
FF000000
FF000000
FF000000
FF000000
FF000000
FF000000
FF000000
FF000000
FF000000
FF000000
FF000000
FF000000
FF000000
FF000000
FFFFFFFC
FFFFFFFC
FFFFFFFC
FFFFFFFC
FFFFFFFC
FFFFFFFC
FFFFFFFC
FFFFFFFC
FF000000
FF000000
FF000000
FF000000
FF000000
FF000000
FF000000
FF000000
FF000000
FF000000
FF000000
FF000000
FF000000
FF000000
FF000000
FF000000
FF000000
FF000000
FF000000
FFFFFFFE
FFFFFFFE
FFFFFFFE
FFFFFFFE
FFFFFFFE
FFFFFFFE
FFFFFFFE
FFFFFFFE
ENDCHAR
STARTCHAR ebreve
ENCODING 277
SWIDTH 553 0
DWIDTH 41 0
BBX 34 55 4 -1
BITMAP
0FE000FC00
0FE001FC00
0FE001FC00
07F001FC00
07F803FC00
07FC0FF800
03FFFFF800
03FFFFF000
01FFFFE000
00FFFFE000
007FFF8000
001FFF0000
0003F00000
0000000000
0000000000
0000000000
0000000000
0001E00000
003FFF0000
00FFFFC000
03FFFFE000
07FFFFF000
0FFFFFF800
1FFFFFFC00
1FFFFFFE00
3FF807FE00
3FF003FF00
7FE001FF00
7FC000FF80
FF80007F80
FF80007F80
FFFFFFFF80
FFFFFFFF80
FFFFFFFFC0
FFFFFFFFC0
FFFFFFFFC0
FFFFFFFFC0
FFFFFFFFC0
FF00000000
FF00000000
FF80000000
FF80001000
FF80003C00
7FC0007F00
7FC000FFC0
7FE001FF80
3FF803FF80
3FFF1FFF00
1FFFFFFE00
0FFFFFFC00
07FFFFFC00
03FFFFF000
01FFFFE000
007FFF8000
000FFC0000
ENDCHAR
STARTCHAR Edotaccent
ENCODING 278
SWIDTH 565 0
DWIDTH 42 0
BBX 31 73 7 0
BITMAP
0007C000
001FE000
001FF000
003FF800
003FF800
003FF800
003FF800
003FF800
001FF000
000FE000
00038000
00000000
00000000
00000000
00000000
00000000
FFFFFFFE
FFFFFFFE
FFFFFFFE
FFFFFFFE
FFFFFFFE
FFFFFFFE
FFFFFFFE
FFFFFFFE
FF000000
FF000000
FF000000
FF000000
FF000000
FF000000
FF000000
FF000000
FF000000
FF000000
FF000000
FF000000
FF000000
FF000000
FFFFFFFC
FFFFFFFC
FFFFFFFC
FFFFFFFC
FFFFFFFC
FFFFFFFC
FFFFFFFC
FFFFFFFC
FF000000
FF000000
FF000000
FF000000
FF000000
FF000000
FF000000
FF000000
FF000000
FF000000
FF000000
FF000000
FF000000
FF000000
FF000000
FF000000
FF000000
FF000000
FF000000
FFFFFFFE
FFFFFFFE
FFFFFFFE
FFFFFFFE
FFFFFFFE
FFFFFFFE
FFFFFFFE
FFFFFFFE
ENDCHAR
STARTCHAR edotaccent
ENCODING 279
SWIDTH 553 0
DWIDTH 41 0
BBX 34 54 4 -1
BITMAP
0001C00000
0003F80000
0007F80000
000FFC0000
000FFC0000
000FFE0000
000FFE0000
000FFC0000
000FFC0000
0007F80000
0003F00000
0000000000
0000000000
0000000000
0000000000
0000000000
0001E00000
003FFF0000
00FFFFC000
03FFFFE000
07FFFFF000
0FFFFFF800
1FFFFFFC00
1FFFFFFE00
3FF807FE00
3FF003FF00
7FE001FF00
7FC000FF80
FF80007F80
FF80007F80
FFFFFFFF80
FFFFFFFF80
FFFFFFFFC0
FFFFFFFFC0
FFFFFFFFC0
FFFFFFFFC0
FFFFFFFFC0
FF00000000
FF00000000
FF80000000
FF80001000
FF80003C00
7FC0007F00
7FC000FFC0
7FE001FF80
3FF803FF80
3FFF1FFF00
1FFFFFFE00
0FFFFFFC00
07FFFFFC00
03FFFFF000
01FFFFE000
007FFF8000
000FFC0000
ENDCHAR
STARTCHAR Eogonek
ENCODING 280
SWIDTH 565 0
DWIDTH 42 0
BBX 33 75 7 -18
BITMAP
FFFFFFFE00
FFFFFFFE00
FFFFFFFE00
FFFFFFFE00
FFFFFFFE00
FFFFFFFE00
FFFFFFFE00
FFFFFFFE00
FF00000000
FF00000000
FF00000000
FF00000000
FF00000000
FF00000000
FF00000000
FF00000000
FF00000000
FF00000000
FF00000000
FF00000000
FF00000000
FF00000000
FFFFFFFC00
FFFFFFFC00
FFFFFFFC00
FFFFFFFC00
FFFFFFFC00
FFFFFFFC00
FFFFFFFC00
FFFFFFFC00
FF00000000
FF00000000
FF00000000
FF00000000
FF00000000
FF00000000
FF00000000
FF00000000
FF00000000
FF00000000
FF00000000
FF00000000
FF00000000
FF00000000
FF00000000
FF00000000
FF00000000
FF00000000
FF00000000
FFFFFFFE00
FFFFFFFE00
FFFFFFFE00
FFFFFFFE00
FFFFFFFE00
FFFFFFFE00
FFFFFFFE00
FFFFFFFE00
000001FC00
000003F800
00000FF000
00001FE000
00003FC000
00003F8000
00007F0000
00007F0000
00007F0000
0000FF0000
0000FF8000
0000FFFF80
00007FFF80
00007FFF80
00003FFF00
00003FFF00
00000FFF00
000007FC00
ENDCHAR
STARTCHAR eogonek
ENCODING 281
SWIDTH 553 0
DWIDTH 41 0
BBX 34 55 4 -18
BITMAP
0001E00000
003FFF0000
00FFFFC000
03FFFFE000
07FFFFF000
0FFFFFF800
1FFFFFFC00
1FFFFFFE00
3FF807FE00
3FF003FF00
7FE001FF00
7FC000FF80
FF80007F80
FF80007F80
FFFFFFFF80
FFFFFFFF80
FFFFFFFFC0
FFFFFFFFC0
FFFFFFFFC0
FFFFFFFFC0
FFFFFFFFC0
FF00000000
FF00000000
FF80000000
FF80001000
FF80003C00
7FC0007F00
7FC000FFC0
7FE001FF80
3FF803FF80
3FFF1FFF00
1FFFFFFE00
0FFFFFFC00
07FFFFFC00
03FFFFF000
01FFFFE000
007FFF8000
000FFE0000
0003FC0000
0007F00000
000FE00000
001FC00000
003FC00000
003F800000
003F800000
007F800000
007F800000
007FC04000
007FFFC000
007FFF8000
003FFF8000
003FFF8000
001FFF8000
000FFF8000
0003FE0000
ENDCHAR
STARTCHAR Ecaron
ENCODING 282
SWIDTH 565 0
DWIDTH 42 0
BBX 31 78 7 0
BITMAP
01000200
03800700
07C00F80
1FE01FE0
3FF03FF0
1FF87FE0
0FFCFFC0
07FFFF80
03FFFF00
01FFFE00
007FFC00
003FF000
001FE000
000FC000
00078000
00030000
00000000
00000000
00000000
00000000
00000000
FFFFFFFE
FFFFFFFE
FFFFFFFE
FFFFFFFE
FFFFFFFE
FFFFFFFE
FFFFFFFE
FFFFFFFE
FF000000
FF000000
FF000000
FF000000
FF000000
FF000000
FF000000
FF000000
FF000000
FF000000
FF000000
FF000000
FF000000
FF000000
FFFFFFFC
FFFFFFFC
FFFFFFFC
FFFFFFFC
FFFFFFFC
FFFFFFFC
FFFFFFFC
FFFFFFFC
FF000000
FF000000
FF000000
FF000000
FF000000
FF000000
FF000000
FF000000
FF000000
FF000000
FF000000
FF000000
FF000000
FF000000
FF000000
FF000000
FF000000
FF000000
FF000000
FFFFFFFE
FFFFFFFE
FFFFFFFE
FFFFFFFE
FFFFFFFE
FFFFFFFE
FFFFFFFE
FFFFFFFE
ENDCHAR
STARTCHAR ecaron
ENCODING 283
SWIDTH 553 0
DWIDTH 41 0
BBX 34 58 4 -1
BITMAP
006000C000
00F001E000
03F803F000
07FC07F800
07FE0FFC00
03FF1FF800
01FFFFF000
00FFFFC000
007FFF8000
003FFF0000
001FFE0000
000FFC0000
0003F80000
0001F00000
0000E00000
0000400000
0000000000
0000000000
0000000000
0000000000
0001E00000
003FFF0000
00FFFFC000
03FFFFE000
07FFFFF000
0FFFFFF800
1FFFFFFC00
1FFFFFFE00
3FF807FE00
3FF003FF00
7FE001FF00
7FC000FF80
FF80007F80
FF80007F80
FFFFFFFF80
FFFFFFFF80
FFFFFFFFC0
FFFFFFFFC0
FFFFFFFFC0
FFFFFFFFC0
FFFFFFFFC0
FF00000000
FF00000000
FF80000000
FF80001000
FF80003C00
7FC0007F00
7FC000FFC0
7FE001FF80
3FF803FF80
3FFF1FFF00
1FFFFFFE00
0FFFFFFC00
07FFFFFC00
03FFFFF000
01FFFFE000
007FFF8000
000FFC0000
ENDCHAR
STARTCHAR Gcircumflex
ENCODING 284
SWIDTH 842 0
DWIDTH 63 0
BBX 55 79 4 -1
BITMAP
0000000C000000
0000001E000000
0000003F000000
0000007F800000
000000FFE00000
000001FFF00000
000003FFF80000
000007FFFC0000
00000FFFFE0000
00001FFBFF0000
00003FF1FF8000
0000FFE0FFC000
00003FC07F8000
00001F003F0000
00000E001C0000
00000000080000
00000000000000
00000000000000
00000000000000
00000000000000
0000003F800000
000007FFFC0000
00003FFFFF8000
0000FFFFFFE000
0003FFFFFFF000
0007FFFFFFFC00
001FFFFFFFFE00
003FFFFFFFFF00
007FFFF9FFFF80
00FFFE000FFFE0
01FFF00003FFE0
03FFE00000FFF0
07FF8000003FF0
07FF0000001FE0
0FFE0000000FC0
0FFC0000000780
1FF80000000300
3FF00000000200
3FF00000000000
3FE00000000000
7FC00000000000
7FC00000000000
7FC00000000000
7F800000000000
FF800000000000
FF800000000000
FF800000000000
FF800000000000
FF800000000000
FF800000FFFFFE
FF800000FFFFFE
FF800000FFFFFE
FF800000FFFFFE
FF800000FFFFFE
FF800000FFFFFE
FF800000FFFFFE
7F800000FFFFFE
7FC000000003FE
7FC000000003FE
7FE000000007FC
3FE000000007FC
3FF000000007FC
1FF80000000FF8
1FF80000001FF8
0FFC0000001FF8
0FFE0000003FF0
07FF8000007FE0
03FFC00001FFE0
01FFF00003FFC0
01FFFC000FFF80
00FFFF807FFF80
007FFFFFFFFF00
001FFFFFFFFC00
000FFFFFFFF800
0007FFFFFFF000
0001FFFFFFC000
00007FFFFF8000
00001FFFFC0000
000001FFE00000
ENDCHAR
STARTCHAR gcircumflex
ENCODING 285
SWIDTH 598 0
DWIDTH 45 0
BBX 36 76 4 -19
BITMAP
0000C00000
0001E00000
0003F00000
0007F80000
000FFC0000
001FFF0000
003FFF8000
007FFFC000
00FFFFE000
03FF3FF000
07FE1FF800
0FFC0FFC00
03F807F800
01F003F000
00E001C000
0040008000
0000000000
0000000000
0000000000
0000000000
0001C00000
003FFC1FF0
00FFFF1FF0
01FFFF9FF0
07FFFFFFF0
0FFFFFFFF0
0FFFFFFFF0
1FFFFFFFF0
3FFC03FFF0
3FF001FFF0
7FE0007FF0
7FC0007FF0
FFC0003FF0
FF80001FF0
FF80001FF0
FF00001FF0
FF00000FF0
FF00000FF0
FF00000FF0
FF00000FF0
FF00000FF0
FF00000FF0
FF00001FF0
FF80001FF0
FF80001FF0
FF80003FF0
7FC0003FF0
7FE0007FF0
7FF000FFF0
3FF801FFF0
3FFF0FFFF0
1FFFFFFFF0
0FFFFFFFF0
07FFFFFFF0
03FFFFDFF0
01FFFF9FF0
007FFE1FF0
000FF01FF0
0000001FF0
0000001FF0
0000001FF0
0000001FE0
7FC0001FE0
7FC0001FE0
3FC0003FE0
3FE0003FE0
3FF0007FC0
1FF800FFC0
1FFE03FF80
0FFFFFFF80
0FFFFFFF00
07FFFFFE00
03FFFFFC00
00FFFFF800
007FFFE000
000FFF8000
ENDCHAR
STARTCHAR Gbreve
ENCODING 286
SWIDTH 842 0
DWIDTH 63 0
BBX 55 75 4 -1
BITMAP
0000FC001FC000
0000FE001FC000
0000FE003F8000
0000FF003F8000
00007F807F8000
00007FF7FF0000
00003FFFFF0000
00003FFFFE0000
00001FFFFC0000
00000FFFF80000
000003FFF00000
000000FF800000
00000000000000
00000000000000
00000000000000
00000000000000
0000003F800000
000007FFFC0000
00003FFFFF8000
0000FFFFFFE000
0003FFFFFFF000
0007FFFFFFFC00
001FFFFFFFFE00
003FFFFFFFFF00
007FFFF9FFFF80
00FFFE000FFFE0
01FFF00003FFE0
03FFE00000FFF0
07FF8000003FF0
07FF0000001FE0
0FFE0000000FC0
0FFC0000000780
1FF80000000300
3FF00000000200
3FF00000000000
3FE00000000000
7FC00000000000
7FC00000000000
7FC00000000000
7F800000000000
FF800000000000
FF800000000000
FF800000000000
FF800000000000
FF800000000000
FF800000FFFFFE
FF800000FFFFFE
FF800000FFFFFE
FF800000FFFFFE
FF800000FFFFFE
FF800000FFFFFE
FF800000FFFFFE
7F800000FFFFFE
7FC000000003FE
7FC000000003FE
7FE000000007FC
3FE000000007FC
3FF000000007FC
1FF80000000FF8
1FF80000001FF8
0FFC0000001FF8
0FFE0000003FF0
07FF8000007FE0
03FFC00001FFE0
01FFF00003FFC0
01FFFC000FFF80
00FFFF807FFF80
007FFFFFFFFF00
001FFFFFFFFC00
000FFFFFFFF800
0007FFFFFFF000
0001FFFFFFC000
00007FFFFF8000
00001FFFFC0000
000001FFE00000
ENDCHAR
STARTCHAR gbreve
ENCODING 287
SWIDTH 598 0
DWIDTH 45 0
BBX 36 73 4 -19
BITMAP
07F000FE00
07F000FE00
07F000FE00
07F801FE00
03F801FC00
03FE07FC00
01FFFFFC00
01FFFFF800
00FFFFF000
007FFFE000
003FFFC000
000FFF0000
0001F80000
0000000000
0000000000
0000000000
0000000000
0001C00000
003FFC1FF0
00FFFF1FF0
01FFFF9FF0
07FFFFFFF0
0FFFFFFFF0
0FFFFFFFF0
1FFFFFFFF0
3FFC03FFF0
3FF001FFF0
7FE0007FF0
7FC0007FF0
FFC0003FF0
FF80001FF0
FF80001FF0
FF00001FF0
FF00000FF0
FF00000FF0
FF00000FF0
FF00000FF0
FF00000FF0
FF00000FF0
FF00001FF0
FF80001FF0
FF80001FF0
FF80003FF0
7FC0003FF0
7FE0007FF0
7FF000FFF0
3FF801FFF0
3FFF0FFFF0
1FFFFFFFF0
0FFFFFFFF0
07FFFFFFF0
03FFFFDFF0
01FFFF9FF0
007FFE1FF0
000FF01FF0
0000001FF0
0000001FF0
0000001FF0
0000001FE0
7FC0001FE0
7FC0001FE0
3FC0003FE0
3FE0003FE0
3FF0007FC0
1FF800FFC0
1FFE03FF80
0FFFFFFF80
0FFFFFFF00
07FFFFFE00
03FFFFFC00
00FFFFF800
007FFFE000
000FFF8000
ENDCHAR
STARTCHAR Gdotaccent
ENCODING 288
SWIDTH 842 0
DWIDTH 63 0
BBX 55 74 4 -1
BITMAP
0000000C000000
0000003F800000
0000007FC00000
000000FFC00000
000000FFE00000
000000FFE00000
000000FFE00000
000000FFC00000
000000FFC00000
0000007F800000
0000003F000000
00000000000000
00000000000000
00000000000000
00000000000000
0000003F800000
000007FFFC0000
00003FFFFF8000
0000FFFFFFE000
0003FFFFFFF000
0007FFFFFFFC00
001FFFFFFFFE00
003FFFFFFFFF00
007FFFF9FFFF80
00FFFE000FFFE0
01FFF00003FFE0
03FFE00000FFF0
07FF8000003FF0
07FF0000001FE0
0FFE0000000FC0
0FFC0000000780
1FF80000000300
3FF00000000200
3FF00000000000
3FE00000000000
7FC00000000000
7FC00000000000
7FC00000000000
7F800000000000
FF800000000000
FF800000000000
FF800000000000
FF800000000000
FF800000000000
FF800000FFFFFE
FF800000FFFFFE
FF800000FFFFFE
FF800000FFFFFE
FF800000FFFFFE
FF800000FFFFFE
FF800000FFFFFE
7F800000FFFFFE
7FC000000003FE
7FC000000003FE
7FE000000007FC
3FE000000007FC
3FF000000007FC
1FF80000000FF8
1FF80000001FF8
0FFC0000001FF8
0FFE0000003FF0
07FF8000007FE0
03FFC00001FFE0
01FFF00003FFC0
01FFFC000FFF80
00FFFF807FFF80
007FFFFFFFFF00
001FFFFFFFFC00
000FFFFFFFF800
0007FFFFFFF000
0001FFFFFFC000
00007FFFFF8000
00001FFFFC0000
000001FFE00000
ENDCHAR
STARTCHAR gdotaccent
ENCODING 289
SWIDTH 598 0
DWIDTH 45 0
BBX 36 72 4 -19
BITMAP
0000C00000
0003F80000
0007FC0000
000FFC0000
000FFE0000
000FFE0000
000FFE0000
000FFC0000
000FFC0000
0007F80000
0003F00000
0000000000
0000000000
0000000000
0000000000
0000000000
0001C00000
003FFC1FF0
00FFFF1FF0
01FFFF9FF0
07FFFFFFF0
0FFFFFFFF0
0FFFFFFFF0
1FFFFFFFF0
3FFC03FFF0
3FF001FFF0
7FE0007FF0
7FC0007FF0
FFC0003FF0
FF80001FF0
FF80001FF0
FF00001FF0
FF00000FF0
FF00000FF0
FF00000FF0
FF00000FF0
FF00000FF0
FF00000FF0
FF00001FF0
FF80001FF0
FF80001FF0
FF80003FF0
7FC0003FF0
7FE0007FF0
7FF000FFF0
3FF801FFF0
3FFF0FFFF0
1FFFFFFFF0
0FFFFFFFF0
07FFFFFFF0
03FFFFDFF0
01FFFF9FF0
007FFE1FF0
000FF01FF0
0000001FF0
0000001FF0
0000001FF0
0000001FE0
7FC0001FE0
7FC0001FE0
3FC0003FE0
3FE0003FE0
3FF0007FC0
1FF800FFC0
1FFE03FF80
0FFFFFFF80
0FFFFFFF00
07FFFFFE00
03FFFFFC00
00FFFFF800
007FFFE000
000FFF8000
ENDCHAR
STARTCHAR Gcedilla
ENCODING 290
SWIDTH 842 0
DWIDTH 63 0
BBX 55 80 4 -22
BITMAP
0000003F800000
000007FFFC0000
00003FFFFF8000
0000FFFFFFE000
0003FFFFFFF000
0007FFFFFFFC00
001FFFFFFFFE00
003FFFFFFFFF00
007FFFF9FFFF80
00FFFE000FFFE0
01FFF00003FFE0
03FFE00000FFF0
07FF8000003FF0
07FF0000001FE0
0FFE0000000FC0
0FFC0000000780
1FF80000000300
3FF00000000200
3FF00000000000
3FE00000000000
7FC00000000000
7FC00000000000
7FC00000000000
7F800000000000
FF800000000000
FF800000000000
FF800000000000
FF800000000000
FF800000000000
FF800000FFFFFE
FF800000FFFFFE
FF800000FFFFFE
FF800000FFFFFE
FF800000FFFFFE
FF800000FFFFFE
FF800000FFFFFE
7F800000FFFFFE
7FC000000003FE
7FC000000003FE
7FE000000007FC
3FE000000007FC
3FF000000007FC
1FF80000000FF8
1FF80000001FF8
0FFC0000001FF8
0FFE0000003FF0
07FF8000007FE0
03FFC00001FFE0
01FFF00003FFC0
01FFFC000FFF80
00FFFF807FFF80
007FFFFFFFFF00
001FFFFFFFFC00
000FFFFFFFF800
0007FFFFFFF000
0001FFFFFFC000
00007FFFFF8000
00001FFFFC0000
000001FFE00000
00000000000000
00000000000000
0000007FC00000
0000007FC00000
0000007FC00000
0000007FC00000
0000007FC00000
0000007FC00000
0000007FC00000
0000007FC00000
0000007FC00000
0000000FC00000
0000000FC00000
0000000FC00000
0000000FC00000
0000001F800000
0000001F800000
0000001F000000
0000003F000000
0000000E000000
00000002000000
ENDCHAR
STARTCHAR gcedilla
ENCODING 291
SWIDTH 598 0
DWIDTH 45 0
BBX 36 78 4 -19
BITMAP
0000E00000
0000F80000
0001F80000
0001F80000
0003F00000
0003F00000
0003E00000
0003E00000
0003E00000
0003FC0000
0003FC0000
0003FC0000
0003FC0000
0003FC0000
0003FC0000
0003FC0000
0003FC0000
0003FC0000
0000000000
0000000000
0000000000
0000000000
0001C00000
003FFC1FF0
00FFFF1FF0
01FFFF9FF0
07FFFFFFF0
0FFFFFFFF0
0FFFFFFFF0
1FFFFFFFF0
3FFC03FFF0
3FF001FFF0
7FE0007FF0
7FC0007FF0
FFC0003FF0
FF80001FF0
FF80001FF0
FF00001FF0
FF00000FF0
FF00000FF0
FF00000FF0
FF00000FF0
FF00000FF0
FF00000FF0
FF00001FF0
FF80001FF0
FF80001FF0
FF80003FF0
7FC0003FF0
7FE0007FF0
7FF000FFF0
3FF801FFF0
3FFF0FFFF0
1FFFFFFFF0
0FFFFFFFF0
07FFFFFFF0
03FFFFDFF0
01FFFF9FF0
007FFE1FF0
000FF01FF0
0000001FF0
0000001FF0
0000001FF0
0000001FE0
7FC0001FE0
7FC0001FE0
3FC0003FE0
3FE0003FE0
3FF0007FC0
1FF800FFC0
1FFE03FF80
0FFFFFFF80
0FFFFFFF00
07FFFFFE00
03FFFFFC00
00FFFFF800
007FFFE000
000FFF8000
ENDCHAR
STARTCHAR Hcircumflex
ENCODING 292
SWIDTH 733 0
DWIDTH 55 0
BBX 41 77 7 0
BITMAP
00000C000000
00001E000000
00003F000000
00007F800000
0000FFC00000
0001FFE00000
0003FFF80000
0007FFFC0000
001FFFFE0000
003FF3FF0000
007FE1FF8000
00FFC0FFC000
007F807F8000
001F003E0000
000E001C0000
000400080000
000000000000
000000000000
000000000000
000000000000
FF0000007F80
FF0000007F80
FF0000007F80
FF0000007F80
FF0000007F80
FF0000007F80
FF0000007F80
FF0000007F80
FF0000007F80
FF0000007F80
FF0000007F80
FF0000007F80
FF0000007F80
FF0000007F80
FF0000007F80
FF0000007F80
FF0000007F80
FF0000007F80
FF0000007F80
FF0000007F80
FF0000007F80
FF0000007F80
FF0000007F80
FFFFFFFFFF80
FFFFFFFFFF80
FFFFFFFFFF80
FFFFFFFFFF80
FFFFFFFFFF80
FFFFFFFFFF80
FFFFFFFFFF80
FFFFFFFFFF80
FF0000007F80
FF0000007F80
FF0000007F80
FF0000007F80
FF0000007F80
FF0000007F80
FF0000007F80
FF0000007F80
FF0000007F80
FF0000007F80
FF0000007F80
FF0000007F80
FF0000007F80
FF0000007F80
FF0000007F80
FF0000007F80
FF0000007F80
FF0000007F80
FF0000007F80
FF0000007F80
FF0000007F80
FF0000007F80
FF0000007F80
FF0000007F80
FF0000007F80
FF0000007F80
ENDCHAR
STARTCHAR hcircumflex
ENCODING 293
SWIDTH 548 0
DWIDTH 41 0
BBX 40 77 -4 0
BITMAP
000C000000
001E000000
003F000000
007F800000
00FFE00000
01FFF00000
03FFF80000
07FFFC0000
0FFFFE0000
1FFBFF0000
7FF1FF8000
FFC0FFC000
3F807F8000
1F003F0000
0E001C0000
047F880000
007F800000
007F800000
007F800000
007F800000
007F800000
007F800000
007F800000
007F800000
007F800000
007F800000
007F800000
007F800000
007F800000
007F800000
007F800000
007F800000
007F800000
007F800000
007F800000
007F800000
007F800000
007F800000
007F800000
007F800000
007F807800
007F83FF80
007F8FFFE0
007FBFFFF0
007FFFFFF8
007FFFFFFC
007FFFFFFC
007FFFFFFE
007FF807FE
007FF003FE
007FE001FF
007FE001FF
007FC001FF
007FC001FF
007FC000FF
007FC000FF
007FC000FF
007F8000FF
007F8000FF
007F8000FF
007F8000FF
007F8000FF
007F8000FF
007F8000FF
007F8000FF
007F8000FF
007F8000FF
007F8000FF
007F8000FF
007F8000FF
007F8000FF
007F8000FF
007F8000FF
007F8000FF
007F8000FF
007F8000FF
007F8000FF
ENDCHAR
STARTCHAR Hbar
ENCODING 294
SWIDTH 848 0
DWIDTH 64 0
BBX 64 57 0 0
BITMAP
001FE000001FF000
001FE000001FF000
001FE000001FF000
001FE000001FF000
001FE000001FF000
001FE000001FF000
001FE000001FF000
001FE000001FF000
FFFFFFFFFFFFFFFF
FFFFFFFFFFFFFFFF
FFFFFFFFFFFFFFFF
FFFFFFFFFFFFFFFF
FFFFFFFFFFFFFFFF
FFFFFFFFFFFFFFFF
FFFFFFFFFFFFFFFF
001FE000001FF000
001FE000001FF000
001FE000001FF000
001FE000001FF000
001FE000001FF000
001FE000001FF000
001FE000001FF000
001FE000001FF000
001FFFFFFFFFF000
001FFFFFFFFFF000
001FFFFFFFFFF000
001FFFFFFFFFF000
001FFFFFFFFFF000
001FFFFFFFFFF000
001FFFFFFFFFF000
001FFFFFFFFFF000
001FE000001FF000
001FE000001FF000
001FE000001FF000
001FE000001FF000
001FE000001FF000
001FE000001FF000
001FE000001FF000
001FE000001FF000
001FE000001FF000
001FE000001FF000
001FE000001FF000
001FE000001FF000
001FE000001FF000
001FE000001FF000
001FE000001FF000
001FE000001FF000
001FE000001FF000
001FE000001FF000
001FE000001FF000
001FE000001FF000
001FE000001FF000
001FE000001FF000
001FE000001FF000
001FE000001FF000
001FE000001FF000
001FE000001FF000
ENDCHAR
STARTCHAR hbar
ENCODING 295
SWIDTH 548 0
DWIDTH 41 0
BBX 35 62 1 0
BITMAP
0FF0000000
0FF0000000
0FF0000000
0FF0000000
0FF0000000
0FF0000000
0FF0000000
0FF0000000
0FF0000000
0FF0000000
0FF0000000
0FF0000000
0FF0000000
FFFF800000
FFFF800000
FFFF800000
FFFF800000
FFFF800000
FFFF800000
FFFF800000
0FF0000000
0FF0000000
0FF0000000
0FF0000000
0FF0000000
0FF00F0000
0FF07FF000
0FF1FFFC00
0FF7FFFE00
0FFFFFFF00
0FFFFFFF80
0FFFFFFF80
0FFFFFFFC0
0FFF00FFC0
0FFE007FC0
0FFC003FE0
0FFC003FE0
0FF8003FE0
0FF8003FE0
0FF8001FE0
0FF8001FE0
0FF8001FE0
0FF0001FE0
0FF0001FE0
0FF0001FE0
0FF0001FE0
0FF0001FE0
0FF0001FE0
0FF0001FE0
0FF0001FE0
0FF0001FE0
0FF0001FE0
0FF0001FE0
0FF0001FE0
0FF0001FE0
0FF0001FE0
0FF0001FE0
0FF0001FE0
0FF0001FE0
0FF0001FE0
0FF0001FE0
0FF0001FE0
ENDCHAR
STARTCHAR Itilde
ENCODING 296
SWIDTH 403 0
DWIDTH 30 0
BBX 30 73 0 0
BITMAP
00C00040
07FC0060
0FFF80F0
1FFFE1F8
3FFFFFFC
7FFFFFF8
7FFFFFF8
FFFFFFF0
3E07FFE0
1C01FFC0
08007F00
00000000
00000000
00000000
00000000
00000000
001FE000
001FE000
001FE000
001FE000
001FE000
001FE000
001FE000
001FE000
001FE000
001FE000
001FE000
001FE000
001FE000
001FE000
001FE000
001FE000
001FE000
001FE000
001FE000
001FE000
001FE000
001FE000
001FE000
001FE000
001FE000
001FE000
001FE000
001FE000
001FE000
001FE000
001FE000
001FE000
001FE000
001FE000
001FE000
001FE000
001FE000
001FE000
001FE000
001FE000
001FE000
001FE000
001FE000
001FE000
001FE000
001FE000
001FE000
001FE000
001FE000
001FE000
001FE000
001FE000
001FE000
001FE000
001FE000
001FE000
001FE000
ENDCHAR
STARTCHAR itilde
ENCODING 297
SWIDTH 396 0
DWIDTH 30 0
BBX 30 52 0 0
BITMAP
00C00040
07FC00E0
0FFF00F0
1FFFC1F8
3FFFFFFC
7FFFFFF8
FFFFFFF8
FF7FFFF0
7E0FFFE0
1C01FFC0
08007F00
00000000
00000000
00000000
00000000
00000000
001FE000
001FE000
001FE000
001FE000
001FE000
001FE000
001FE000
001FE000
001FE000
001FE000
001FE000
001FE000
001FE000
001FE000
001FE000
001FE000
001FE000
001FE000
001FE000
001FE000
001FE000
001FE000
001FE000
001FE000
001FE000
001FE000
001FE000
001FE000
001FE000
001FE000
001FE000
001FE000
001FE000
001FE000
001FE000
001FE000
ENDCHAR
STARTCHAR Imacron
ENCODING 298
SWIDTH 294 0
DWIDTH 22 0
BBX 22 70 0 0
BITMAP
FFFFFC
FFFFFC
FFFFFC
FFFFFC
FFFFFC
FFFFFC
FFFFFC
000000
000000
000000
000000
000000
000000
01FE00
01FE00
01FE00
01FE00
01FE00
01FE00
01FE00
01FE00
01FE00
01FE00
01FE00
01FE00
01FE00
01FE00
01FE00
01FE00
01FE00
01FE00
01FE00
01FE00
01FE00
01FE00
01FE00
01FE00
01FE00
01FE00
01FE00
01FE00
01FE00
01FE00
01FE00
01FE00
01FE00
01FE00
01FE00
01FE00
01FE00
01FE00
01FE00
01FE00
01FE00
01FE00
01FE00
01FE00
01FE00
01FE00
01FE00
01FE00
01FE00
01FE00
01FE00
01FE00
01FE00
01FE00
01FE00
01FE00
01FE00
ENDCHAR
STARTCHAR imacron
ENCODING 299
SWIDTH 249 0
DWIDTH 19 0
BBX 19 49 0 0
BITMAP
FFFFE0
FFFFE0
FFFFE0
FFFFE0
FFFFE0
FFFFE0
000000
000000
000000
000000
000000
000000
000000
07F800
07F800
07F800
07F800
07F800
07F800
07F800
07F800
07F800
07F800
07F800
07F800
07F800
07F800
07F800
07F800
07F800
07F800
07F800
07F800
07F800
07F800
07F800
07F800
07F800
07F800
07F800
07F800
07F800
07F800
07F800
07F800
07F800
07F800
07F800
07F800
ENDCHAR
STARTCHAR Ibreve
ENCODING 300
SWIDTH 352 0
DWIDTH 26 0
BBX 26 74 0 0
BITMAP
FE001FC0
FE001FC0
FE001FC0
FF003FC0
7F003F80
7FC0FF80
3FFFFF80
3FFFFF00
1FFFFE00
0FFFFC00
07FFF800
01FFF000
003F0000
00000000
00000000
00000000
00000000
007FC000
007FC000
007FC000
007FC000
007FC000
007FC000
007FC000
007FC000
007FC000
007FC000
007FC000
007FC000
007FC000
007FC000
007FC000
007FC000
007FC000
007FC000
007FC000
007FC000
007FC000
007FC000
007FC000
007FC000
007FC000
007FC000
007FC000
007FC000
007FC000
007FC000
007FC000
007FC000
007FC000
007FC000
007FC000
007FC000
007FC000
007FC000
007FC000
007FC000
007FC000
007FC000
007FC000
007FC000
007FC000
007FC000
007FC000
007FC000
007FC000
007FC000
007FC000
007FC000
007FC000
007FC000
007FC000
007FC000
007FC000
ENDCHAR
STARTCHAR ibreve
ENCODING 301
SWIDTH 349 0
DWIDTH 26 0
BBX 26 54 0 0
BITMAP
FE001FC0
FE001FC0
FE001FC0
FF003FC0
7F803F80
7FC0FF80
3FFFFF80
3FFFFF00
1FFFFE00
0FFFFC00
07FFF800
01FFE000
003F0000
00000000
00000000
00000000
00000000
00000000
007F8000
007F8000
007F8000
007F8000
007F8000
007F8000
007F8000
007F8000
007F8000
007F8000
007F8000
007F8000
007F8000
007F8000
007F8000
007F8000
007F8000
007F8000
007F8000
007F8000
007F8000
007F8000
007F8000
007F8000
007F8000
007F8000
007F8000
007F8000
007F8000
007F8000
007F8000
007F8000
007F8000
007F8000
007F8000
007F8000
ENDCHAR
STARTCHAR Iogonek
ENCODING 302
SWIDTH 294 0
DWIDTH 22 0
BBX 17 75 -1 -18
BITMAP
00FF00
00FF00
00FF00
00FF00
00FF00
00FF00
00FF00
00FF00
00FF00
00FF00
00FF00
00FF00
00FF00
00FF00
00FF00
00FF00
00FF00
00FF00
00FF00
00FF00
00FF00
00FF00
00FF00
00FF00
00FF00
00FF00
00FF00
00FF00
00FF00
00FF00
00FF00
00FF00
00FF00
00FF00
00FF00
00FF00
00FF00
00FF00
00FF00
00FF00
00FF00
00FF00
00FF00
00FF00
00FF00
00FF00
00FF00
00FF00
00FF00
00FF00
00FF00
00FF00
00FF00
00FF00
00FF00
00FF00
00FF00
01FC00
03F800
0FF000
1FE000
3FC000
3F8000
7F0000
7F0000
7F0000
FF0000
FF8000
FFFF80
7FFF80
7FFF80
3FFF00
3FFF00
0FFF00
07FC00
ENDCHAR
STARTCHAR iogonek
ENCODING 303
SWIDTH 249 0
DWIDTH 19 0
BBX 17 74 -2 -18
BITMAP
003800
00FE00
01FF00
03FF00
03FF80
03FF80
03FF80
03FF00
01FF00
00FE00
007800
000000
000000
000000
000000
000000
000000
000000
000000
000000
01FE00
01FE00
01FE00
01FE00
01FE00
01FE00
01FE00
01FE00
01FE00
01FE00
01FE00
01FE00
01FE00
01FE00
01FE00
01FE00
01FE00
01FE00
01FE00
01FE00
01FE00
01FE00
01FE00
01FE00
01FE00
01FE00
01FE00
01FE00
01FE00
01FE00
01FE00
01FE00
01FE00
01FE00
01FE00
01FE00
01FC00
07F000
0FE000
1FC000
3F8000
7F0000
7F0000
FE0000
FE0000
FF0000
FF0000
FFFF00
FFFF00
FFFF00
7FFF00
3FFF00
1FFF00
07FC00
ENDCHAR
STARTCHAR Idotaccent
ENCODING 304
SWIDTH 294 0
DWIDTH 22 0
BBX 11 73 6 0
BITMAP
3F00
7F80
FFC0
FFC0
FFE0
FFE0
FFC0
FFC0
7FC0
7F80
0E00
0000
0000
0000
0000
0000
7F80
7F80
7F80
7F80
7F80
7F80
7F80
7F80
7F80
7F80
7F80
7F80
7F80
7F80
7F80
7F80
7F80
7F80
7F80
7F80
7F80
7F80
7F80
7F80
7F80
7F80
7F80
7F80
7F80
7F80
7F80
7F80
7F80
7F80
7F80
7F80
7F80
7F80
7F80
7F80
7F80
7F80
7F80
7F80
7F80
7F80
7F80
7F80
7F80
7F80
7F80
7F80
7F80
7F80
7F80
7F80
7F80
ENDCHAR
STARTCHAR dotlessi
ENCODING 305
SWIDTH 249 0
DWIDTH 19 0
BBX 8 36 5 0
BITMAP
FF
FF
FF
FF
FF
FF
FF
FF
FF
FF
FF
FF
FF
FF
FF
FF
FF
FF
FF
FF
FF
FF
FF
FF
FF
FF
FF
FF
FF
FF
FF
FF
FF
FF
FF
FF
ENDCHAR
STARTCHAR IJ
ENCODING 306
SWIDTH 722 0
DWIDTH 54 0
BBX 41 58 7 -1
BITMAP
FF000000FF80
FF000000FF80
FF000000FF80
FF000000FF80
FF000000FF80
FF000000FF80
FF000000FF80
FF000000FF80
FF000000FF80
FF000000FF80
FF000000FF80
FF000000FF80
FF000000FF80
FF000000FF80
FF000000FF80
FF000000FF80
FF000000FF80
FF000000FF80
FF000000FF80
FF000000FF80
FF000000FF80
FF000000FF80
FF000000FF80
FF000000FF80
FF000000FF80
FF000000FF80
FF000000FF80
FF000000FF80
FF000000FF80
FF000000FF80
FF000000FF80
FF000000FF80
FF000000FF80
FF000000FF80
FF000000FF80
FF000000FF80
FF000000FF80
FF000000FF80
FF000000FF80
FF000000FF80
FF000000FF80
FF000000FF80
FF000000FF00
FF000000FF00
FF000001FF00
FF000001FF00
FF000001FF00
FF000003FF00
FF001003FE00
FF001C0FFE00
FF003FFFFC00
FF007FFFFC00
FF007FFFF800
FF00FFFFF000
FF00FFFFE000
FF00FFFFC000
FF003FFF0000
000007F80000
ENDCHAR
STARTCHAR ij
ENCODING 307
SWIDTH 515 0
DWIDTH 39 0
BBX 29 75 4 -19
BITMAP
0E000380
3F800FE0
7FC01FF0
FFC03FF0
FFE03FF0
FFE03FF8
FFE03FF0
FFC03FF0
7FC01FF0
3F800FE0
1E000780
00000000
00000000
00000000
00000000
00000000
00000000
00000000
00000000
00000000
7F801FE0
7F801FE0
7F801FE0
7F801FE0
7F801FE0
7F801FE0
7F801FE0
7F801FE0
7F801FE0
7F801FE0
7F801FE0
7F801FE0
7F801FE0
7F801FE0
7F801FE0
7F801FE0
7F801FE0
7F801FE0
7F801FE0
7F801FE0
7F801FE0
7F801FE0
7F801FE0
7F801FE0
7F801FE0
7F801FE0
7F801FE0
7F801FE0
7F801FE0
7F801FE0
7F801FE0
7F801FE0
7F801FE0
7F801FE0
7F801FE0
7F801FE0
00001FE0
00001FE0
00001FE0
00001FE0
00001FE0
00001FE0
00001FE0
00001FE0
00001FE0
00001FE0
00001FE0
00001FE0
00001FE0
00001FE0
00001FE0
00001FE0
00001FE0
00001FE0
00001FE0
ENDCHAR
STARTCHAR Jcircumflex
ENCODING 308
SWIDTH 454 0
DWIDTH 34 0
BBX 35 78 -1 -1
BITMAP
0000060000
00000F0000
00001F8000
00003FC000
00007FE000
0000FFF000
0003FFF800
0007FFFE00
000FFFFF00
001FF9FF80
003FF0FFC0
007FE07FE0
003FC03FC0
000F801F00
0007000E00
0002000400
0000000000
0000000000
0000000000
0000000000
0000FF8000
0000FF8000
0000FF8000
0000FF8000
0000FF8000
0000FF8000
0000FF8000
0000FF8000
0000FF8000
0000FF8000
0000FF8000
0000FF8000
0000FF8000
0000FF8000
0000FF8000
0000FF8000
0000FF8000
0000FF8000
0000FF8000
0000FF8000
0000FF8000
0000FF8000
0000FF8000
0000FF8000
0000FF8000
0000FF8000
0000FF8000
0000FF8000
0000FF8000
0000FF8000
0000FF8000
0000FF8000
0000FF8000
0000FF8000
0000FF8000
0000FF8000
0000FF8000
0000FF8000
0000FF8000
0000FF8000
0000FF8000
0000FF8000
0000FF8000
0000FF8000
0000FF8000
0000FF0000
0001FF0000
0001FF0000
1803FF0000
1E0FFE0000
3FFFFE0000
3FFFFC0000
7FFFF80000
7FFFF80000
FFFFE00000
FFFFC00000
3FFF800000
07FC000000
ENDCHAR
STARTCHAR jcircumflex
ENCODING 309
SWIDTH 342 0
DWIDTH 26 0
BBX 26 70 0 -13
BITMAP
000C0000
001E0000
003F0000
007F8000
00FFC000
03FFE000
07FFF000
0FFFF800
1FFFFC00
3FF7FF00
7FE3FF80
FFC0FFC0
7F807F00
3F003E00
0E001C00
04000800
00000000
00000000
00000000
00000000
00000000
00000000
00000000
00000000
00000000
00000000
00FF8000
00FF8000
00FF8000
00FF8000
00FF8000
00FF8000
00FF8000
00FF8000
00FF8000
00FF8000
00FF8000
00FF8000
00FF8000
00FF8000
00FF8000
00FF8000
00FF8000
00FF8000
00FF8000
00FF8000
00FF8000
00FF8000
00FF8000
00FF8000
00FF8000
00FF8000
00FF8000
00FF8000
00FF8000
00FF8000
00FF8000
00FF8000
00FF8000
00FF8000
00FF8000
00FF8000
00FF8000
00FF8000
00FF8000
00FF8000
00FF8000
00FF8000
00FF8000
00FF8000
ENDCHAR
STARTCHAR Kcedilla
ENCODING 310
SWIDTH 662 0
DWIDTH 50 0
BBX 42 78 7 -21
BITMAP
FF000003FFC0
FF000007FF80
FF00000FFF00
FF00001FFE00
FF00003FFC00
FF00007FF800
FF0000FFF000
FF0001FFE000
FF0003FFC000
FF0007FF8000
FF000FFF0000
FF000FFE0000
FF001FFC0000
FF003FF80000
FF007FF00000
FF00FFE00000
FF01FFC00000
FF03FF800000
FF07FF000000
FF0FFE000000
FF1FFC000000
FF3FF8000000
FF7FF0000000
FFFFE0000000
FFFFC0000000
FFFF80000000
FFFF80000000
FFFF80000000
FFFFC0000000
FFFFE0000000
FFFFF0000000
FFFFF8000000
FF9FFC000000
FF1FFC000000
FF0FFE000000
FF07FF000000
FF03FF800000
FF01FFC00000
FF01FFC00000
FF00FFE00000
FF007FF00000
FF003FF80000
FF001FFC0000
FF001FFE0000
FF000FFE0000
FF0007FF0000
FF0003FF8000
FF0001FFC000
FF0000FFE000
FF0000FFF000
FF00007FF000
FF00003FF800
FF00001FFC00
FF00000FFE00
FF00000FFF00
FF000007FF80
FF000003FF80
000000000000
000000000000
000000000000
000FF8000000
000FF8000000
000FF8000000
000FF8000000
000FF8000000
000FF8000000
000FF8000000
000FF8000000
000FF8000000
0001F8000000
0000F8000000
0001F8000000
0001F8000000
0001F8000000
0003F0000000
0003F0000000
0007E0000000
0001E0000000
ENDCHAR
STARTCHAR kcedilla
ENCODING 311
SWIDTH 498 0
DWIDTH 37 0
BBX 32 84 5 -22
BITMAP
FF000000
FF000000
FF000000
FF000000
FF000000
FF000000
FF000000
FF000000
FF000000
FF000000
FF000000
FF000000
FF000000
FF000000
FF000000
FF000000
FF000000
FF000000
FF000000
FF000000
FF000000
FF000000
FF000000
FF000000
FF000000
FF000000
FF000FFE
FF001FFC
FF003FF8
FF007FF0
FF00FFE0
FF01FFC0
FF03FF80
FF07FF00
FF0FFE00
FF1FFC00
FF3FF800
FF7FF000
FFFFE000
FFFFC000
FFFF0000
FFFF0000
FFFF8000
FFFF8000
FFFFC000
FFFFE000
FFFFF000
FFBFF800
FF1FF800
FF0FFC00
FF07FE00
FF07FF00
FF03FF80
FF01FF80
FF00FFC0
FF00FFE0
FF007FF0
FF003FF8
FF001FF8
FF000FFC
FF000FFE
FF0007FF
00000000
00000000
00000000
007FC000
007FC000
007FC000
007FC000
007FC000
007FC000
007FC000
007FC000
007FC000
000FC000
000FC000
000FC000
000FC000
000F8000
001F8000
001F0000
003F0000
000E0000
00020000
ENDCHAR
STARTCHAR kgreenlandic
ENCODING 312
SWIDTH 498 0
DWIDTH 37 0
BBX 32 36 5 0
BITMAP
FF000FFE
FF001FFC
FF003FF8
FF007FF0
FF00FFE0
FF01FFC0
FF03FF80
FF07FF00
FF0FFE00
FF1FFC00
FF3FF800
FF7FF000
FFFFE000
FFFFC000
FFFF0000
FFFF0000
FFFF8000
FFFF8000
FFFFC000
FFFFE000
FFFFF000
FFBFF800
FF1FF800
FF0FFC00
FF07FE00
FF07FF00
FF03FF80
FF01FF80
FF00FFC0
FF00FFE0
FF007FF0
FF003FF8
FF001FF8
FF000FFC
FF000FFE
FF0007FF
ENDCHAR
STARTCHAR Lacute
ENCODING 313
SWIDTH 443 0
DWIDTH 33 0
BBX 25 77 7 0
BITMAP
00040000
000E0000
001F8000
003FC000
007FF000
00FFF000
01FFE000
03FFC000
07FF0000
0FFE0000
1FF80000
3FF00000
3FC00000
0F800000
06000000
00000000
00000000
00000000
00000000
00000000
FF000000
FF000000
FF000000
FF000000
FF000000
FF000000
FF000000
FF000000
FF000000
FF000000
FF000000
FF000000
FF000000
FF000000
FF000000
FF000000
FF000000
FF000000
FF000000
FF000000
FF000000
FF000000
FF000000
FF000000
FF000000
FF000000
FF000000
FF000000
FF000000
FF000000
FF000000
FF000000
FF000000
FF000000
FF000000
FF000000
FF000000
FF000000
FF000000
FF000000
FF000000
FF000000
FF000000
FF000000
FF000000
FF000000
FF000000
FF000000
FF000000
FFFFFF80
FFFFFF80
FFFFFF80
FFFFFF80
FFFFFF80
FFFFFF80
FFFFFF80
FFFFFF80
ENDCHAR
STARTCHAR lacute
ENCODING 314
SWIDTH 249 0
DWIDTH 19 0
BBX 18 79 2 0
BITMAP
001000
003800
007E00
00FF00
01FFC0
03FFC0
07FF80
0FFF00
1FFC00
3FF800
7FE000
FFC000
FF0000
3E0000
180000
000000
000000
1FE000
1FE000
1FE000
1FE000
1FE000
1FE000
1FE000
1FE000
1FE000
1FE000
1FE000
1FE000
1FE000
1FE000
1FE000
1FE000
1FE000
1FE000
1FE000
1FE000
1FE000
1FE000
1FE000
1FE000
1FE000
1FE000
1FE000
1FE000
1FE000
1FE000
1FE000
1FE000
1FE000
1FE000
1FE000
1FE000
1FE000
1FE000
1FE000
1FE000
1FE000
1FE000
1FE000
1FE000
1FE000
1FE000
1FE000
1FE000
1FE000
1FE000
1FE000
1FE000
1FE000
1FE000
1FE000
1FE000
1FE000
1FE000
1FE000
1FE000
1FE000
1FE000
ENDCHAR
STARTCHAR Lcedilla
ENCODING 315
SWIDTH 443 0
DWIDTH 33 0
BBX 25 78 7 -21
BITMAP
FF000000
FF000000
FF000000
FF000000
FF000000
FF000000
FF000000
FF000000
FF000000
FF000000
FF000000
FF000000
FF000000
FF000000
FF000000
FF000000
FF000000
FF000000
FF000000
FF000000
FF000000
FF000000
FF000000
FF000000
FF000000
FF000000
FF000000
FF000000
FF000000
FF000000
FF000000
FF000000
FF000000
FF000000
FF000000
FF000000
FF000000
FF000000
FF000000
FF000000
FF000000
FF000000
FF000000
FF000000
FF000000
FF000000
FF000000
FF000000
FF000000
FFFFFF80
FFFFFF80
FFFFFF80
FFFFFF80
FFFFFF80
FFFFFF80
FFFFFF80
FFFFFF80
00000000
00000000
00000000
00FF0000
00FF0000
00FF0000
00FF0000
00FF0000
00FF0000
00FF0000
00FF0000
00FF0000
001F0000
001F0000
001F0000
003F0000
003F0000
003E0000
007E0000
007C0000
001C0000
ENDCHAR
STARTCHAR lcedilla
ENCODING 316
SWIDTH 249 0
DWIDTH 19 0
BBX 9 84 5 -22
BITMAP
FF00
FF00
FF00
FF00
FF00
FF00
FF00
FF00
FF00
FF00
FF00
FF00
FF00
FF00
FF00
FF00
FF00
FF00
FF00
FF00
FF00
FF00
FF00
FF00
FF00
FF00
FF00
FF00
FF00
FF00
FF00
FF00
FF00
FF00
FF00
FF00
FF00
FF00
FF00
FF00
FF00
FF00
FF00
FF00
FF00
FF00
FF00
FF00
FF00
FF00
FF00
FF00
FF00
FF00
FF00
FF00
FF00
FF00
FF00
FF00
FF00
FF00
0000
0000
0000
FF80
FF80
FF80
FF80
FF80
FF80
FF80
FF80
FF80
1F80
1F80
1F80
1F80
1F00
3F00
3E00
7E00
1C00
0400
ENDCHAR
STARTCHAR Lcaron
ENCODING 317
SWIDTH 443 0
DWIDTH 33 0
BBX 25 57 7 0
BITMAP
FF000000
FF03FC00
FF03FC00
FF03FC00
FF03FC00
FF03FC00
FF03FC00
FF03FC00
FF03FC00
FF03FC00
FF007C00
FF007C00
FF007C00
FF007C00
FF00FC00
FF00F800
FF01F800
FF00F000
FF003000
FF000000
FF000000
FF000000
FF000000
FF000000
FF000000
FF000000
FF000000
FF000000
FF000000
FF000000
FF000000
FF000000
FF000000
FF000000
FF000000
FF000000
FF000000
FF000000
FF000000
FF000000
FF000000
FF000000
FF000000
FF000000
FF000000
FF000000
FF000000
FF000000
FF000000
FFFFFF80
FFFFFF80
FFFFFF80
FFFFFF80
FFFFFF80
FFFFFF80
FFFFFF80
FFFFFF80
ENDCHAR
STARTCHAR lcaron
ENCODING 318
SWIDTH 356 0
DWIDTH 27 0
BBX 21 62 5 0
BITMAP
FF0000
FF0000
FF0000
FF0000
FF0000
FF0000
FF0FF8
FF0FF8
FF0FF8
FF0FF8
FF0FF8
FF0FF8
FF0FF8
FF0FF8
FF0FF8
FF01F8
FF01F8
FF01F8
FF01F8
FF03F0
FF03F0
FF07E0
FF03E0
FF00C0
FF0000
FF0000
FF0000
FF0000
FF0000
FF0000
FF0000
FF0000
FF0000
FF0000
FF0000
FF0000
FF0000
FF0000
FF0000
FF0000
FF0000
FF0000
FF0000
FF0000
FF0000
FF0000
FF0000
FF0000
FF0000
FF0000
FF0000
FF0000
FF0000
FF0000
FF0000
FF0000
FF0000
FF0000
FF0000
FF0000
FF0000
FF0000
ENDCHAR
STARTCHAR Ldotaccent
ENCODING 319
SWIDTH 443 0
DWIDTH 33 0
BBX 26 57 7 0
BITMAP
FF000000
FF000000
FF000000
FF000000
FF000C00
FF007F00
FF00FF80
FF00FFC0
FF01FFC0
FF01FFC0
FF01FFC0
FF00FFC0
FF00FFC0
FF007F80
FF003F00
FF000000
FF000000
FF000000
FF000000
FF000000
FF000000
FF000000
FF000000
FF000000
FF000000
FF000000
FF000000
FF000000
FF000000
FF000000
FF000000
FF000000
FF000000
FF000000
FF000000
FF000000
FF000000
FF000000
FF000000
FF000000
FF000000
FF000000
FF000000
FF000000
FF000000
FF000000
FF000000
FF000000
FF000000
FFFFFF80
FFFFFF80
FFFFFF80
FFFFFF80
FFFFFF80
FFFFFF80
FFFFFF80
FFFFFF80
ENDCHAR
STARTCHAR ldotaccent
ENCODING 320
SWIDTH 468 0
DWIDTH 35 0
BBX 26 62 5 0
BITMAP
FF000000
FF000000
FF000000
FF000000
FF000000
FF000000
FF000000
FF000000
FF000000
FF001800
FF007E00
FF00FF00
FF01FF80
FF01FF80
FF03FFC0
FF01FF80
FF01FF80
FF01FF80
FF00FF00
FF007E00
FF000000
FF000000
FF000000
FF000000
FF000000
FF000000
FF000000
FF000000
FF000000
FF000000
FF000000
FF000000
FF000000
FF000000
FF000000
FF000000
FF000000
FF000000
FF000000
FF000000
FF000000
FF000000
FF000000
FF000000
FF000000
FF000000
FF000000
FF000000
FF000000
FF000000
FF000000
FF000000
FF000000
FF000000
FF000000
FF000000
FF000000
FF000000
FF000000
FF000000
FF000000
FF000000
ENDCHAR
STARTCHAR Lslash
ENCODING 321
SWIDTH 443 0
DWIDTH 33 0
BBX 31 57 1 0
BITMAP
03FC0000
03FC0000
03FC0000
03FC0000
03FC0000
03FC0000
03FC0000
03FC0000
03FC0000
03FC0000
03FC0000
03FC0000
03FC0000
03FC0000
03FC0000
03FC0080
03FC0180
03FC0780
03FC0F80
03FC3F80
03FC7F80
03FDFF80
03FFFF80
03FFFF80
03FFFE00
03FFFC00
03FFF000
0FFFE000
1FFF8000
7FFF0000
FFFC0000
FFFC0000
FFFC0000
FFFC0000
FFFC0000
FBFC0000
F3FC0000
C3FC0000
83FC0000
03FC0000
03FC0000
03FC0000
03FC0000
03FC0000
03FC0000
03FC0000
03FC0000
03FC0000
03FC0000
03FFFFFE
03FFFFFE
03FFFFFE
03FFFFFE
03FFFFFE
03FFFFFE
03FFFFFE
03FFFFFE
ENDCHAR
STARTCHAR lslash
ENCODING 322
SWIDTH 298 0
DWIDTH 22 0
BBX 19 62 2 0
BITMAP
07F800
07F800
07F800
07F800
07F800
07F800
07F800
07F800
07F800
07F800
07F800
07F800
07F800
07F800
07F800
07F800
07F800
07F800
07F800
07F800
07F800
07F800
07F800
07F860
07F8E0
07FBE0
07FFE0
07FFE0
07FFE0
07FFE0
07FFE0
1FFF80
3FFF00
FFFE00
FFF800
FFF800
FFF800
FFF800
FFF800
F7F800
C7F800
87F800
07F800
07F800
07F800
07F800
07F800
07F800
07F800
07F800
07F800
07F800
07F800
07F800
07F800
07F800
07F800
07F800
07F800
07F800
07F800
07F800
ENDCHAR
STARTCHAR Nacute
ENCODING 323
SWIDTH 844 0
DWIDTH 63 0
BBX 50 80 7 -3
BITMAP
00000004000000
0000000E000000
0000001F800000
0000003FC00000
0000007FE00000
000000FFF00000
000001FFE00000
000003FF800000
000007FF000000
00000FFC000000
00001FF8000000
00003FE0000000
00003FC0000000
00001F00000000
00000E00000000
00000000000000
00000000000000
80000000000000
C0000000000000
E0000000000000
E0000000007FC0
F0000000007FC0
F8000000007FC0
FC000000007FC0
FE000000007FC0
FF000000007FC0
FF800000007FC0
FFC00000007FC0
FFE00000007FC0
FFF00000007FC0
FFF80000007FC0
FFFC0000007FC0
FFFE0000007FC0
FFFF0000007FC0
FFFF8000007FC0
FFFFC000007FC0
FFFFE000007FC0
FFFFF000007FC0
FF7FF800007FC0
FF3FFC00007FC0
FF1FFE00007FC0
FF0FFF00007FC0
FF07FF80007FC0
FF03FFC0007FC0
FF01FFC0007FC0
FF00FFE0007FC0
FF007FF0007FC0
FF003FF8007FC0
FF001FFC007FC0
FF000FFE007FC0
FF0007FF007FC0
FF0003FF807FC0
FF0001FFC07FC0
FF0000FFE07FC0
FF00007FF07FC0
FF00003FF87FC0
FF00001FFC7FC0
FF00000FFE7FC0
FF000007FF7FC0
FF000007FFFFC0
FF000003FFFFC0
FF000001FFFFC0
FF000000FFFFC0
FF0000007FFFC0
FF0000003FFFC0
FF0000001FFFC0
FF0000000FFFC0
FF00000007FFC0
FF00000003FFC0
FF00000001FFC0
FF00000000FFC0
FF000000007FC0
FF000000003FC0
FF000000001FC0
FF000000000FC0
FF0000000007C0
FF0000000003C0
000000000001C0
000000000000C0
00000000000040
ENDCHAR
STARTCHAR nacute
ENCODING 324
SWIDTH 548 0
DWIDTH 41 0
BBX 31 57 5 0
BITMAP
00001C00
00001F00
00003F80
00007FE0
0000FFE0
0000FFC0
0001FF80
0003FF00
0007FE00
0007F800
000FF000
001FE000
003FC000
001F8000
000F0000
00020000
00000000
00000000
00000000
00000000
00007000
FF07FF00
FF1FFFC0
FF3FFFE0
FF7FFFF0
FFFFFFF8
FFFFFFF8
FFFFFFFC
FFF00FFC
FFE007FC
FFC003FE
FFC003FE
FF8003FE
FF8003FE
FF8001FE
FF8001FE
FF8001FE
FF8001FE
FF8001FE
FF0001FE
FF0001FE
FF0001FE
FF0001FE
FF0001FE
FF0001FE
FF0001FE
FF0001FE
FF0001FE
FF0001FE
FF0001FE
FF0001FE
FF0001FE
FF0001FE
FF0001FE
FF0001FE
FF0001FE
FF0001FE
ENDCHAR
STARTCHAR Ncedilla
ENCODING 325
SWIDTH 844 0
DWIDTH 63 0
BBX 50 82 7 -22
BITMAP
80000000000000
C0000000000000
E0000000000000
E0000000007FC0
F0000000007FC0
F8000000007FC0
FC000000007FC0
FE000000007FC0
FF000000007FC0
FF800000007FC0
FFC00000007FC0
FFE00000007FC0
FFF00000007FC0
FFF80000007FC0
FFFC0000007FC0
FFFE0000007FC0
FFFF0000007FC0
FFFF8000007FC0
FFFFC000007FC0
FFFFE000007FC0
FFFFF000007FC0
FF7FF800007FC0
FF3FFC00007FC0
FF1FFE00007FC0
FF0FFF00007FC0
FF07FF80007FC0
FF03FFC0007FC0
FF01FFC0007FC0
FF00FFE0007FC0
FF007FF0007FC0
FF003FF8007FC0
FF001FFC007FC0
FF000FFE007FC0
FF0007FF007FC0
FF0003FF807FC0
FF0001FFC07FC0
FF0000FFE07FC0
FF00007FF07FC0
FF00003FF87FC0
FF00001FFC7FC0
FF00000FFE7FC0
FF000007FF7FC0
FF000007FFFFC0
FF000003FFFFC0
FF000001FFFFC0
FF000000FFFFC0
FF0000007FFFC0
FF0000003FFFC0
FF0000001FFFC0
FF0000000FFFC0
FF00000007FFC0
FF00000003FFC0
FF00000001FFC0
FF00000000FFC0
FF000000007FC0
FF000000003FC0
FF000000001FC0
FF000000000FC0
FF0000000007C0
FF0000000003C0
000000000001C0
000000000000C0
00000000000040
000003FC000000
000003FC000000
000003FC000000
000003FC000000
000003FC000000
000003FC000000
000003FC000000
000003FC000000
000003FC000000
0000007C000000
0000007C000000
0000007C000000
0000007C000000
000000FC000000
000000FC000000
000001F8000000
000001F8000000
00000070000000
00000010000000
ENDCHAR
STARTCHAR ncedilla
ENCODING 326
SWIDTH 548 0
DWIDTH 41 0
BBX 31 59 5 -22
BITMAP
00007000
FF07FF00
FF1FFFC0
FF3FFFE0
FF7FFFF0
FFFFFFF8
FFFFFFF8
FFFFFFFC
FFF00FFC
FFE007FC
FFC003FE
FFC003FE
FF8003FE
FF8003FE
FF8001FE
FF8001FE
FF8001FE
FF8001FE
FF8001FE
FF0001FE
FF0001FE
FF0001FE
FF0001FE
FF0001FE
FF0001FE
FF0001FE
FF0001FE
FF0001FE
FF0001FE
FF0001FE
FF0001FE
FF0001FE
FF0001FE
FF0001FE
FF0001FE
FF0001FE
FF0001FE
00000000
00000000
00000000
000FF000
000FF000
000FF000
000FF000
000FF000
000FF000
000FF000
000FF000
000FF000
0001F000
0001F000
0001F000
0001F000
0003F000
0003F000
0007E000
0007E000
0001C000
00004000
ENDCHAR
STARTCHAR Ncaron
ENCODING 327
SWIDTH 844 0
DWIDTH 63 0
BBX 50 81 7 -3
BITMAP
00004000800000
0000E001C00000
0001F003E00000
0007F807F00000
000FFC0FFC0000
0007FE1FF80000
0003FF3FF00000
0001FFFFE00000
0000FFFFC00000
00007FFF000000
00003FFE000000
00000FFC000000
000007F8000000
000003F0000000
000001E0000000
000000C0000000
00000000000000
00000000000000
80000000000000
C0000000000000
E0000000000000
E0000000007FC0
F0000000007FC0
F8000000007FC0
FC000000007FC0
FE000000007FC0
FF000000007FC0
FF800000007FC0
FFC00000007FC0
FFE00000007FC0
FFF00000007FC0
FFF80000007FC0
FFFC0000007FC0
FFFE0000007FC0
FFFF0000007FC0
FFFF8000007FC0
FFFFC000007FC0
FFFFE000007FC0
FFFFF000007FC0
FF7FF800007FC0
FF3FFC00007FC0
FF1FFE00007FC0
FF0FFF00007FC0
FF07FF80007FC0
FF03FFC0007FC0
FF01FFC0007FC0
FF00FFE0007FC0
FF007FF0007FC0
FF003FF8007FC0
FF001FFC007FC0
FF000FFE007FC0
FF0007FF007FC0
FF0003FF807FC0
FF0001FFC07FC0
FF0000FFE07FC0
FF00007FF07FC0
FF00003FF87FC0
FF00001FFC7FC0
FF00000FFE7FC0
FF000007FF7FC0
FF000007FFFFC0
FF000003FFFFC0
FF000001FFFFC0
FF000000FFFFC0
FF0000007FFFC0
FF0000003FFFC0
FF0000001FFFC0
FF0000000FFFC0
FF00000007FFC0
FF00000003FFC0
FF00000001FFC0
FF00000000FFC0
FF000000007FC0
FF000000003FC0
FF000000001FC0
FF000000000FC0
FF0000000007C0
FF0000000003C0
000000000001C0
000000000000C0
00000000000040
ENDCHAR
STARTCHAR ncaron
ENCODING 328
SWIDTH 548 0
DWIDTH 41 0
BBX 31 57 5 0
BITMAP
00C00180
01E003C0
07F007E0
0FF80FF0
0FFC1FF8
07FE3FF0
03FFFFE0
01FFFF80
00FFFF00
007FFE00
003FFC00
001FF800
0007F000
0003E000
0001C000
00008000
00000000
00000000
00000000
00000000
00007000
FF07FF00
FF1FFFC0
FF3FFFE0
FF7FFFF0
FFFFFFF8
FFFFFFF8
FFFFFFFC
FFF00FFC
FFE007FC
FFC003FE
FFC003FE
FF8003FE
FF8003FE
FF8001FE
FF8001FE
FF8001FE
FF8001FE
FF8001FE
FF0001FE
FF0001FE
FF0001FE
FF0001FE
FF0001FE
FF0001FE
FF0001FE
FF0001FE
FF0001FE
FF0001FE
FF0001FE
FF0001FE
FF0001FE
FF0001FE
FF0001FE
FF0001FE
FF0001FE
FF0001FE
ENDCHAR
STARTCHAR quoterightn
ENCODING 329
SWIDTH 777 0
DWIDTH 58 0
BBX 46 60 4 0
BITMAP
004000000000
00F800000000
00FE00000000
01FF00000000
01FE00000000
01FE00000000
03FC00000000
03FC00000000
07F800000000
07F800000000
07F000000000
0FF000000000
0FE000000000
1FE000000000
1FC000000000
1FC000000000
3F8000000000
3F8000000000
7F0000000000
7F0000000000
7E0000000000
FE0000000000
1C0000000000
04000000E000
0000FF0FFE00
0000FF3FFF80
0000FF7FFFC0
0000FFFFFFE0
0000FFFFFFF0
0000FFFFFFF8
0000FFFFFFF8
0000FFF01FF8
0000FFC00FFC
0000FF8007FC
0000FF8007FC
0000FF8003FC
0000FF0003FC
0000FF0003FC
0000FF0003FC
0000FF0003FC
0000FF0003FC
0000FF0003FC
0000FF0003FC
0000FF0003FC
0000FF0003FC
0000FF0003FC
0000FF0003FC
0000FF0003FC
0000FF0003FC
0000FF0003FC
0000FF0003FC
0000FF0003FC
0000FF0003FC
0000FF0003FC
0000FF0003FC
0000FF0003FC
0000FF0003FC
0000FF0003FC
0000FF0003FC
0000FF0003FC
ENDCHAR
STARTCHAR Omacron
ENCODING 332
SWIDTH 893 0
DWIDTH 67 0
BBX 59 71 4 -1
BITMAP
00007FFFFFE00000
00007FFFFFE00000
00007FFFFFE00000
00007FFFFFE00000
00007FFFFFE00000
00007FFFFFE00000
00007FFFFFE00000
0000000000000000
0000000000000000
0000000000000000
0000000000000000
0000000000000000
0000001F00000000
000007FFFC000000
00003FFFFF800000
0000FFFFFFE00000
0003FFFFFFF80000
0007FFFFFFFC0000
000FFFFFFFFF0000
003FFFFFFFFF8000
007FFFFBFFFFC000
00FFFE000FFFE000
01FFF00001FFF000
03FFC000007FF800
03FF8000003FF800
07FF0000001FFC00
0FFE0000000FFE00
0FFC00000007FE00
1FF800000003FF00
1FF000000001FF00
3FE000000001FF80
3FE000000000FF80
7FC0000000007FC0
7FC0000000007FC0
7FC0000000007FC0
7F80000000003FC0
FF80000000003FE0
FF80000000003FE0
FF80000000003FE0
FF80000000003FE0
FF80000000003FE0
FF80000000003FE0
FF80000000003FE0
FF80000000003FE0
FF80000000003FE0
FF80000000003FE0
FF80000000003FE0
FF80000000003FE0
7FC0000000007FC0
7FC0000000007FC0
7FC0000000007FC0
7FE000000000FFC0
3FE000000000FF80
3FF000000001FF80
1FF800000003FF00
1FF800000003FF00
0FFC00000007FE00
0FFE0000000FFC00
07FF8000001FFC00
03FFC000007FF800
01FFF00000FFF000
00FFFC0003FFE000
00FFFF803FFFC000
003FFFFFFFFF8000
001FFFFFFFFF0000
000FFFFFFFFE0000
0003FFFFFFF80000
0001FFFFFFF00000
00007FFFFFC00000
00000FFFFE000000
000000FFE0000000
ENDCHAR
STARTCHAR omacron
ENCODING 333
SWIDTH 601 0
DWIDTH 45 0
BBX 38 50 4 -1
BITMAP
03FFFFFE00
03FFFFFE00
03FFFFFE00
03FFFFFE00
03FFFFFE00
03FFFFFE00
0000000000
0000000000
0000000000
0000000000
0000000000
0000000000
0000700000
000FFF8000
007FFFF000
00FFFFF800
03FFFFFE00
07FFFFFF00
0FFFFFFF80
1FFFFFFFC0
1FFE01FFC0
3FF8007FE0
7FE0003FF0
7FC0001FF0
7FC0001FF0
FF80000FF8
FF80000FF8
FF000007F8
FF000007F8
FF000007F8
FF000007FC
FF000007FC
FF000007FC
FF000007F8
FF000007F8
FF800007F8
FF80000FF8
7F80000FF8
7FC0001FF0
7FE0003FF0
3FF0007FE0
3FF800FFE0
1FFF87FFC0
0FFFFFFF80
07FFFFFF00
03FFFFFE00
01FFFFFC00
007FFFF000
001FFFC000
0003FE0000
ENDCHAR
STARTCHAR Obreve
ENCODING 334
SWIDTH 893 0
DWIDTH 67 0
BBX 59 75 4 -1
BITMAP
0000FE000FE00000
0000FE000FC00000
00007F001FC00000
00007F001FC00000
00007F803FC00000
00007FC07F800000
00003FFFFF800000
00001FFFFF000000
00001FFFFF000000
00000FFFFE000000
000007FFFC000000
000001FFF0000000
0000003F80000000
0000000000000000
0000000000000000
0000000000000000
0000001F00000000
000007FFFC000000
00003FFFFF800000
0000FFFFFFE00000
0003FFFFFFF80000
0007FFFFFFFC0000
000FFFFFFFFF0000
003FFFFFFFFF8000
007FFFFBFFFFC000
00FFFE000FFFE000
01FFF00001FFF000
03FFC000007FF800
03FF8000003FF800
07FF0000001FFC00
0FFE0000000FFE00
0FFC00000007FE00
1FF800000003FF00
1FF000000001FF00
3FE000000001FF80
3FE000000000FF80
7FC0000000007FC0
7FC0000000007FC0
7FC0000000007FC0
7F80000000003FC0
FF80000000003FE0
FF80000000003FE0
FF80000000003FE0
FF80000000003FE0
FF80000000003FE0
FF80000000003FE0
FF80000000003FE0
FF80000000003FE0
FF80000000003FE0
FF80000000003FE0
FF80000000003FE0
FF80000000003FE0
7FC0000000007FC0
7FC0000000007FC0
7FC0000000007FC0
7FE000000000FFC0
3FE000000000FF80
3FF000000001FF80
1FF800000003FF00
1FF800000003FF00
0FFC00000007FE00
0FFE0000000FFC00
07FF8000001FFC00
03FFC000007FF800
01FFF00000FFF000
00FFFC0003FFE000
00FFFF803FFFC000
003FFFFFFFFF8000
001FFFFFFFFF0000
000FFFFFFFFE0000
0003FFFFFFF80000
0001FFFFFFF00000
00007FFFFFC00000
00000FFFFE000000
000000FFE0000000
ENDCHAR
STARTCHAR obreve
ENCODING 335
SWIDTH 601 0
DWIDTH 45 0
BBX 38 55 4 -1
BITMAP
07F0007E00
07F000FE00
07F000FE00
03F800FE00
03FC01FE00
03FE03FC00
01FFFFFC00
01FFFFF800
00FFFFF800
007FFFF000
003FFFC000
000FFF8000
0001F80000
0000000000
0000000000
0000000000
0000000000
0000700000
000FFF8000
007FFFF000
00FFFFF800
03FFFFFE00
07FFFFFF00
0FFFFFFF80
1FFFFFFFC0
1FFE01FFC0
3FF8007FE0
7FE0003FF0
7FC0001FF0
7FC0001FF0
FF80000FF8
FF80000FF8
FF000007F8
FF000007F8
FF000007F8
FF000007FC
FF000007FC
FF000007FC
FF000007F8
FF000007F8
FF800007F8
FF80000FF8
7F80000FF8
7FC0001FF0
7FE0003FF0
3FF0007FE0
3FF800FFE0
1FFF87FFC0
0FFFFFFF80
07FFFFFF00
03FFFFFE00
01FFFFFC00
007FFFF000
001FFFC000
0003FE0000
ENDCHAR
STARTCHAR Ohungarumlaut
ENCODING 336
SWIDTH 893 0
DWIDTH 67 0
BBX 59 78 4 -1
BITMAP
0000000800100000
0000001C00380000
0000003F007E0000
0000007F80FF0000
000000FFC1FFC000
000001FFE3FFC000
000003FFC7FF8000
000007FF0FFE0000
00000FFE1FFC0000
00001FF83FF80000
00003FF07FE00000
00007FC0FFC00000
00007F80FF000000
00003E003E000000
00001C0018000000
0000000000000000
0000000000000000
0000000000000000
0000000000000000
0000001F00000000
000007FFFC000000
00003FFFFF800000
0000FFFFFFE00000
0003FFFFFFF80000
0007FFFFFFFC0000
000FFFFFFFFF0000
003FFFFFFFFF8000
007FFFFBFFFFC000
00FFFE000FFFE000
01FFF00001FFF000
03FFC000007FF800
03FF8000003FF800
07FF0000001FFC00
0FFE0000000FFE00
0FFC00000007FE00
1FF800000003FF00
1FF000000001FF00
3FE000000001FF80
3FE000000000FF80
7FC0000000007FC0
7FC0000000007FC0
7FC0000000007FC0
7F80000000003FC0
FF80000000003FE0
FF80000000003FE0
FF80000000003FE0
FF80000000003FE0
FF80000000003FE0
FF80000000003FE0
FF80000000003FE0
FF80000000003FE0
FF80000000003FE0
FF80000000003FE0
FF80000000003FE0
FF80000000003FE0
7FC0000000007FC0
7FC0000000007FC0
7FC0000000007FC0
7FE000000000FFC0
3FE000000000FF80
3FF000000001FF80
1FF800000003FF00
1FF800000003FF00
0FFC00000007FE00
0FFE0000000FFC00
07FF8000001FFC00
03FFC000007FF800
01FFF00000FFF000
00FFFC0003FFE000
00FFFF803FFFC000
003FFFFFFFFF8000
001FFFFFFFFF0000
000FFFFFFFFE0000
0003FFFFFFF80000
0001FFFFFFF00000
00007FFFFFC00000
00000FFFFE000000
000000FFE0000000
ENDCHAR
STARTCHAR ohungarumlaut
ENCODING 337
SWIDTH 601 0
DWIDTH 45 0
BBX 38 58 4 -1
BITMAP
0001000300
0003C00780
0007F00FE0
0007FC0FF8
000FF81FF8
001FF03FF0
001FE03FE0
003FC07FC0
007F80FF80
007F00FF00
00FE01FC00
01FC03F800
01F803F000
01F003E000
00E001C000
0040000000
0000000000
0000000000
0000000000
0000000000
0000700000
000FFF8000
007FFFF000
00FFFFF800
03FFFFFE00
07FFFFFF00
0FFFFFFF80
1FFFFFFFC0
1FFE01FFC0
3FF8007FE0
7FE0003FF0
7FC0001FF0
7FC0001FF0
FF80000FF8
FF80000FF8
FF000007F8
FF000007F8
FF000007F8
FF000007FC
FF000007FC
FF000007FC
FF000007F8
FF000007F8
FF800007F8
FF80000FF8
7F80000FF8
7FC0001FF0
7FE0003FF0
3FF0007FE0
3FF800FFE0
1FFF87FFC0
0FFFFFFF80
07FFFFFF00
03FFFFFE00
01FFFFFC00
007FFFF000
001FFFC000
0003FE0000
ENDCHAR
STARTCHAR OE
ENCODING 338
SWIDTH 1183 0
DWIDTH 89 0
BBX 80 59 4 -1
BITMAP
0000003F800000000000
000007FFFC003FFFFFFF
00003FFFFF003FFFFFFF
0000FFFFFFC03FFFFFFF
0003FFFFFFF03FFFFFFF
000FFFFFFFF83FFFFFFF
001FFFFFFFFE3FFFFFFF
003FFFFFFFFF3FFFFFFF
007FFFFBFFFFBFFFFFFF
00FFFE000FFFFFC00000
01FFF00003FFFFC00000
03FFC00000FFFFC00000
03FF8000007FFFC00000
07FF0000003FFFC00000
0FFE0000000FFFC00000
0FFC00000007FFC00000
1FF800000007FFC00000
1FF000000003FFC00000
3FF000000001FFC00000
3FE000000001FFC00000
7FC000000000FFC00000
7FC000000000FFC00000
7FC0000000007FC00000
7F80000000007FFFFFFF
FF80000000007FFFFFFF
FF80000000003FFFFFFF
FF80000000003FFFFFFF
FF80000000003FFFFFFF
FF80000000003FFFFFFF
FF80000000003FFFFFFF
FF80000000003FFFFFFF
FF80000000003FC00000
FF80000000003FC00000
FF80000000003FC00000
FF80000000003FC00000
FF80000000007FC00000
7FC0000000007FC00000
7FC0000000007FC00000
7FC000000000FFC00000
7FE000000000FFC00000
3FE000000001FFC00000
3FF000000001FFC00000
1FF800000003FFC00000
1FF800000007FFC00000
0FFC0000000FFFC00000
0FFE0000001FFFC00000
07FF0000003FFFC00000
03FFC000007FFFC00000
01FFE00001FFFFC00000
00FFF80007FFFFC00000
007FFF003FFFFFFFFFFF
003FFFFFFFFFBFFFFFFF
001FFFFFFFFE3FFFFFFF
000FFFFFFFFC3FFFFFFF
0003FFFFFFF83FFFFFFF
0001FFFFFFE03FFFFFFF
00007FFFFF803FFFFFFF
00000FFFFE003FFFFFFF
000000FFF00000000000
ENDCHAR
STARTCHAR oe
ENCODING 339
SWIDTH 953 0
DWIDTH 71 0
BBX 64 38 4 -1
BITMAP
0000700000078000
000FFFC000FFFC00
003FFFF003FFFF00
00FFFFF807FFFF80
01FFFFFE1FFFFFC0
07FFFFFF3FFFFFE0
0FFFFFFF3FFFFFF0
0FFFFFFFFFFFFFF8
1FFC01FFFFE01FFC
3FF0007FFF8007FC
3FE0003FFF0007FC
7FC0001FFF0003FE
7FC0001FFE0001FE
FF80000FFE0001FE
FF80000FFFFFFFFF
FF000007FFFFFFFF
FF000007FFFFFFFF
FF000007FFFFFFFF
FF000007FFFFFFFF
FF000007FFFFFFFF
FF000007FFFFFFFF
FF000007FC000000
FF000007FC000000
FF80000FFC000000
FF80000FFE000060
FF80000FFE0000F0
7FC0001FFF0001FC
7FE0003FFF0003FF
3FF0007FFF8007FF
3FF800FFFFE00FFE
1FFF0FFFFFFC7FFC
0FFFFFFFFFFFFFF8
07FFFFFF3FFFFFF0
03FFFFFE1FFFFFE0
01FFFFFC0FFFFFC0
007FFFF003FFFF80
001FFFC000FFFE00
0003FE00001FF000
ENDCHAR
ENDFONT
